SplineFontDB: 3.2
FontName: Caudex-Bold
FullName: Caudex Bold
FamilyName: Caudex
Weight: Bold
Copyright: Copyright (c) The Caudex Contributors (https://github.com/nidud/caudex)
Version: 2.0
ItalicAngle: 0
UnderlinePosition: -100
UnderlineWidth: 30
Ascent: 1638
Descent: 410
InvalidEm: 0
sfntRevision: 0x00020000
LayerCount: 2
Layer: 0 1 "Back" 1
Layer: 1 1 "Fore" 0
XUID: [1021 997 1545580258 7013116]
StyleMap: 0x0020
FSType: 0
OS2Version: 0
OS2_WeightWidthSlopeOnly: 0
OS2_UseTypoMetrics: 0
CreationTime: 1305227018
ModificationTime: 1706489859
PfmFamily: 17
TTFWeight: 700
TTFWidth: 5
LineGap: 0
VLineGap: 0
Panose: 2 4 8 2 5 5 5 3 3 4
OS2TypoAscent: 2034
OS2TypoAOffset: 0
OS2TypoDescent: -606
OS2TypoDOffset: 0
OS2TypoLinegap: 0
OS2WinAscent: 2034
OS2WinAOffset: 0
OS2WinDescent: 606
OS2WinDOffset: 0
HheadAscent: 2034
HheadAOffset: 0
HheadDescent: -606
HheadDOffset: 0
OS2SubXSize: 1285
OS2SubYSize: 1230
OS2SubXOff: 0
OS2SubYOff: 0
OS2SupXSize: 655
OS2SupYSize: 860
OS2SupXOff: 0
OS2SupYOff: 550
OS2StrikeYSize: 100
OS2StrikeYPos: 530
OS2CapHeight: 1404
OS2XHeight: 929
OS2FamilyClass: 260
OS2Vendor: 'PfEd'
OS2CodePages: e000009f.dfd70000
OS2UnicodeRanges: e40002ff.5000f8fb.00008008.00000000
Lookup: 258 0 0 "'kern' Horizontal Kerning in Latin lookup 0" { "'kern' Horizontal Kerning in Latin lookup 0 subtable"  } ['kern' ('latn' <'dflt' > ) ]
MarkAttachClasses: 1
DEI: 91125
KernClass2: 18 19 "'kern' Horizontal Kerning in Latin lookup 0 subtable"
 148 A Agrave Aacute Acircumflex Atilde Adieresis Aring Amacron Abreve Aogonek Aringacute uni1EA0 uni1EA2 uni1EA4 uni1EA6 uni1EA8 uni1EAA uni1EAC uni1EAE
 17 F uni03DC uni1E1E
 32 L Lacute uniE19E uni1E36 uniA748
 41 P uni1E54 uni1E56 uniA750 uniA752 uniA754
 31 R Racute Rcaron uni1E58 uni1E5A
 24 T Tcaron uni1E6A uni1E6C
 71 V W Wcircumflex uni1E7E Wgrave Wacute Wdieresis uni1E86 uni1E88 uniA760
 54 Y Ycircumflex Ydieresis uni0232 Ygrave uni1EF4 uni1EF6
 9 r uni1E5B

StartChar: .notdef
Encoding: 65536 -1 0
Width: 772
Flags: MW
LayerCount: 2
Fore
SplineSet
0 1404 m 1,0,-1
 772 1404 l 1,1,-1
 772 0 l 1,2,-1
 0 0 l 1,3,-1
 0 1404 l 1,0,-1
272 244 m 2,5,-1
 272 175 l 2,6,7
 272 102 272 102 364 102 c 256,8,9
 456 102 456 102 456 175 c 2,10,-1
 456 244 l 2,11,12
 456 317 456 317 364 317 c 256,13,4
 272 317 272 317 272 244 c 2,5,-1
399 504 m 2,14,-1
 402 653 l 2,15,16
 403 713 403 713 420 744 c 0,17,18
 436 773 436 773 487 805 c 0,19,20
 508 819 508 819 524 829 c 0,21,22
 668 917 668 917 668 1059 c 0,23,24
 668 1172 668 1172 593 1237 c 0,25,26
 517 1302 517 1302 383 1302 c 0,27,28
 253 1302 253 1302 179 1235 c 1,29,30
 104 1169 104 1169 104 1054 c 0,31,32
 104 1028 104 1028 118 1016 c 0,33,34
 132 1005 132 1005 162 1005 c 0,35,36
 188 1005 188 1005 206 1016 c 0,37,38
 221 1026 221 1026 223 1046 c 0,39,40
 232 1162 232 1162 264 1204 c 1,41,42
 295 1248 295 1248 363 1248 c 0,43,44
 440 1248 440 1248 480 1201 c 1,45,46
 518 1154 518 1154 518 1059 c 0,47,48
 518 971 518 971 478 908 c 1,49,50
 436 844 436 844 331 771 c 1,51,-1
 331 505 l 2,52,53
 331 464 331 464 341 436 c 0,54,55
 349 411 349 411 364 411 c 0,56,57
 381 411 381 411 390 433 c 256,58,59
 399 455 399 455 399 504 c 2,14,-1
EndSplineSet
Validated: 1
EndChar

StartChar: numbersign
Encoding: 35 35 4
Width: 1128
Flags: MW
LayerCount: 2
Fore
SplineSet
358 18 m 2,0,-1
 358 361 l 1,1,-1
 104 361 l 2,2,3
 65 361 65 361 65 391 c 2,4,-1
 65 476 l 2,5,6
 65 506 65 506 104 506 c 2,7,-1
 358 506 l 1,8,-1
 358 741 l 1,9,-1
 104 741 l 2,10,11
 65 741 65 741 65 771 c 2,12,-1
 65 856 l 2,13,14
 65 886 65 886 104 886 c 2,15,-1
 358 886 l 1,16,-1
 358 1229 l 2,17,18
 358 1266 358 1266 393 1266 c 2,19,-1
 478 1266 l 2,20,21
 513 1266 513 1266 513 1229 c 2,22,-1
 513 886 l 1,23,-1
 650 886 l 1,24,-1
 650 1229 l 2,25,26
 650 1266 650 1266 686 1266 c 2,27,-1
 770 1266 l 2,28,29
 806 1266 806 1266 806 1229 c 2,30,-1
 806 886 l 1,31,-1
 1059 886 l 2,32,33
 1099 886 1099 886 1099 856 c 2,34,-1
 1099 771 l 2,35,36
 1099 741 1099 741 1059 741 c 2,37,-1
 806 741 l 1,38,-1
 806 506 l 1,39,-1
 1059 506 l 2,40,41
 1099 506 1099 506 1099 476 c 2,42,-1
 1099 391 l 2,43,44
 1099 361 1099 361 1059 361 c 2,45,-1
 806 361 l 1,46,-1
 806 18 l 2,47,48
 806 -20 806 -20 770 -20 c 2,49,-1
 686 -20 l 2,50,51
 650 -20 650 -20 650 18 c 2,52,-1
 650 361 l 1,53,-1
 513 361 l 1,54,-1
 513 18 l 2,55,56
 513 -20 513 -20 478 -20 c 2,57,-1
 393 -20 l 2,58,59
 358 -20 358 -20 358 18 c 2,0,-1
513 741 m 1,60,-1
 513 506 l 1,61,-1
 650 506 l 1,62,-1
 650 741 l 1,63,-1
 513 741 l 1,60,-1
EndSplineSet
Validated: 1
EndChar

StartChar: ampersand
Encoding: 38 38 5
Width: 1292
Flags: MW
LayerCount: 2
Fore
SplineSet
906 303 m 1,0,-1
 1017 165 l 2,1,2
 1063 106 1063 106 1164 58 c 0,3,4
 1198 43 1198 43 1210 24 c 0,5,6
 1213 13 1213 13 1213 4 c 0,7,8
 1211 0 1211 0 1211 -4 c 0,9,10
 1193 -22 1193 -22 1172 -22 c 2,11,-1
 928 -22 l 2,12,13
 878 -22 878 -22 828 57 c 0,14,15
 795 107 795 107 782 122 c 1,16,17
 719 44 719 44 623 -4 c 0,18,19
 525 -52 525 -52 403 -52 c 0,20,21
 255 -52 255 -52 166 37 c 0,22,23
 88 117 88 117 88 240 c 0,24,25
 88 253 88 253 89 265 c 0,26,27
 95 389 95 389 165 488 c 0,28,29
 230 583 230 583 371 676 c 1,30,31
 319 746 319 746 284 829 c 0,32,33
 253 901 253 901 253 982 c 0,34,35
 253 996 253 996 254 1010 c 0,36,37
 259 1148 259 1148 347 1235 c 0,38,39
 434 1322 434 1322 575 1322 c 0,40,41
 713 1322 713 1322 788 1251 c 0,42,43
 857 1185 857 1185 857 1079 c 2,44,-1
 857 1062 l 1,45,46
 850 951 850 951 785 865 c 0,47,48
 718 776 718 776 599 701 c 1,49,-1
 830 398 l 1,50,-1
 923 571 l 2,51,52
 929 585 929 585 931 599 c 0,53,54
 932 604 932 604 932 608 c 0,55,56
 932 616 932 616 930 621 c 0,57,58
 927 631 927 631 920.5 639 c 128,-1,59
 914 647 914 647 910 660 c 0,60,61
 908 666 908 666 908 671 c 2,62,-1
 908 674 l 2,63,64
 908 677 908 677 911 686 c 0,65,66
 923 720 923 720 956 720 c 2,67,-1
 1214 720 l 2,68,69
 1237 720 1237 720 1249 706 c 0,70,71
 1255 700 1255 700 1255 690 c 2,72,-1
 1255 688 l 2,73,74
 1255 683 1255 683 1253 675 c 0,75,76
 1243 656 1243 656 1208 639 c 0,77,78
 1192 632 1192 632 1175 624 c 128,-1,79
 1158 616 1158 616 1143 606 c 0,80,81
 1073 561 1073 561 1022 485 c 128,-1,82
 971 409 971 409 906 303 c 1,0,-1
534 788 m 1,83,84
 598 826 598 826 638 890 c 0,85,86
 676 953 676 953 683 1052 c 1,87,-1
 683 1066 l 2,88,89
 683 1130 683 1130 660 1176 c 0,90,91
 639 1216 639 1216 568 1216 c 0,92,93
 513 1216 513 1216 482 1180 c 0,94,95
 446 1137 446 1137 442 1061 c 0,96,97
 441 1050 441 1050 441 1041 c 0,98,99
 441 906 441 906 534 788 c 1,83,84
712 214 m 1,100,-1
 432 584 l 1,101,102
 306 492 306 492 298 336 c 0,103,104
 297 326 297 326 297 316 c 0,105,106
 297 220 297 220 349 152 c 0,107,108
 403 82 403 82 484 82 c 0,109,110
 556 82 556 82 614.5 122.5 c 128,-1,111
 673 163 673 163 712 214 c 1,100,-1
EndSplineSet
Validated: 1
EndChar

StartChar: quotesingle
Encoding: 39 39 6
Width: 426
Flags: MW
LayerCount: 2
Fore
SplineSet
247 968 m 2,0,1
 247 937 247 937 203 937 c 2,2,-1
 188 937 l 2,3,4
 145 937 145 937 145 968 c 2,5,-1
 93 1408 l 1,6,-1
 93 1413 l 2,7,8
 93 1463 93 1463 172 1463 c 2,9,-1
 219 1463 l 2,10,11
 298 1463 298 1463 298 1414 c 2,12,-1
 298 1408 l 1,13,-1
 247 968 l 2,0,1
EndSplineSet
Validated: 1
EndChar

StartChar: parenleft
Encoding: 40 40 7
Width: 682
Flags: MW
LayerCount: 2
Fore
SplineSet
114 757 m 2,0,1
 114 896 114 896 132.5 1024.5 c 128,-1,2
 151 1153 151 1153 215 1252 c 0,3,4
 247 1303 247 1303 280 1345.5 c 128,-1,5
 313 1388 313 1388 368 1421 c 0,6,7
 475 1487 475 1487 580 1487 c 0,8,9
 627 1487 627 1487 627 1437 c 0,10,11
 627 1410 627 1410 621 1404 c 0,12,13
 612 1390 612 1390 556 1377 c 128,-1,14
 500 1364 500 1364 441 1304 c 0,15,16
 376 1240 376 1240 348 1113 c 0,17,18
 320 985 320 985 320 640 c 2,19,-1
 320 497 l 2,20,21
 320 150 320 150 348 22 c 0,22,23
 376 -103 376 -103 442 -168 c 0,24,25
 477 -201 477 -201 506 -218 c 256,26,27
 535 -235 535 -235 582 -249 c 0,28,29
 617 -261 617 -261 626 -275 c 0,30,31
 626 -281 626 -281 627 -300 c 2,32,-1
 627 -305 l 2,33,34
 627 -326 627 -326 617 -338 c 0,35,36
 603 -352 603 -352 576 -352 c 0,37,38
 498 -352 498 -352 416 -312 c 0,39,40
 331 -271 331 -271 257 -176 c 128,-1,41
 183 -81 183 -81 153 19 c 0,42,43
 114 150 114 150 114 377 c 2,44,-1
 114 757 l 2,0,1
EndSplineSet
Validated: 1
EndChar

StartChar: comma
Encoding: 44 44 8
Width: 480
Flags: MW
LayerCount: 2
Fore
SplineSet
221 -46 m 1,0,1
 116 -46 116 -46 116 57 c 2,2,-1
 116 139 l 2,3,4
 116 246 116 246 251 246 c 256,5,6
 386 246 386 246 386 139 c 2,7,-1
 386 57 l 2,8,9
 386 29 386 29 360 -45 c 0,10,11
 315 -170 315 -170 199 -244 c 0,12,13
 153 -273 153 -273 122 -274 c 0,14,15
 99 -274 99 -274 81 -257 c 0,16,17
 67 -244 67 -244 67 -228 c 256,18,19
 67 -198 67 -198 126 -162 c 0,20,21
 210 -111 210 -111 221 -46 c 1,0,1
EndSplineSet
Validated: 1
EndChar

StartChar: hyphen
Encoding: 45 45 9
Width: 1100
Flags: MW
LayerCount: 2
Fore
SplineSet
148 523 m 6,0,1
 148 564 148 564 200 564 c 6,2,-1
 864 564 l 6,3,4
 916 564 916 564 916 523 c 6,5,-1
 916 470 l 6,6,7
 916 429 916 429 864 429 c 6,8,-1
 200 429 l 6,9,10
 148 429 148 429 148 470 c 6,11,-1
 148 523 l 6,0,1
EndSplineSet
Validated: 1
EndChar

StartChar: period
Encoding: 46 46 10
Width: 480
Flags: MW
LayerCount: 2
Fore
SplineSet
257 250 m 256,0,1
 392 250 392 250 392 143 c 2,2,-1
 392 61 l 2,3,4
 392 -45 392 -45 257 -45 c 256,5,6
 122 -45 122 -45 122 61 c 2,7,-1
 122 143 l 2,8,9
 122 250 122 250 257 250 c 256,0,1
EndSplineSet
Validated: 1
EndChar

StartChar: slash
Encoding: 47 47 11
Width: 1024
Flags: MW
LayerCount: 2
Fore
SplineSet
-38 -90 m 1,0,-1
 827 1494 l 1,1,-1
 1021 1494 l 1,2,-1
 157 -90 l 1,3,-1
 -38 -90 l 1,0,-1
EndSplineSet
Validated: 1
EndChar

StartChar: zero
Encoding: 48 48 12
Width: 1100
Flags: MW
LayerCount: 2
Fore
SplineSet
549 1316 m 2,0,1
 387 1313 387 1313 357 1175.5 c 128,-1,2
 327 1038 327 1038 327 939 c 2,3,-1
 327 441 l 2,4,5
 327 342 327 342 360 203.5 c 128,-1,6
 393 65 393 65 549 65 c 0,7,8
 656 65 656 65 713.5 173 c 128,-1,9
 771 281 771 281 771 441 c 2,10,-1
 771 939 l 2,11,12
 771 1099 771 1099 717 1213 c 0,13,14
 667 1316 667 1316 551 1316 c 2,15,-1
 549 1316 l 2,0,1
549 1426 m 0,16,17
 775 1426 775 1426 894 1287.5 c 128,-1,18
 1013 1149 1013 1149 1013 962 c 2,19,-1
 1013 419 l 2,20,21
 1013 229 1013 229 877 92.5 c 128,-1,22
 741 -44 741 -44 549 -44 c 0,23,24
 308 -44 308 -44 196.5 93 c 128,-1,25
 85 230 85 230 85 419 c 2,26,-1
 85 962 l 2,27,28
 85 1151 85 1151 206.5 1288.5 c 128,-1,29
 328 1426 328 1426 549 1426 c 0,16,17
EndSplineSet
Validated: 1
EndChar

StartChar: one
Encoding: 49 49 13
Width: 1000
Flags: MW
LayerCount: 2
Fore
SplineSet
350 -20 m 2,0,1
 305 -20 305 -20 305 20 c 0,2,3
 305 57 305 57 353.5 74.5 c 128,-1,4
 402 92 402 92 402 142 c 2,5,-1
 402 1197 l 1,6,-1
 204 1197 l 1,7,-1
 204 1263 l 2,8,9
 204 1306 204 1306 267.5 1329.5 c 128,-1,10
 331 1353 331 1353 419 1377 c 0,11,12
 470 1390 470 1390 517 1403 c 128,-1,13
 564 1416 564 1416 627 1435 c 1,14,-1
 627 142 l 2,15,16
 627 92 627 92 675.5 74.5 c 128,-1,17
 724 57 724 57 724 20 c 0,18,19
 724 -20 724 -20 679 -20 c 2,20,-1
 350 -20 l 2,0,1
EndSplineSet
Validated: 1
EndChar

StartChar: two
Encoding: 50 50 14
Width: 1100
Flags: MW
LayerCount: 2
Fore
SplineSet
147 -20 m 1,0,-1
 147 80 l 2,1,2
 147 168 147 168 200 234 c 0,3,4
 250 297 250 297 360 415 c 1,5,6
 424 477 424 477 487 546.5 c 128,-1,7
 550 616 550 616 607 685 c 0,8,9
 688 781 688 781 725 880 c 0,10,11
 752 948 752 948 752 1006 c 0,12,13
 752 1059 752 1059 729 1102 c 0,14,15
 682 1191 682 1191 593 1226 c 0,16,17
 543 1245 543 1245 487 1245 c 0,18,19
 444 1245 444 1245 398 1234 c 0,20,21
 292 1207 292 1207 222 1106 c 0,22,23
 196 1068 196 1068 185 1003 c 1,24,-1
 137 1179 l 1,25,26
 147 1207 147 1207 159 1230 c 0,27,28
 203 1300 203 1300 279 1354.5 c 128,-1,29
 355 1409 355 1409 463 1426 c 0,30,31
 506 1432 506 1432 548 1432 c 0,32,33
 685 1432 685 1432 809 1362 c 0,34,35
 972 1270 972 1270 975 1060 c 2,36,-1
 975 1056 l 2,37,38
 975 919 975 919 902 797 c 256,39,40
 829 675 829 675 730 565.5 c 128,-1,41
 631 456 631 456 531 357.5 c 128,-1,42
 431 259 431 259 394 195 c 1,43,-1
 715 195 l 2,44,45
 835 195 835 195 979 247 c 1,46,-1
 979 31 l 1,47,48
 908 -13 908 -13 840 -16.5 c 128,-1,49
 772 -20 772 -20 715 -20 c 2,50,-1
 147 -20 l 1,0,-1
EndSplineSet
Validated: 1
EndChar

StartChar: three
Encoding: 51 51 15
Width: 1100
Flags: MW
LayerCount: 2
Fore
SplineSet
722 48 m 0,0,1
 617 -27 617 -27 447 -47 c 0,2,3
 422 -50 422 -50 397 -50 c 0,4,5
 261 -50 261 -50 155 33 c 1,6,-1
 149 319 l 1,7,8
 248 125 248 125 379 91 c 0,9,10
 429 78 429 78 473 78 c 0,11,12
 546 78 546 78 606 111 c 0,13,14
 699 159 699 159 732 251 c 0,15,16
 751 303 751 303 751 354 c 0,17,18
 751 397 751 397 738 439 c 0,19,20
 709 532 709 532 617 600.5 c 128,-1,21
 525 669 525 669 344 672 c 1,22,-1
 342 733 l 1,23,24
 423 759 423 759 505 795.5 c 128,-1,25
 587 832 587 832 630 905 c 0,26,27
 665 965 665 965 665 1025 c 0,28,29
 665 1042 665 1042 662 1060 c 0,30,31
 649 1135 649 1135 600 1186 c 0,32,33
 544 1244 544 1244 457 1253 c 1,34,-1
 439 1253 l 2,35,36
 349 1253 349 1253 287 1184 c 0,37,38
 237 1129 237 1129 216 1071 c 1,39,-1
 180 1253 l 1,40,41
 270 1353 270 1353 362 1389.5 c 128,-1,42
 454 1426 454 1426 541 1426 c 0,43,44
 784 1423 784 1423 861 1233 c 0,45,46
 883 1179 883 1179 883 1125 c 0,47,48
 883 994 883 994 747 865 c 0,49,50
 713 833 713 833 706 828 c 1,51,52
 824 770 824 770 891 654 c 0,53,54
 947 554 947 554 947 448 c 0,55,56
 947 427 947 427 946 415 c 0,57,58
 928 199 928 199 722 48 c 0,0,1
EndSplineSet
Validated: 1
EndChar

StartChar: four
Encoding: 52 52 16
Width: 1100
Flags: MW
LayerCount: 2
Fore
SplineSet
621 383 m 1,0,-1
 56 383 l 1,1,-1
 56 520 l 1,2,-1
 631 1385 l 1,3,-1
 846 1385 l 1,4,-1
 846 560 l 1,5,-1
 1042 560 l 1,6,-1
 1042 383 l 1,7,-1
 846 383 l 1,8,-1
 846 142 l 2,9,10
 846 94 846 94 915 76.5 c 128,-1,11
 984 59 984 59 984 20 c 0,12,13
 984 -20 984 -20 939 -20 c 2,14,-1
 528 -20 l 2,15,16
 482 -20 482 -20 482 20 c 0,17,18
 482 59 482 59 551.5 76.5 c 128,-1,19
 621 94 621 94 621 142 c 2,20,-1
 621 383 l 1,0,-1
621 560 m 1,21,-1
 621 1130 l 1,22,-1
 246 560 l 1,23,-1
 621 560 l 1,21,-1
EndSplineSet
Validated: 1
EndChar

StartChar: five
Encoding: 53 53 17
Width: 1100
Flags: MW
LayerCount: 2
Fore
SplineSet
255 1175 m 1,0,-1
 255 779 l 1,1,2
 256 779 256 779 297.5 803.5 c 128,-1,3
 339 828 339 828 388 847 c 0,4,5
 483 885 483 885 593 885 c 0,6,7
 609 885 609 885 626 884 c 0,8,9
 783 872 783 872 897 734 c 1,10,11
 1004 595 1004 595 1004 425 c 2,12,-1
 1004 419 l 2,13,14
 1001 243 1001 243 856 98 c 0,15,16
 715 -43 715 -43 501 -43 c 2,17,-1
 492 -43 l 2,18,19
 362 -40 362 -40 290 -20 c 128,-1,20
 218 0 218 0 145 32 c 0,21,22
 89 54 89 54 86 101 c 0,23,24
 84 124 84 124 84 144 c 0,25,26
 84 212 84 212 110 238 c 0,27,28
 137 263 137 263 158 263 c 0,29,30
 174 263 174 263 184 253 c 0,31,32
 224 205 224 205 291 149 c 0,33,34
 349 99 349 99 455 99 c 2,35,-1
 463 99 l 2,36,37
 553 99 553 99 628 154.5 c 128,-1,38
 703 210 703 210 740 297 c 0,39,40
 765 357 765 357 765 425 c 0,41,42
 765 471 765 471 754 522 c 0,43,44
 726 642 726 642 624 699 c 0,45,46
 550 739 550 739 488 739 c 0,47,48
 460 739 460 739 435 732 c 0,49,50
 347 705 347 705 290 655 c 0,51,52
 256 626 256 626 227 621 c 0,53,54
 209 616 209 616 190 616 c 0,55,56
 181 616 181 616 175 617 c 0,57,58
 161 617 161 617 136 619 c 128,-1,59
 111 621 111 621 111 668 c 2,60,-1
 111 1320 l 2,61,62
 111 1362 111 1362 121 1373.5 c 128,-1,63
 131 1385 131 1385 181 1385 c 2,64,-1
 661 1385 l 2,65,66
 716 1385 716 1385 782 1381.5 c 128,-1,67
 848 1378 848 1378 918 1335 c 1,68,-1
 918 1125 l 1,69,70
 782 1175 782 1175 661 1175 c 2,71,-1
 255 1175 l 1,0,-1
EndSplineSet
Validated: 1
EndChar

StartChar: six
Encoding: 54 54 18
Width: 1100
Flags: MW
LayerCount: 2
Fore
SplineSet
537 862 m 1,0,1
 430 856 430 856 349.5 735.5 c 128,-1,2
 269 615 269 615 269 446 c 256,3,4
 269 277 269 277 352 164 c 0,5,6
 426 62 426 62 526 62 c 2,7,-1
 537 62 l 1,8,9
 643 67 643 67 723.5 188 c 128,-1,10
 804 309 804 309 804 478 c 0,11,12
 804 646 804 646 721 760 c 0,13,14
 647 862 647 862 547 862 c 2,15,-1
 537 862 l 1,0,1
364 946 m 1,16,17
 395 964 395 964 525 964 c 0,18,19
 558 964 558 964 593 960 c 0,20,21
 764 941 764 941 875 840 c 0,22,23
 1040 685 1040 685 1042 462 c 0,24,25
 1042 254 1042 254 896 103 c 0,26,27
 752 -46 752 -46 552 -46 c 2,28,-1
 539 -46 l 1,29,30
 324 -40 324 -40 188 108 c 0,31,32
 57 250 57 250 57 453 c 2,33,-1
 57 462 l 2,34,35
 60 778 60 778 197 1002.5 c 128,-1,36
 334 1227 334 1227 579 1395 c 2,37,-1
 608 1415 l 1,38,39
 639 1431 639 1431 677 1431 c 2,40,-1
 680 1431 l 2,41,42
 713 1430 713 1430 743 1430 c 0,43,44
 810 1430 810 1430 810 1401 c 0,45,46
 810 1385 810 1385 785 1372 c 0,47,48
 625 1260 625 1260 520.5 1152 c 128,-1,49
 416 1044 416 1044 364 946 c 1,16,17
EndSplineSet
Validated: 1
EndChar

StartChar: seven
Encoding: 55 55 19
Width: 1100
Flags: MW
LayerCount: 2
Fore
SplineSet
405 142 m 0,0,1
 371 74 371 74 347 -20 c 1,2,-1
 139 -19 l 1,3,4
 136 12 136 12 136 25 c 0,5,6
 136 77 136 77 157 126 c 0,7,8
 183 184 183 184 208 233 c 0,9,10
 332 464 332 464 495 742.5 c 128,-1,11
 658 1021 658 1021 750 1175 c 1,12,-1
 402 1175 l 2,13,14
 280 1175 280 1175 145 1125 c 1,15,-1
 145 1335 l 1,16,17
 214 1378 214 1378 280 1381.5 c 128,-1,18
 346 1385 346 1385 402 1385 c 2,19,-1
 882 1385 l 2,20,21
 930 1385 930 1385 941 1374 c 128,-1,22
 952 1363 952 1363 952 1320 c 0,23,24
 950 1248 950 1248 920 1187 c 0,25,26
 791 926 791 926 662.5 664.5 c 128,-1,27
 534 403 534 403 405 142 c 0,0,1
EndSplineSet
Validated: 1
EndChar

StartChar: eight
Encoding: 56 56 20
Width: 1100
Flags: MW
LayerCount: 2
Fore
SplineSet
558 715 m 0,0,1
 447 715 447 715 368 642.5 c 128,-1,2
 289 570 289 570 289 394 c 0,3,4
 289 216 289 216 358.5 144 c 128,-1,5
 428 72 428 72 558 72 c 0,6,7
 687 72 687 72 756 141.5 c 128,-1,8
 825 211 825 211 825 394 c 0,9,10
 825 576 825 576 746.5 645.5 c 128,-1,11
 668 715 668 715 558 715 c 0,0,1
590 1428 m 2,12,13
 806 1425 806 1425 910 1321 c 0,14,15
 1009 1223 1009 1223 1009 1070 c 2,16,-1
 1009 1058 l 1,17,18
 1003 814 1003 814 813 773 c 1,19,20
 874 757 874 757 964 657.5 c 128,-1,21
 1054 558 1054 558 1060 392 c 1,22,-1
 1060 375 l 2,23,24
 1060 171 1060 171 919 69 c 0,25,26
 773 -37 773 -37 541 -39 c 2,27,-1
 533 -39 l 2,28,29
 307 -39 307 -39 173 72 c 0,30,31
 38 184 38 184 38 391 c 0,32,33
 38 553 38 553 132.5 655 c 128,-1,34
 227 757 227 757 299 775 c 1,35,36
 114 819 114 819 114 1072 c 2,37,-1
 114 1076 l 2,38,39
 114 1251 114 1251 247 1342 c 0,40,41
 373 1428 373 1428 576 1428 c 2,42,-1
 590 1428 l 2,12,13
563 1325 m 256,43,44
 448 1325 448 1325 397 1252.5 c 128,-1,45
 346 1180 346 1180 346 1073 c 0,46,47
 346 964 346 964 389.5 893 c 128,-1,48
 433 822 433 822 563 822 c 0,49,50
 692 822 692 822 736 893 c 128,-1,51
 780 964 780 964 780 1073 c 0,52,53
 780 1180 780 1180 729 1252.5 c 128,-1,54
 678 1325 678 1325 563 1325 c 256,43,44
EndSplineSet
Validated: 1
EndChar

StartChar: less
Encoding: 60 60 21
Width: 1024
Flags: MW
LayerCount: 2
Fore
SplineSet
169 595 m 2,0,1
 153 610 153 610 153 629 c 0,2,3
 153 652 153 652 180 678 c 2,4,-1
 797 1281 l 2,5,6
 825 1307 825 1307 852 1307 c 0,7,8
 876 1307 876 1307 894 1289 c 2,9,-1
 942 1240 l 2,10,11
 956 1224 956 1224 956 1206 c 0,12,13
 956 1182 956 1182 931 1158 c 2,14,-1
 393 631 l 1,15,-1
 932 105 l 2,16,17
 956 80 956 80 956 56 c 0,18,19
 956 39 956 39 942 23 c 2,20,-1
 892 -27 l 2,21,22
 876 -43 876 -43 852 -43 c 0,23,24
 825 -43 825 -43 797 -17 c 2,25,-1
 169 595 l 2,0,1
EndSplineSet
Validated: 1
EndChar

StartChar: at
Encoding: 64 64 22
Width: 2119
Flags: MW
LayerCount: 2
Fore
SplineSet
1860 168 m 0,0,1
 1808 100 1808 100 1739 42 c 128,-1,2
 1670 -16 1670 -16 1589 -49 c 0,3,4
 1495 -89 1495 -89 1403 -89 c 0,5,6
 1334 -89 1334 -89 1267 -66 c 0,7,8
 1157 -28 1157 -28 1157 87 c 1,9,-1
 1157 61 l 1,10,-1
 883 -32 l 2,11,12
 846 -45 846 -45 819 -45 c 2,13,-1
 777 -45 l 1,14,15
 621 -37 621 -37 538 81 c 0,16,17
 474 171 474 171 474 300 c 0,18,19
 474 414 474 414 520 529 c 128,-1,20
 566 644 566 644 633 722 c 0,21,22
 672 769 672 769 750 819 c 0,23,24
 776 835 776 835 810 848 c 0,25,26
 897 878 897 878 984.5 908 c 128,-1,27
 1072 938 1072 938 1161 968 c 0,28,29
 1183 976 1183 976 1204 976 c 2,30,-1
 1210 976 l 2,31,32
 1278 973 1278 973 1365 942 c 0,33,34
 1375 939 1375 939 1379 937 c 0,35,36
 1396 929 1396 929 1425 918 c 0,37,38
 1432 916 1432 916 1437 916 c 0,39,40
 1444 916 1444 916 1451 920 c 0,41,42
 1475 937 1475 937 1484 946 c 0,43,44
 1497 962 1497 962 1519 962 c 0,45,46
 1529 962 1529 962 1539 958 c 0,47,48
 1571 944 1571 944 1571 922 c 2,49,-1
 1571 918 l 1,50,-1
 1404 196 l 2,51,52
 1395 157 1395 157 1395 128 c 0,53,54
 1395 55 1395 55 1450 41 c 0,55,56
 1464 37 1464 37 1479 37 c 0,57,58
 1511 37 1511 37 1550 53 c 0,59,60
 1614 77 1614 77 1665 125 c 0,61,62
 1752 204 1752 204 1810 356 c 0,63,64
 1869 511 1869 511 1869 699 c 0,65,66
 1869 1034 1869 1034 1667 1190 c 0,67,68
 1460 1350 1460 1350 1166 1350 c 0,69,70
 946 1350 946 1350 732 1240 c 0,71,72
 517 1131 517 1131 383 904 c 0,73,74
 247 677 247 677 247 387 c 0,75,76
 247 162 247 162 337 -22 c 0,77,78
 426 -202 426 -202 598 -304 c 0,79,80
 766 -404 766 -404 1005 -404 c 0,81,82
 1207 -404 1207 -404 1387 -333 c 0,83,84
 1551 -268 1551 -268 1677 -163 c 0,85,86
 1688 -152 1688 -152 1705 -152 c 0,87,88
 1723 -152 1723 -152 1736 -165 c 0,89,90
 1750 -179 1750 -179 1750 -196 c 0,91,92
 1750 -209 1750 -209 1743 -222 c 0,93,94
 1731 -249 1731 -249 1714 -265 c 0,95,96
 1563 -405 1563 -405 1370.5 -466 c 128,-1,97
 1178 -527 1178 -527 960 -527 c 0,98,99
 548 -527 548 -527 285 -267 c 0,100,101
 23 -9 23 -9 23 388 c 0,102,103
 23 839 23 839 350 1151 c 0,104,105
 679 1462 679 1462 1157 1462 c 0,106,107
 1541 1462 1541 1462 1793 1254 c 0,108,109
 2044 1044 2044 1044 2044 702 c 0,110,111
 2044 408 2044 408 1860 168 c 0,0,1
1165 159 m 1,112,-1
 1304 765 l 1,113,114
 1280 793 1280 793 1225.5 822.5 c 128,-1,115
 1171 852 1171 852 1126 854 c 2,116,-1
 1123 854 l 2,117,118
 1108 854 1108 854 1092 848 c 0,119,120
 1052 835 1052 835 1013 821.5 c 128,-1,121
 974 808 974 808 935 795 c 0,122,123
 914 787 914 787 898 773 c 0,124,125
 825 710 825 710 782.5 619 c 128,-1,126
 740 528 740 528 727 439 c 0,127,128
 719 393 719 393 719 352 c 0,129,130
 719 271 719 271 749 214 c 0,131,132
 792 130 792 130 874 105 c 0,133,134
 907 95 907 95 941 95 c 0,135,136
 952 95 952 95 964 96 c 0,137,138
 983 98 983 98 1013 108 c 0,139,140
 1035 115 1035 115 1088 133 c 128,-1,141
 1141 151 1141 151 1165 159 c 1,112,-1
EndSplineSet
Validated: 1
EndChar

StartChar: A
Encoding: 65 65 23
Width: 1593
Flags: MW
LayerCount: 2
Fore
SplineSet
856 1447 m 1,0,1
 912 1315 912 1315 985.5 1144 c 128,-1,2
 1059 973 1059 973 1137.5 792 c 128,-1,3
 1216 611 1216 611 1289.5 440 c 128,-1,4
 1363 269 1363 269 1414 152 c 0,5,6
 1427 120 1427 120 1465 94 c 0,7,8
 1486 81 1486 81 1508.5 71 c 128,-1,9
 1531 61 1531 61 1547 50 c 0,10,11
 1562 39 1562 39 1567 28 c 0,12,13
 1571 21 1571 21 1571 13 c 0,14,15
 1571 6 1571 6 1566 -3 c 0,16,17
 1558 -20 1558 -20 1532 -20 c 2,18,-1
 1194 -20 l 2,19,20
 1176 -20 1176 -20 1160 -9 c 0,21,22
 1143 3 1143 3 1140 14 c 0,23,24
 1137 19 1137 19 1137 27 c 0,25,26
 1137 44 1137 44 1155 59 c 0,27,28
 1165 68 1165 68 1176 76.5 c 128,-1,29
 1187 85 1187 85 1191 97 c 0,30,31
 1193 103 1193 103 1193 110 c 0,32,33
 1193 124 1193 124 1186 141 c 2,34,-1
 1044 469 l 1,35,-1
 497 469 l 1,36,37
 467 397 467 397 431.5 311.5 c 128,-1,38
 396 226 396 226 360 141 c 0,39,40
 352 123 352 123 351 109 c 0,41,42
 350 103 350 103 350 97 c 0,43,44
 350 89 350 89 352 82 c 0,45,46
 355 72 355 72 361.5 64 c 128,-1,47
 368 56 368 56 373 42 c 0,48,49
 374 32 374 32 374 28 c 0,50,51
 374 21 374 21 371 15 c 0,52,53
 359 -20 359 -20 325 -20 c 2,54,-1
 67 -20 l 2,55,56
 42 -20 42 -20 28 1 c 0,57,58
 28 3 28 3 26 7 c 0,59,60
 26 15 26 15 29 26 c 0,61,62
 39 48 39 48 75 64 c 0,63,64
 89 71 89 71 106 79 c 128,-1,65
 123 87 123 87 139 98 c 0,66,67
 171 121 171 121 185 153 c 2,68,-1
 758 1447 l 1,69,-1
 856 1447 l 1,0,1
992 590 m 1,70,-1
 766 1117 l 1,71,72
 726 1020 726 1020 662.5 868 c 128,-1,73
 599 716 599 716 547 590 c 1,74,-1
 992 590 l 1,70,-1
EndSplineSet
Validated: 1
EndChar

StartChar: B
Encoding: 66 66 24
Width: 1240
Flags: MW
LayerCount: 2
Fore
SplineSet
704 1424 m 2,0,1
 807 1424 807 1424 920.5 1387.5 c 128,-1,2
 1034 1351 1034 1351 1095 1243 c 0,3,4
 1143 1159 1143 1159 1143 1041 c 0,5,6
 1141 928 1141 928 1078 839 c 0,7,8
 1031 771 1031 771 980 748 c 1,9,10
 1083 715 1083 715 1154 594 c 0,11,12
 1206 501 1206 501 1206 372 c 0,13,14
 1204 248 1204 248 1135 150 c 0,15,16
 1074 64 1074 64 963.5 22 c 128,-1,17
 853 -20 853 -20 761 -20 c 2,18,-1
 134 -20 l 2,19,20
 88 -20 88 -20 88 21 c 0,21,22
 88 59 88 59 138 77 c 128,-1,23
 188 95 188 95 188 146 c 2,24,-1
 188 1258 l 2,25,26
 188 1308 188 1308 138 1326 c 128,-1,27
 88 1344 88 1344 88 1383 c 0,28,29
 88 1424 88 1424 134 1424 c 2,30,-1
 704 1424 l 2,0,1
418 667 m 1,31,-1
 418 93 l 1,32,-1
 619 93 l 2,33,34
 688 93 688 93 757 113 c 128,-1,35
 826 133 826 133 876 182 c 0,36,37
 953 257 953 257 953 383 c 0,38,39
 953 504 953 504 872 584 c 0,40,41
 786 667 786 667 640 667 c 2,42,-1
 418 667 l 1,31,-1
418 794 m 1,43,-1
 667 794 l 1,44,45
 774 806 774 806 840 869 c 0,46,47
 909 936 909 936 909 1050 c 0,48,49
 909 1161 909 1161 836 1231 c 0,50,51
 759 1305 759 1305 629 1305 c 2,52,-1
 418 1305 l 1,53,-1
 418 794 l 1,43,-1
EndSplineSet
Validated: 1
EndChar

StartChar: C
Encoding: 67 67 25
Width: 1400
Flags: MW
LayerCount: 2
Fore
SplineSet
848 -57 m 0,0,1
 531 -57 531 -57 286.5 145 c 128,-1,2
 42 347 42 347 42 701 c 0,3,4
 42 1046 42 1046 279.5 1255.5 c 128,-1,5
 517 1465 517 1465 848 1465 c 0,6,7
 966 1465 966 1465 1099.5 1438.5 c 128,-1,8
 1233 1412 1233 1412 1365 1328 c 1,9,-1
 1340 1106 l 1,10,11
 1332 1071 1332 1071 1295 1071 c 2,12,-1
 1291 1071 l 2,13,14
 1263 1073 1263 1073 1243 1112 c 0,15,16
 1181 1244 1181 1244 1091 1287 c 128,-1,17
 1001 1330 1001 1330 848 1330 c 0,18,19
 636 1330 636 1330 469 1181.5 c 128,-1,20
 302 1033 302 1033 302 701 c 0,21,22
 302 489 302 489 459 292.5 c 128,-1,23
 616 96 616 96 849 85 c 0,24,25
 873 84 873 84 894 84 c 0,26,27
 1015 84 1015 84 1093 120 c 0,28,29
 1181 162 1181 162 1243 295 c 0,30,31
 1262 331 1262 331 1290 336 c 1,32,-1
 1297 336 l 2,33,34
 1334 336 1334 336 1340 300 c 2,35,-1
 1343 272 l 1,36,-1
 1252 17 l 1,37,38
 1143 -28 1143 -28 1041 -42.5 c 128,-1,39
 939 -57 939 -57 848 -57 c 0,0,1
EndSplineSet
Validated: 1
EndChar

StartChar: D
Encoding: 68 68 26
Width: 1585
Flags: MW
LayerCount: 2
Fore
SplineSet
1525 792 m 0,0,1
 1527 758 1527 758 1527 727 c 0,2,3
 1527 558 1527 558 1464 422 c 0,4,5
 1388 260 1388 260 1252 155 c 0,6,7
 1021 -23 1021 -23 689 -27 c 1,8,-1
 609 -27 l 2,9,10
 551 -27 551 -27 500 -26 c 2,11,-1
 383 -26 l 2,12,13
 299 -26 299 -26 256 -23 c 2,14,-1
 233 -23 l 2,15,16
 194 -23 194 -23 130 -29 c 1,17,18
 83 -29 83 -29 83 13 c 0,19,20
 83 51 83 51 133 69 c 128,-1,21
 183 87 183 87 183 139 c 2,22,-1
 183 1262 l 2,23,24
 183 1313 183 1313 133 1330.5 c 128,-1,25
 83 1348 83 1348 83 1387 c 0,26,27
 83 1428 83 1428 129 1428 c 0,28,29
 171 1427 171 1427 214 1427 c 0,30,31
 256 1427 256 1427 299 1428 c 0,32,33
 385 1431 385 1431 468 1433 c 2,34,-1
 527 1433 l 2,35,36
 681 1433 681 1433 837 1425 c 0,37,38
 1025 1414 1025 1414 1177 1349 c 0,39,40
 1321 1285 1321 1285 1415.5 1154 c 128,-1,41
 1510 1023 1510 1023 1525 792 c 0,0,1
424 1297 m 1,42,-1
 424 116 l 1,43,44
 526 97 526 97 637 97 c 0,45,46
 680 97 680 97 721 100 c 0,47,48
 868 111 868 111 981 171 c 0,49,50
 1115 241 1115 241 1193 388 c 0,51,52
 1265 524 1265 524 1265 736 c 2,53,-1
 1265 769 l 1,54,55
 1261 927 1261 927 1209.5 1033 c 128,-1,56
 1158 1139 1158 1139 1074 1201 c 0,57,58
 951 1293 951 1293 775 1309 c 0,59,60
 714 1314 714 1314 651 1314 c 0,61,62
 530 1314 530 1314 424 1297 c 1,42,-1
EndSplineSet
Validated: 1
EndChar

StartChar: E
Encoding: 69 69 27
Width: 1251
Flags: MW
LayerCount: 2
Fore
SplineSet
461 114 m 1,0,-1
 863 114 l 2,1,2
 943 114 943 114 1003.5 181 c 128,-1,3
 1064 248 1064 248 1097 288 c 0,4,5
 1123 319 1123 319 1146 319 c 0,6,7
 1192 319 1192 319 1192 278 c 0,8,9
 1192 263 1192 263 1189 253 c 2,10,-1
 1112 -20 l 1,11,-1
 173 -20 l 2,12,13
 130 -20 130 -20 130 21 c 0,14,15
 130 59 130 59 180 76.5 c 128,-1,16
 230 94 230 94 230 146 c 2,17,-1
 230 1257 l 2,18,19
 230 1309 230 1309 180 1326.5 c 128,-1,20
 130 1344 130 1344 130 1383 c 0,21,22
 130 1424 130 1424 176 1424 c 2,23,-1
 1129 1424 l 1,24,-1
 1129 1147 l 2,25,26
 1129 1106 1129 1106 1083 1106 c 0,27,28
 1058 1106 1058 1106 1024 1156 c 0,29,30
 975 1224 975 1224 943 1257.5 c 128,-1,31
 911 1291 911 1291 863 1291 c 2,32,-1
 461 1291 l 1,33,-1
 461 788 l 1,34,-1
 665 788 l 2,35,36
 711 788 711 788 731 839.5 c 128,-1,37
 751 891 751 891 795 891 c 0,38,39
 840 891 840 891 840 850 c 2,40,-1
 840 596 l 2,41,42
 840 555 840 555 795 555 c 0,43,44
 752 555 752 555 729 606 c 128,-1,45
 706 657 706 657 659 657 c 2,46,-1
 461 657 l 1,47,-1
 461 114 l 1,0,-1
EndSplineSet
Validated: 1
EndChar

StartChar: F
Encoding: 70 70 28
Width: 1139
Flags: MW
LayerCount: 2
Fore
SplineSet
174 -20 m 2,0,1
 130 -20 130 -20 130 21 c 0,2,3
 130 43 130 43 161 62 c 0,4,5
 175 72 175 72 193.5 83.5 c 128,-1,6
 212 95 212 95 222 112 c 0,7,8
 230 128 230 128 230 146 c 2,9,-1
 230 1257 l 2,10,11
 230 1309 230 1309 180 1326.5 c 128,-1,12
 130 1344 130 1344 130 1383 c 0,13,14
 130 1424 130 1424 176 1424 c 2,15,-1
 1129 1424 l 1,16,-1
 1129 1147 l 2,17,18
 1129 1106 1129 1106 1083 1106 c 0,19,20
 1058 1106 1058 1106 1024 1156 c 0,21,22
 975 1224 975 1224 943 1257.5 c 128,-1,23
 911 1291 911 1291 863 1291 c 2,24,-1
 461 1291 l 1,25,-1
 461 788 l 1,26,-1
 665 788 l 2,27,28
 694 788 694 788 718 816 c 0,29,30
 735 836 735 836 748.5 863.5 c 128,-1,31
 762 891 762 891 795 891 c 0,32,33
 840 891 840 891 840 850 c 2,34,-1
 840 596 l 2,35,36
 840 555 840 555 795 555 c 0,37,38
 760 555 760 555 745 586 c 128,-1,39
 730 617 730 617 711 638 c 0,40,41
 691 658 691 658 665 658 c 2,42,-1
 461 658 l 1,43,-1
 461 146 l 2,44,45
 461 122 461 122 471 106 c 0,46,47
 481 92 481 92 496.5 82 c 128,-1,48
 512 72 512 72 527 63 c 0,49,50
 560 43 560 43 560 21 c 0,51,52
 560 13 560 13 558 5 c 0,53,54
 543 -20 543 -20 515 -20 c 2,55,-1
 174 -20 l 2,0,1
EndSplineSet
Validated: 1
EndChar

StartChar: G
Encoding: 71 71 29
Width: 1563
Flags: MW
LayerCount: 2
Fore
SplineSet
848 -57 m 0,0,1
 531 -57 531 -57 286.5 145 c 128,-1,2
 42 347 42 347 42 701 c 0,3,4
 42 1046 42 1046 279.5 1255.5 c 128,-1,5
 517 1465 517 1465 848 1465 c 0,6,7
 966 1465 966 1465 1099.5 1438.5 c 128,-1,8
 1233 1412 1233 1412 1365 1328 c 1,9,-1
 1340 1106 l 1,10,11
 1332 1071 1332 1071 1295 1071 c 2,12,-1
 1291 1071 l 2,13,14
 1263 1073 1263 1073 1243 1112 c 0,15,16
 1181 1244 1181 1244 1091 1287 c 128,-1,17
 1001 1330 1001 1330 848 1330 c 0,18,19
 636 1330 636 1330 469 1181.5 c 128,-1,20
 302 1033 302 1033 302 701 c 0,21,22
 302 489 302 489 459 292.5 c 128,-1,23
 616 96 616 96 849 85 c 0,24,25
 873 84 873 84 894 84 c 0,26,27
 1002 84 1002 84 1075 112 c 0,28,29
 1160 145 1160 145 1217 244 c 1,30,-1
 1217 428 l 2,31,32
 1216 448 1216 448 1196 459 c 0,33,34
 1171 473 1171 473 1112.5 497 c 128,-1,35
 1054 521 1054 521 1054 554 c 0,36,37
 1054 595 1054 595 1100 595 c 2,38,-1
 1501 595 l 2,39,40
 1547 595 1547 595 1547 554 c 0,41,42
 1547 515 1547 515 1497 497 c 128,-1,43
 1447 479 1447 479 1447 428 c 2,44,-1
 1447 20 l 1,45,46
 1272 12 1272 12 1132 -23 c 0,47,48
 1058 -43 1058 -43 986 -50 c 128,-1,49
 914 -57 914 -57 848 -57 c 0,0,1
EndSplineSet
Validated: 1
EndChar

StartChar: I
Encoding: 73 73 30
Width: 690
Flags: MW
LayerCount: 2
Fore
SplineSet
460 1257 m 2,0,-1
 460 147 l 2,1,2
 460 94 460 94 510 76.5 c 128,-1,3
 560 59 560 59 560 21 c 0,4,5
 560 -20 560 -20 514 -20 c 2,6,-1
 175 -20 l 2,7,8
 130 -20 130 -20 130 21 c 0,9,10
 130 59 130 59 180 76.5 c 128,-1,11
 230 94 230 94 230 146 c 2,12,-1
 230 1257 l 2,13,14
 230 1309 230 1309 180 1326.5 c 128,-1,15
 130 1344 130 1344 130 1383 c 0,16,17
 130 1424 130 1424 176 1424 c 2,18,-1
 514 1424 l 2,19,20
 560 1424 560 1424 560 1383 c 0,21,22
 560 1344 560 1344 510 1326.5 c 128,-1,23
 460 1309 460 1309 460 1257 c 2,0,-1
EndSplineSet
Validated: 1
EndChar

StartChar: J
Encoding: 74 74 31
Width: 682
Flags: MW
LayerCount: 2
Fore
SplineSet
455 180 m 2,0,1
 455 -19 455 -19 427.5 -118 c 128,-1,2
 400 -217 400 -217 332 -289 c 0,3,4
 237 -386 237 -386 85 -427 c 1,5,-1
 85 -339 l 1,6,7
 131 -311 131 -311 162.5 -276.5 c 128,-1,8
 194 -242 194 -242 212 -185 c 0,9,10
 223 -146 223 -146 223.5 -73 c 128,-1,11
 224 0 224 0 224 174 c 2,12,-1
 224 1258 l 2,13,14
 224 1309 224 1309 174 1327 c 128,-1,15
 124 1345 124 1345 124 1384 c 0,16,17
 124 1424 124 1424 170 1424 c 2,18,-1
 509 1424 l 2,19,20
 555 1424 555 1424 555 1384 c 0,21,22
 555 1345 555 1345 505 1327 c 128,-1,23
 455 1309 455 1309 455 1258 c 2,24,-1
 455 180 l 2,0,1
EndSplineSet
Validated: 1
EndChar

StartChar: L
Encoding: 76 76 32
Width: 1251
Flags: MW
LayerCount: 2
Fore
SplineSet
461 114 m 1,0,-1
 863 114 l 2,1,2
 943 114 943 114 1003.5 181 c 128,-1,3
 1064 248 1064 248 1097 288 c 0,4,5
 1123 319 1123 319 1146 319 c 0,6,7
 1192 319 1192 319 1192 278 c 0,8,9
 1192 263 1192 263 1189 253 c 2,10,-1
 1112 -20 l 1,11,-1
 176 -20 l 2,12,13
 130 -20 130 -20 130 21 c 0,14,15
 130 59 130 59 180 76.5 c 128,-1,16
 230 94 230 94 230 146 c 2,17,-1
 230 1257 l 2,18,19
 230 1308 230 1308 180 1326 c 128,-1,20
 130 1344 130 1344 130 1383 c 0,21,22
 130 1424 130 1424 176 1424 c 2,23,-1
 515 1424 l 2,24,25
 560 1424 560 1424 560 1383 c 0,26,27
 560 1344 560 1344 510 1326 c 128,-1,28
 460 1308 460 1308 460 1257 c 2,29,-1
 461 114 l 1,0,-1
EndSplineSet
Validated: 1
EndChar

StartChar: M
Encoding: 77 77 33
Width: 1908
Flags: MW
LayerCount: 2
Fore
SplineSet
1722 1257 m 2,0,-1
 1722 146 l 2,1,2
 1722 94 1722 94 1772.5 76.5 c 128,-1,3
 1823 59 1823 59 1823 21 c 0,4,5
 1823 -20 1823 -20 1777 -20 c 2,6,-1
 1438 -20 l 2,7,8
 1392 -20 1392 -20 1392 21 c 0,9,10
 1392 59 1392 59 1442 76.5 c 128,-1,11
 1492 94 1492 94 1492 146 c 2,12,-1
 1492 1106 l 1,13,-1
 957 -50 l 1,14,-1
 884 -50 l 1,15,-1
 355 1061 l 1,16,-1
 355 146 l 2,17,18
 355 94 355 94 405 76.5 c 128,-1,19
 455 59 455 59 455 21 c 0,20,21
 455 -20 455 -20 409 -20 c 2,22,-1
 155 -20 l 2,23,24
 109 -20 109 -20 109 21 c 0,25,26
 109 59 109 59 159 76.5 c 128,-1,27
 209 94 209 94 209 146 c 2,28,-1
 209 1257 l 2,29,30
 209 1308 209 1308 159 1326 c 128,-1,31
 109 1344 109 1344 109 1383 c 0,32,33
 109 1424 109 1424 155 1424 c 2,34,-1
 438 1424 l 1,35,-1
 968 338 l 1,36,-1
 1481 1424 l 1,37,-1
 1777 1424 l 2,38,39
 1823 1424 1823 1424 1823 1383 c 0,40,41
 1823 1344 1823 1344 1772.5 1326 c 128,-1,42
 1722 1308 1722 1308 1722 1257 c 2,0,-1
EndSplineSet
Validated: 1
EndChar

StartChar: N
Encoding: 78 78 34
Width: 1644
Flags: MW
LayerCount: 2
Fore
SplineSet
1344 271 m 1,0,-1
 1344 1257 l 2,1,2
 1344 1308 1344 1308 1294.5 1326 c 128,-1,3
 1245 1344 1245 1344 1245 1383 c 0,4,5
 1245 1424 1245 1424 1290 1424 c 2,6,-1
 1545 1424 l 2,7,8
 1591 1424 1591 1424 1591 1383 c 0,9,10
 1591 1344 1591 1344 1541 1326 c 128,-1,11
 1491 1308 1491 1308 1491 1257 c 2,12,-1
 1490 -70 l 1,13,-1
 1272 -17 l 1,14,-1
 355 1121 l 1,15,-1
 355 146 l 2,16,17
 355 94 355 94 405 76.5 c 128,-1,18
 455 59 455 59 455 21 c 0,19,20
 455 -20 455 -20 409 -20 c 2,21,-1
 155 -20 l 2,22,23
 109 -20 109 -20 109 21 c 0,24,25
 109 59 109 59 159 76.5 c 128,-1,26
 209 94 209 94 209 146 c 2,27,-1
 209 1257 l 2,28,29
 209 1308 209 1308 159 1326 c 128,-1,30
 109 1344 109 1344 109 1383 c 0,31,32
 109 1424 109 1424 155 1424 c 2,33,-1
 426 1424 l 1,34,-1
 1344 271 l 1,0,-1
EndSplineSet
Validated: 1
EndChar

StartChar: O
Encoding: 79 79 35
Width: 1610
Flags: MW
LayerCount: 2
Fore
SplineSet
808 1338 m 0,0,1
 516 1337 516 1337 399 1152 c 128,-1,2
 282 967 282 967 282 702 c 256,3,4
 282 437 282 437 429.5 252.5 c 128,-1,5
 577 68 577 68 808 66 c 2,6,-1
 813 66 l 2,7,8
 1038 66 1038 66 1185 260 c 0,9,10
 1333 457 1333 457 1333 696 c 2,11,-1
 1333 702 l 2,12,13
 1331 946 1331 946 1208 1142 c 128,-1,14
 1085 1338 1085 1338 808 1338 c 0,0,1
808 1466 m 1,15,-1
 818 1466 l 2,16,17
 1152 1466 1152 1466 1382 1261 c 0,18,19
 1595 1070 1595 1070 1595 760 c 0,20,21
 1595 732 1595 732 1593 704 c 0,22,23
 1572 353 1572 353 1347.5 158 c 128,-1,24
 1123 -37 1123 -37 807 -55 c 0,25,26
 784 -56 784 -56 760 -56 c 0,27,28
 471 -56 471 -56 249 143 c 0,29,30
 23 345 23 345 23 669 c 0,31,32
 23 687 23 687 24 706 c 0,33,34
 36 1053 36 1053 251 1257.5 c 128,-1,35
 466 1462 466 1462 808 1466 c 1,15,-1
EndSplineSet
Validated: 1
EndChar

StartChar: P
Encoding: 80 80 36
Width: 1237
Flags: MW
LayerCount: 2
Fore
SplineSet
439 146 m 2,0,1
 439 94 439 94 489 76.5 c 128,-1,2
 539 59 539 59 539 21 c 0,3,4
 539 -20 539 -20 494 -20 c 2,5,-1
 155 -20 l 2,6,7
 109 -20 109 -20 109 21 c 0,8,9
 109 59 109 59 158 76.5 c 128,-1,10
 207 94 207 94 207 146 c 2,11,-1
 209 1257 l 2,12,13
 209 1308 209 1308 159 1326 c 128,-1,14
 109 1344 109 1344 109 1383 c 0,15,16
 109 1424 109 1424 155 1424 c 2,17,-1
 745 1424 l 2,18,19
 853 1424 853 1424 971.5 1385.5 c 128,-1,20
 1090 1347 1090 1347 1156 1234 c 0,21,22
 1206 1145 1206 1145 1206 1022 c 0,23,24
 1204 904 1204 904 1138 809 c 0,25,26
 1080 727 1080 727 974 687 c 128,-1,27
 868 647 868 647 781 647 c 2,28,-1
 439 647 l 1,29,-1
 439 146 l 2,0,1
439 1301 m 1,30,-1
 439 757 l 1,31,-1
 646 757 l 2,32,33
 711 757 711 757 776.5 775.5 c 128,-1,34
 842 794 842 794 889 841 c 0,35,36
 963 912 963 912 963 1032 c 0,37,38
 963 1147 963 1147 886 1223 c 0,39,40
 805 1301 805 1301 666 1301 c 2,41,-1
 439 1301 l 1,30,-1
EndSplineSet
Validated: 1
EndChar

StartChar: R
Encoding: 82 82 37
Width: 1368
Flags: MW
LayerCount: 2
Fore
SplineSet
1283 84 m 1,0,1
 1302 68 1302 68 1339 65 c 0,2,3
 1389 59 1389 59 1389 24 c 2,4,-1
 1389 20 l 1,5,6
 1383 -20 1383 -20 1343 -20 c 2,7,-1
 1076 -20 l 2,8,9
 1053 -20 1053 -20 990 63 c 128,-1,10
 927 146 927 146 849 254 c 128,-1,11
 771 362 771 362 689.5 475 c 128,-1,12
 608 588 608 588 560 647 c 1,13,-1
 439 647 l 1,14,-1
 439 146 l 2,15,16
 439 94 439 94 489 76.5 c 128,-1,17
 539 59 539 59 539 21 c 0,18,19
 539 -20 539 -20 494 -20 c 2,20,-1
 155 -20 l 2,21,22
 109 -20 109 -20 109 21 c 0,23,24
 109 59 109 59 159 76.5 c 128,-1,25
 209 94 209 94 209 146 c 2,26,-1
 209 1257 l 2,27,28
 209 1308 209 1308 159 1326 c 128,-1,29
 109 1344 109 1344 109 1383 c 0,30,31
 109 1424 109 1424 155 1424 c 2,32,-1
 745 1424 l 2,33,34
 853 1424 853 1424 971.5 1385.5 c 128,-1,35
 1090 1347 1090 1347 1156 1234 c 0,36,37
 1206 1145 1206 1145 1206 1022 c 0,38,39
 1204 904 1204 904 1138 809 c 0,40,41
 1084 733 1084 733 989.5 693 c 128,-1,42
 895 653 895 653 850 651 c 1,43,-1
 1283 84 l 1,0,1
439 1301 m 1,44,-1
 439 757 l 1,45,-1
 646 757 l 2,46,47
 711 757 711 757 776.5 775.5 c 128,-1,48
 842 794 842 794 889 841 c 0,49,50
 963 912 963 912 963 1032 c 0,51,52
 963 1147 963 1147 886 1223 c 0,53,54
 805 1301 805 1301 666 1301 c 2,55,-1
 439 1301 l 1,44,-1
EndSplineSet
Validated: 1
EndChar

StartChar: S
Encoding: 83 83 38
Width: 1099
Flags: MW
LayerCount: 2
Fore
SplineSet
533 75 m 0,0,1
 608 80 608 80 677 114.5 c 128,-1,2
 746 149 746 149 788 216 c 0,3,4
 832 287 832 287 832 388 c 2,5,-1
 832 399 l 2,6,7
 829 503 829 503 754 557 c 0,8,9
 720 583 720 583 671 597 c 0,10,11
 567 625 567 625 455.5 637.5 c 128,-1,12
 344 650 344 650 240 700 c 0,13,14
 144 745 144 745 97.5 831.5 c 128,-1,15
 51 918 51 918 51 1018 c 0,16,17
 51 1213 51 1213 188 1338 c 0,18,19
 330 1469 330 1469 545 1469 c 2,20,-1
 576 1469 l 1,21,22
 807 1459 807 1459 980 1347 c 1,23,-1
 955 1126 l 2,24,25
 951 1090 951 1090 911 1090 c 2,26,-1
 906 1090 l 2,27,28
 876 1092 876 1092 858 1131 c 0,29,30
 818 1217 818 1217 741.5 1276 c 128,-1,31
 665 1335 665 1335 579 1339 c 1,32,-1
 564 1339 l 2,33,34
 478 1339 478 1339 413 1309 c 0,35,36
 370 1287 370 1287 345 1261 c 0,37,38
 321 1235 321 1235 302 1197 c 0,39,40
 287 1166 287 1166 279 1124 c 0,41,42
 272 1093 272 1093 272 1066 c 0,43,44
 272 1030 272 1030 283 999 c 0,45,46
 302 938 302 938 348 906 c 0,47,48
 382 880 382 880 423 870 c 0,49,50
 448 863 448 863 483 857 c 128,-1,51
 518 851 518 851 557 845 c 0,52,53
 614 836 614 836 678.5 826 c 128,-1,54
 743 816 743 816 805 798 c 0,55,56
 912 763 912 763 965 706 c 0,57,58
 1003 662 1003 662 1028 610 c 0,59,60
 1056 541 1056 541 1056 459 c 0,61,62
 1056 237 1056 237 875 89 c 0,63,64
 781 12 781 12 667 -25 c 0,65,66
 575 -54 575 -54 471 -58 c 0,67,68
 449 -59 449 -59 427 -59 c 0,69,70
 284 -59 284 -59 140 -15 c 1,71,-1
 42 258 l 2,72,73
 39 266 39 266 39 274 c 0,74,75
 39 289 39 289 49 303 c 0,76,77
 64 327 64 327 96 327 c 1,78,79
 123 320 123 320 140 285 c 0,80,81
 201 152 201 152 291 109 c 0,82,83
 365 73 365 73 481 73 c 0,84,85
 506 73 506 73 533 75 c 0,0,1
EndSplineSet
Validated: 1
EndChar

StartChar: U
Encoding: 85 85 39
Width: 1554
Flags: MW
LayerCount: 2
Fore
SplineSet
209 588 m 2,0,-1
 209 1258 l 2,1,2
 209 1309 209 1309 159 1326.5 c 128,-1,3
 109 1344 109 1344 109 1383 c 0,4,5
 109 1424 109 1424 155 1424 c 2,6,-1
 494 1424 l 2,7,8
 539 1424 539 1424 539 1383 c 0,9,10
 539 1344 539 1344 490 1327.5 c 128,-1,11
 441 1311 441 1311 441 1260 c 2,12,-1
 441 721 l 2,13,14
 441 569 441 569 451 452.5 c 128,-1,15
 461 336 461 336 501 258 c 0,16,17
 539 183 539 183 617.5 144.5 c 128,-1,18
 696 106 696 106 839 106 c 0,19,20
 1086 106 1086 106 1173 301 c 0,21,22
 1239 443 1239 443 1239 721 c 2,23,-1
 1239 1257 l 2,24,25
 1239 1308 1239 1308 1189 1326 c 128,-1,26
 1139 1344 1139 1344 1139 1383 c 0,27,28
 1139 1424 1139 1424 1185 1424 c 2,29,-1
 1440 1424 l 2,30,31
 1485 1424 1485 1424 1485 1383 c 0,32,33
 1485 1344 1485 1344 1435.5 1326 c 128,-1,34
 1386 1308 1386 1308 1386 1257 c 2,35,-1
 1386 588 l 2,36,37
 1385 437 1385 437 1358 311 c 128,-1,38
 1331 185 1331 185 1257 97 c 0,39,40
 1122 -59 1122 -59 839 -59 c 0,41,42
 664 -59 664 -59 538 -25.5 c 128,-1,43
 412 8 412 8 335 98 c 0,44,45
 209 244 209 244 209 588 c 2,0,-1
EndSplineSet
Validated: 1
EndChar

StartChar: V
Encoding: 86 86 40
Width: 1479
Flags: MW
LayerCount: 2
Fore
SplineSet
416 1269 m 2,0,-1
 819 237 l 1,1,-1
 1247 1114 l 2,2,3
 1258 1137 1258 1137 1258 1154 c 0,4,5
 1258 1167 1258 1167 1252 1177 c 0,6,7
 1233 1206 1233 1206 1194 1253 c 2,8,-1
 1133 1324 l 1,9,-1
 1272 1429 l 2,10,11
 1287 1442 1287 1442 1307 1442 c 256,12,13
 1327 1442 1327 1442 1348 1425 c 2,14,-1
 1431 1340 l 2,15,16
 1462 1308 1462 1308 1462 1262 c 0,17,18
 1462 1238 1462 1238 1453 1210 c 0,19,20
 1429 1138 1429 1138 1381 1041 c 2,21,-1
 892 26 l 2,22,23
 884 7 884 7 873 -7 c 1,24,25
 856 -20 856 -20 838 -20 c 2,26,-1
 687 -20 l 2,27,28
 663 -20 663 -20 650 -3 c 0,29,30
 645 2 645 2 637 24 c 128,-1,31
 629 46 629 46 626 55 c 2,32,-1
 248 1105 l 2,33,34
 208 1210 208 1210 190 1251 c 0,35,36
 175 1284 175 1284 139 1310 c 0,37,38
 118 1323 118 1323 95 1332.5 c 128,-1,39
 72 1342 72 1342 57 1353 c 0,40,41
 41 1362 41 1362 37 1375 c 0,42,43
 32 1382 32 1382 32 1392 c 0,44,45
 32 1400 32 1400 38 1409 c 0,46,47
 48 1424 48 1424 71 1424 c 2,48,-1
 410 1424 l 2,49,50
 428 1424 428 1424 445 1412 c 0,51,52
 459 1400 459 1400 464 1389 c 0,53,54
 466 1382 466 1382 466 1378 c 0,55,56
 466 1361 466 1361 449 1345 c 0,57,58
 438 1336 438 1336 427.5 1327 c 128,-1,59
 417 1318 417 1318 412 1306 c 0,60,61
 410 1300 410 1300 410 1292 c 0,62,63
 410 1281 410 1281 416 1269 c 2,0,-1
EndSplineSet
Validated: 1
EndChar

StartChar: X
Encoding: 88 88 41
Width: 1366
Flags: MW
LayerCount: 2
Fore
SplineSet
357 80 m 1,0,-1
 366 41 l 1,1,2
 366 22 366 22 350.5 1 c 128,-1,3
 335 -20 335 -20 307 -20 c 2,4,-1
 49 -20 l 2,5,6
 15 -20 15 -20 11 5 c 1,7,-1
 11 11 l 2,8,9
 11 39 11 39 57 59 c 2,10,-1
 109 80 l 2,11,12
 177 109 177 109 211 156 c 2,13,-1
 599 698 l 1,14,-1
 242 1249 l 2,15,16
 207 1301 207 1301 124 1332 c 0,17,18
 97 1340 97 1340 81 1350 c 0,19,20
 46 1370 46 1370 46 1394 c 2,21,-1
 46 1399 l 1,22,23
 50 1424 50 1424 81 1424 c 2,24,-1
 420 1424 l 2,25,26
 450 1424 450 1424 467 1404 c 128,-1,27
 484 1384 484 1384 484 1372 c 256,28,29
 484 1360 484 1360 474.5 1349 c 128,-1,30
 465 1338 465 1338 457.5 1329.5 c 128,-1,31
 450 1321 450 1321 449 1313 c 2,32,-1
 449 1308 l 2,33,34
 449 1290 449 1290 462 1272 c 2,35,-1
 722 873 l 1,36,-1
 966 1214 l 2,37,38
 1036 1311 1036 1311 1088 1370.5 c 128,-1,39
 1140 1430 1140 1430 1195 1430 c 0,40,41
 1209 1430 1209 1430 1224 1426 c 2,42,-1
 1324 1394 l 2,43,44
 1356 1381 1356 1381 1356 1364 c 0,45,46
 1356 1346 1356 1346 1353 1337 c 2,47,-1
 1306 1146 l 1,48,-1
 1215 1167 l 2,49,50
 1164 1178 1164 1178 1134 1180 c 2,51,-1
 1132 1180 l 2,52,53
 1115 1180 1115 1180 1090 1144 c 2,54,-1
 807 742 l 1,55,-1
 1188 155 l 2,56,57
 1217 110 1217 110 1307 72 c 0,58,59
 1333 61 1333 61 1348 52 c 0,60,61
 1385 31 1385 31 1385 6 c 0,62,63
 1385 -20 1385 -20 1349 -20 c 2,64,-1
 1010 -20 l 2,65,66
 994 -20 994 -20 976 -11 c 0,67,68
 946 5 946 5 946 25 c 0,69,70
 946 44 946 44 963 64.5 c 128,-1,71
 980 85 980 85 981 92 c 2,72,-1
 981 98 l 2,73,74
 981 114 981 114 970 132 c 2,75,-1
 684 567 l 1,76,-1
 383 137 l 2,77,78
 357 101 357 101 357 80 c 1,0,-1
EndSplineSet
Validated: 1
EndChar

StartChar: Y
Encoding: 89 89 42
Width: 1366
Flags: MW
LayerCount: 2
Fore
SplineSet
566 669 m 2,0,-1
 218 1249 l 2,1,2
 198 1279 198 1279 149 1309 c 0,3,4
 123 1322 123 1322 97 1332 c 128,-1,5
 71 1342 71 1342 53 1353 c 0,6,7
 38 1361 38 1361 29 1373 c 0,8,9
 22 1384 22 1384 22 1394 c 2,10,-1
 22 1399 l 1,11,12
 26 1424 26 1424 57 1424 c 2,13,-1
 396 1424 l 2,14,15
 415 1424 415 1424 431 1414 c 0,16,17
 445 1404 445 1404 454 1392 c 0,18,19
 460 1382 460 1382 460 1373 c 0,20,21
 460 1360 460 1360 449 1347 c 0,22,23
 442 1338 442 1338 434 1329.5 c 128,-1,24
 426 1321 426 1321 425 1313 c 2,25,-1
 425 1308 l 2,26,27
 425 1291 425 1291 438 1272 c 2,28,-1
 753 773 l 1,29,-1
 990 1133 l 2,30,31
 1017 1174 1017 1174 1021 1203 c 0,32,33
 1022 1206 1022 1206 1022 1210 c 0,34,35
 1022 1236 1022 1236 1001 1279 c 2,36,-1
 958 1365 l 1,37,-1
 1120 1436 l 2,38,39
 1133 1441 1133 1441 1145 1441 c 0,40,41
 1173 1441 1173 1441 1191 1414 c 2,42,-1
 1252 1312 l 2,43,44
 1265 1289 1265 1289 1265 1266 c 0,45,46
 1265 1225 1265 1225 1226 1185 c 0,47,48
 1174 1130 1174 1130 1115 1045 c 2,49,-1
 849 657 l 2,50,51
 833 633 833 633 828 586.5 c 128,-1,52
 823 540 823 540 823 497 c 2,53,-1
 823 146 l 2,54,55
 823 94 823 94 873 76.5 c 128,-1,56
 923 59 923 59 923 21 c 0,57,58
 923 -20 923 -20 877 -20 c 2,59,-1
 538 -20 l 2,60,61
 492 -20 492 -20 492 21 c 0,62,63
 492 59 492 59 542 76.5 c 128,-1,64
 592 94 592 94 592 146 c 2,65,-1
 592 573 l 2,66,67
 592 627 592 627 566 669 c 2,0,-1
EndSplineSet
Validated: 1
EndChar

StartChar: Z
Encoding: 90 90 43
Width: 1366
Flags: MW
LayerCount: 2
Fore
SplineSet
27 71 m 2,0,-1
 975 1292 l 1,1,-1
 412 1291 l 2,2,3
 364 1291 364 1291 331.5 1257.5 c 128,-1,4
 299 1224 299 1224 250 1156 c 0,5,6
 215 1106 215 1106 190 1106 c 0,7,8
 144 1106 144 1106 144 1147 c 2,9,-1
 144 1332 l 2,10,11
 144 1396 144 1396 171.5 1412.5 c 128,-1,12
 199 1429 199 1429 283 1429 c 2,13,-1
 1207 1429 l 2,14,15
 1300 1429 1300 1429 1326 1405 c 0,16,17
 1339 1392 1339 1392 1339 1374 c 0,18,19
 1339 1353 1339 1353 1321 1322 c 1,20,-1
 362 118 l 1,21,-1
 1098 119 l 2,22,23
 1146 119 1146 119 1178.5 152 c 128,-1,24
 1211 185 1211 185 1261 254 c 0,25,26
 1297 303 1297 303 1320 303 c 0,27,28
 1366 303 1366 303 1366 262 c 2,29,-1
 1366 77 l 2,30,31
 1366 9 1366 9 1342 -5.5 c 128,-1,32
 1318 -20 1318 -20 1228 -20 c 2,33,-1
 157 -20 l 2,34,35
 68 -20 68 -20 36 -10 c 0,36,37
 5 -1 5 -1 5 25 c 0,38,39
 5 44 5 44 27 71 c 2,0,-1
EndSplineSet
Validated: 1
EndChar

StartChar: bracketleft
Encoding: 91 91 44
Width: 682
Flags: MW
LayerCount: 2
Fore
SplineSet
483 -347 m 2,0,1
 525 -347 525 -347 525 -394 c 0,2,3
 525 -440 525 -440 488 -440 c 2,4,-1
 241 -440 l 2,5,6
 195 -440 195 -440 195 -400 c 2,7,-1
 195 1436 l 2,8,9
 195 1486 195 1486 241 1486 c 2,10,-1
 488 1486 l 2,11,12
 525 1486 525 1486 525 1438 c 0,13,14
 525 1389 525 1389 483 1389 c 2,15,-1
 363 1389 l 1,16,-1
 363 -347 l 1,17,-1
 483 -347 l 2,0,1
EndSplineSet
Validated: 1
EndChar

StartChar: asciicircum
Encoding: 94 94 45
Width: 1024
Flags: MW
LayerCount: 2
Fore
SplineSet
463 1450 m 1,0,-1
 602 1450 l 1,1,-1
 939 892 l 1,2,-1
 829 892 l 1,3,-1
 532 1274 l 1,4,-1
 234 892 l 1,5,-1
 126 892 l 1,6,-1
 463 1450 l 1,0,-1
EndSplineSet
Validated: 1
EndChar

StartChar: underscore
Encoding: 95 95 46
Width: 1024
Flags: MW
LayerCount: 2
Fore
SplineSet
-25 -198 m 1,0,-1
 1046 -198 l 1,1,-1
 1046 -356 l 1,2,-1
 -25 -356 l 1,3,-1
 -25 -198 l 1,0,-1
EndSplineSet
Validated: 1
EndChar

StartChar: c
Encoding: 99 99 47
Width: 925
Flags: MW
LayerCount: 2
Fore
SplineSet
554 976 m 1,0,-1
 576 976 l 2,1,2
 748 976 748 976 902 877 c 1,3,-1
 884 697 l 2,4,5
 879 666 879 666 846 666 c 2,6,-1
 842 666 l 2,7,8
 814 669 814 669 801 700 c 0,9,10
 764 781 764 781 705 816 c 0,11,12
 648 850 648 850 564 850 c 2,13,-1
 541 850 l 1,14,15
 443 845 443 845 390 794 c 0,16,17
 341 746 341 746 317 677 c 0,18,19
 292 606 292 606 292 519 c 0,20,21
 292 490 292 490 295 459 c 0,22,23
 305 315 305 315 372 224 c 0,24,25
 460 107 460 107 564 92 c 0,26,27
 580 89 580 89 598 89 c 0,28,29
 680 89 680 89 783 146 c 0,30,31
 847 180 847 180 874 180 c 0,32,33
 888 180 888 180 900 172 c 0,34,35
 909 163 909 163 909 150 c 0,36,37
 909 135 909 135 895 105 c 0,38,39
 879 71 879 71 855 50 c 0,40,41
 795 -4 795 -4 706.5 -24.5 c 128,-1,42
 618 -45 618 -45 540 -45 c 0,43,44
 344 -44 344 -44 210.5 64 c 128,-1,45
 77 172 77 172 59 371 c 0,46,47
 55 415 55 415 55 458 c 0,48,49
 55 513 55 513 62 565 c 0,50,51
 76 657 76 657 133 748 c 0,52,53
 193 845 193 845 302.5 907.5 c 128,-1,54
 412 970 412 970 554 976 c 1,0,-1
EndSplineSet
Validated: 1
EndChar

StartChar: e
Encoding: 101 101 48
Width: 1004
Flags: MW
LayerCount: 2
Fore
SplineSet
50 555 m 0,0,1
 79 746 79 746 205 863 c 128,-1,2
 331 980 331 980 537 982 c 2,3,-1
 541 982 l 2,4,5
 750 982 750 982 862 862 c 0,6,7
 971 742 971 742 971 553 c 0,8,9
 970 512 970 512 967 486 c 128,-1,10
 964 460 964 460 902 460 c 2,11,-1
 290 460 l 1,12,13
 293 323 293 323 367.5 222.5 c 128,-1,14
 442 122 442 122 552 100 c 0,15,16
 584 93 584 93 617 93 c 0,17,18
 705 93 705 93 800 145 c 0,19,20
 864 179 864 179 891 179 c 0,21,22
 905 179 905 179 917 171 c 0,23,24
 927 161 927 161 927 148 c 0,25,26
 927 131 927 131 912 104 c 0,27,28
 899 77 899 77 890.5 68 c 128,-1,29
 882 59 882 59 875 52 c 0,30,31
 758 -49 758 -49 560 -49 c 0,32,33
 284 -47 284 -47 147 127 c 0,34,35
 41 261 41 261 41 443 c 0,36,37
 41 497 41 497 50 555 c 0,0,1
291 573 m 1,38,-1
 767 573 l 1,39,40
 767 671 767 671 714 769 c 0,41,42
 668 854 668 854 543 854 c 2,43,-1
 532 854 l 1,44,45
 407 850 407 850 350.5 759.5 c 128,-1,46
 294 669 294 669 291 573 c 1,38,-1
EndSplineSet
Validated: 1
EndChar

StartChar: l
Encoding: 108 108 49
Width: 597
Flags: MW
LayerCount: 2
Fore
SplineSet
407 146 m 2,0,1
 407 94 407 94 457 76.5 c 128,-1,2
 507 59 507 59 507 21 c 0,3,4
 507 -20 507 -20 462 -20 c 2,5,-1
 123 -20 l 2,6,7
 77 -20 77 -20 77 21 c 0,8,9
 77 59 77 59 127 76.5 c 128,-1,10
 177 94 177 94 177 146 c 2,11,-1
 177 1257 l 2,12,13
 177 1308 177 1308 127 1326 c 128,-1,14
 77 1344 77 1344 77 1383 c 0,15,16
 77 1424 77 1424 122 1424 c 0,17,18
 184 1427 184 1427 246.5 1443.5 c 128,-1,19
 309 1460 309 1460 407 1493 c 1,20,-1
 407 146 l 2,0,1
EndSplineSet
Validated: 1
EndChar

StartChar: o
Encoding: 111 111 50
Width: 1107
Flags: MW
LayerCount: 2
Fore
SplineSet
578 976 m 1,0,1
 785 968 785 968 926 819 c 128,-1,2
 1067 670 1067 670 1070 465 c 2,3,-1
 1070 459 l 2,4,5
 1070 252 1070 252 923 108 c 0,6,7
 772 -39 772 -39 553 -45 c 1,8,-1
 537 -45 l 2,9,10
 333 -45 333 -45 186 105 c 0,11,12
 37 256 37 256 37 462 c 2,13,-1
 37 465 l 2,14,15
 38 691 38 691 208 846 c 0,16,17
 231 867 231 867 271 881 c 128,-1,18
 311 895 311 895 385 922 c 0,19,20
 429 938 429 938 482 957 c 0,21,22
 537 976 537 976 574 976 c 2,23,-1
 578 976 l 1,0,1
555 869 m 1,24,-1
 544 869 l 2,25,26
 441 869 441 869 364 766 c 0,27,28
 279 651 279 651 279 481 c 256,29,30
 279 311 279 311 361.5 189.5 c 128,-1,31
 444 68 444 68 555 63 c 1,32,-1
 568 63 l 2,33,34
 670 63 670 63 746 166 c 0,35,36
 831 280 831 280 831 450 c 256,37,38
 831 620 831 620 748 741.5 c 128,-1,39
 665 863 665 863 555 869 c 1,24,-1
EndSplineSet
Validated: 1
EndChar

StartChar: r
Encoding: 114 114 51
Width: 831
Flags: MW
LayerCount: 2
Fore
SplineSet
428 595 m 2,0,-1
 428 146 l 2,1,2
 428 94 428 94 477.5 76.5 c 128,-1,3
 527 59 527 59 527 21 c 0,4,5
 527 -20 527 -20 482 -20 c 2,6,-1
 143 -20 l 2,7,8
 97 -20 97 -20 97 21 c 0,9,10
 97 59 97 59 147 76.5 c 128,-1,11
 197 94 197 94 197 146 c 2,12,-1
 197 786 l 2,13,14
 197 836 197 836 147 854 c 128,-1,15
 97 872 97 872 97 911 c 0,16,17
 97 952 97 952 142 952 c 0,18,19
 204 955 204 955 266.5 972 c 128,-1,20
 329 989 329 989 428 1022 c 1,21,-1
 428 892 l 1,22,-1
 532 931 l 2,23,24
 609 960 609 960 653 975 c 0,25,26
 671 980 671 980 693 980 c 0,27,28
 735 980 735 980 813 953 c 1,29,-1
 788 669 l 1,30,-1
 699 669 l 1,31,32
 660 815 660 815 569 815 c 0,33,34
 559 815 559 815 550 814 c 0,35,36
 489 807 489 807 460 745.5 c 128,-1,37
 431 684 431 684 428 595 c 2,0,-1
EndSplineSet
Validated: 1
EndChar

StartChar: s
Encoding: 115 115 52
Width: 884
Flags: MW
LayerCount: 2
Fore
SplineSet
492 978 m 0,0,1
 646 970 646 970 794 878 c 1,2,-1
 772 692 l 2,3,4
 767 659 767 659 731 659 c 2,5,-1
 727 659 l 2,6,7
 698 661 698 661 682 696 c 0,8,9
 649 767 649 767 585.5 813 c 128,-1,10
 522 859 522 859 451 862 c 2,11,-1
 448 862 l 2,12,13
 393 862 393 862 340 834 c 0,14,15
 288 807 288 807 276 750 c 0,16,17
 271 729 271 729 271 713 c 0,18,19
 271 661 271 661 315 640 c 0,20,21
 383 606 383 606 474 585 c 0,22,23
 606 556 606 556 718.5 503.5 c 128,-1,24
 831 451 831 451 842 283 c 1,25,-1
 842 273 l 2,26,27
 842 194 842 194 781 115 c 0,28,29
 715 29 715 29 590 -14 c 0,30,31
 513 -40 513 -40 420 -43 c 2,32,-1
 392 -43 l 2,33,34
 265 -43 265 -43 137 -6 c 1,35,-1
 51 227 l 1,36,-1
 54 251 l 2,37,38
 56 284 56 284 97 284 c 2,39,-1
 102 284 l 1,40,41
 127 279 127 279 143 247 c 0,42,43
 187 153 187 153 247.5 115.5 c 128,-1,44
 308 78 308 78 401 75 c 2,45,-1
 413 75 l 2,46,47
 478 75 478 75 558 106 c 0,48,49
 637 137 637 137 640 218 c 2,50,-1
 640 224 l 2,51,52
 640 318 640 318 555 342 c 0,53,54
 449 372 449 372 369 395 c 0,55,56
 266 423 266 423 175 485 c 0,57,58
 80 549 80 549 80 672 c 2,59,-1
 80 677 l 2,60,61
 81 842 81 842 211 914 c 0,62,63
 326 979 326 979 466 979 c 0,64,65
 479 979 479 979 492 978 c 0,0,1
EndSplineSet
Validated: 1
EndChar

StartChar: t
Encoding: 116 116 53
Width: 682
Flags: MW
LayerCount: 2
Fore
SplineSet
182 824 m 1,0,1
 170 824 170 824 94 820 c 1,2,-1
 88 820 l 2,3,4
 45 820 45 820 43 860 c 2,5,-1
 43 862 l 2,6,7
 43 889 43 889 75 904 c 0,8,9
 94 913 94 913 156 947 c 0,10,11
 172 955 172 955 189 962 c 0,12,13
 192 963 192 963 192 964 c 256,14,15
 192 965 192 965 182 965 c 1,16,-1
 182 1116 l 2,17,18
 182 1173 182 1173 207 1196.5 c 128,-1,19
 232 1220 232 1220 309 1257 c 0,20,21
 342 1273 342 1273 365 1273 c 0,22,23
 413 1273 413 1273 413 1227 c 2,24,-1
 413 969 l 1,25,-1
 626 973 l 1,26,-1
 627 973 l 2,27,28
 667 973 667 973 667 927 c 0,29,30
 667 912 667 912 663 890 c 0,31,32
 649 826 649 826 593 826 c 2,33,-1
 413 827 l 1,34,-1
 413 220 l 2,35,36
 413 138 413 138 469.5 98 c 128,-1,37
 526 58 526 58 585 50 c 1,38,-1
 585 -19 l 1,39,40
 407 -19 407 -19 294.5 12 c 128,-1,41
 182 43 182 43 182 250 c 2,42,-1
 182 824 l 1,0,1
EndSplineSet
Validated: 1
EndChar

StartChar: u
Encoding: 117 117 54
Width: 1239
Flags: MW
LayerCount: 2
Fore
SplineSet
1065 146 m 2,0,1
 1065 94 1065 94 1115 76.5 c 128,-1,2
 1165 59 1165 59 1165 21 c 0,3,4
 1165 -20 1165 -20 1119 -20 c 2,5,-1
 876 -20 l 2,6,7
 834 -20 834 -20 834 13 c 2,8,-1
 834 46 l 1,9,10
 815 39 815 39 772 22.5 c 128,-1,11
 729 6 729 6 691 -7 c 0,12,13
 596 -39 596 -39 495 -49 c 0,14,15
 479 -50 479 -50 465 -50 c 0,16,17
 372 -50 372 -50 290 11 c 0,18,19
 160 110 160 110 160 425 c 2,20,-1
 160 786 l 2,21,22
 160 836 160 836 110 854 c 128,-1,23
 60 872 60 872 60 911 c 0,24,25
 60 952 60 952 105 952 c 0,26,27
 167 955 167 955 229.5 972 c 128,-1,28
 292 989 292 989 391 1022 c 1,29,-1
 391 425 l 2,30,31
 391 212 391 212 476 130 c 0,32,33
 527 80 527 80 599 80 c 0,34,35
 642 80 642 80 696 98 c 0,36,37
 715 104 715 104 749 117 c 128,-1,38
 783 130 783 130 806 139 c 0,39,40
 812 141 812 141 823 145 c 2,41,-1
 834 149 l 1,42,-1
 834 786 l 2,43,44
 834 836 834 836 784 854 c 128,-1,45
 734 872 734 872 734 911 c 0,46,47
 734 952 734 952 779 952 c 0,48,49
 841 955 841 955 903.5 972 c 128,-1,50
 966 989 966 989 1065 1022 c 1,51,-1
 1065 146 l 2,0,1
EndSplineSet
Validated: 1
EndChar

StartChar: v
Encoding: 118 118 55
Width: 1036
Flags: MW
LayerCount: 2
Fore
SplineSet
379 811 m 2,0,-1
 617 229 l 1,1,-1
 823 723 l 2,2,3
 831 741 831 741 831 758 c 0,4,5
 831 787 831 787 807 815 c 2,6,-1
 763 868 l 1,7,-1
 867 949 l 2,8,9
 879 962 879 962 896 962 c 0,10,11
 915 962 915 962 931 946 c 2,12,-1
 987 889 l 2,13,14
 1009 866 1009 866 1009 833 c 0,15,16
 1009 816 1009 816 1002 794 c 0,17,18
 986 746 986 746 954 681 c 2,19,-1
 647 -5 l 2,20,21
 641 -17 641 -17 634 -26 c 0,22,23
 621 -39 621 -39 603 -39 c 2,24,-1
 519 -39 l 2,25,26
 497 -39 497 -39 487 -24 c 0,27,28
 482 -19 482 -19 477 -4.5 c 128,-1,29
 472 10 472 10 470 15 c 2,30,-1
 143 794 l 2,31,32
 129 826 129 826 102 844 c 0,33,34
 84 856 84 856 62.5 865.5 c 128,-1,35
 41 875 41 875 28 884 c 0,36,37
 17 891 17 891 8 907 c 0,38,39
 6 915 6 915 6 920 c 256,40,41
 6 925 6 925 8 933 c 0,42,43
 19 951 19 951 43 951 c 2,44,-1
 371 951 l 2,45,46
 386 951 386 951 403 941 c 0,47,48
 417 930 417 930 422 919 c 0,49,50
 424 912 424 912 424 908 c 0,51,52
 424 892 424 892 408 877 c 0,53,54
 378 850 378 850 376 844 c 256,55,56
 374 838 374 838 374 830 c 0,57,58
 374 821 374 821 379 811 c 2,0,-1
EndSplineSet
Validated: 1
EndChar

StartChar: w
Encoding: 119 119 56
Width: 1647
Flags: MW
LayerCount: 2
Fore
SplineSet
990 811 m 2,0,-1
 1228 229 l 1,1,-1
 1434 723 l 2,2,3
 1442 741 1442 741 1442 758 c 0,4,5
 1442 787 1442 787 1418 815 c 2,6,-1
 1374 867 l 1,7,-1
 1476 949 l 2,8,9
 1488 961 1488 961 1507 961 c 0,10,11
 1525 961 1525 961 1541 947 c 2,12,-1
 1598 889 l 2,13,14
 1620 866 1620 866 1620 833 c 0,15,16
 1620 816 1620 816 1613 794 c 0,17,18
 1597 746 1597 746 1565 681 c 2,19,-1
 1258 -5 l 2,20,21
 1252 -17 1252 -17 1245 -26 c 0,22,23
 1232 -39 1232 -39 1214 -39 c 2,24,-1
 1130 -39 l 2,25,26
 1108 -39 1108 -39 1098 -24 c 0,27,28
 1093 -19 1093 -19 1088 -5 c 128,-1,29
 1083 9 1083 9 1080 14 c 2,30,-1
 875 504 l 1,31,-1
 647 -5 l 2,32,33
 641 -17 641 -17 634 -26 c 0,34,35
 621 -39 621 -39 603 -39 c 2,36,-1
 519 -39 l 2,37,38
 497 -39 497 -39 487 -24 c 0,39,40
 482 -19 482 -19 477 -4.5 c 128,-1,41
 472 10 472 10 470 15 c 2,42,-1
 143 794 l 2,43,44
 129 826 129 826 102 844 c 0,45,46
 84 856 84 856 62.5 865.5 c 128,-1,47
 41 875 41 875 28 884 c 0,48,49
 17 891 17 891 8 907 c 0,50,51
 6 915 6 915 6 920 c 256,52,53
 6 925 6 925 8 933 c 0,54,55
 19 951 19 951 43 951 c 2,56,-1
 371 951 l 2,57,58
 386 951 386 951 403 941 c 0,59,60
 417 930 417 930 422 919 c 0,61,62
 424 912 424 912 424 908 c 0,63,64
 424 892 424 892 408 877 c 0,65,66
 378 850 378 850 376 844 c 256,67,68
 374 838 374 838 374 830 c 0,69,70
 374 821 374 821 379 811 c 2,71,-1
 617 229 l 1,72,-1
 804 676 l 1,73,-1
 754 794 l 2,74,75
 740 826 740 826 713 844 c 0,76,77
 695 856 695 856 673.5 865.5 c 128,-1,78
 652 875 652 875 639 885 c 0,79,80
 623 895 623 895 619 909 c 0,81,82
 617 915 617 915 617 920 c 256,83,84
 617 925 617 925 619 933 c 0,85,86
 630 951 630 951 654 951 c 2,87,-1
 982 951 l 2,88,89
 997 951 997 951 1014 941 c 0,90,91
 1028 930 1028 930 1033 919 c 0,92,93
 1035 912 1035 912 1035 908 c 0,94,95
 1035 892 1035 892 1019 877 c 0,96,97
 989 850 989 850 987 844 c 256,98,99
 985 838 985 838 985 830 c 0,100,101
 985 821 985 821 990 811 c 2,0,-1
EndSplineSet
Validated: 1
EndChar

StartChar: x
Encoding: 120 120 57
Width: 1098
Flags: MW
LayerCount: 2
Fore
SplineSet
142 108 m 2,0,-1
 420 448 l 1,1,-1
 162 823 l 2,2,3
 149 842 149 842 118 858 c 0,4,5
 99 868 99 868 80.5 875 c 128,-1,6
 62 882 62 882 49 890 c 0,7,8
 16 909 16 909 16 924 c 0,9,10
 16 949 16 949 56 949 c 2,11,-1
 378 949 l 2,12,13
 407 949 407 949 425 925 c 0,14,15
 431 916 431 916 431 906 c 0,16,17
 431 890 431 890 411 879 c 0,18,19
 406 876 406 876 406 868 c 0,20,21
 406 858 406 858 415 846 c 2,22,-1
 566 626 l 1,23,-1
 713 807 l 2,24,25
 805 919 805 919 832 942 c 0,26,27
 848 957 848 957 875 957 c 0,28,29
 906 957 906 957 951 934 c 2,30,-1
 1015 900 l 2,31,32
 1035 888 1035 888 1035 869 c 0,33,34
 1035 860 1035 860 1030 851 c 2,35,-1
 968 724 l 1,36,37
 906 757 906 757 875 772 c 0,38,39
 873 773 873 773 872 773 c 0,40,41
 862 773 862 773 841 747 c 2,42,-1
 646 509 l 1,43,-1
 924 106 l 2,44,45
 939 83 939 83 973 69 c 0,46,47
 988 62 988 62 1003.5 55 c 128,-1,48
 1019 48 1019 48 1036 40 c 0,49,50
 1070 20 1070 20 1070 5 c 0,51,52
 1070 -20 1070 -20 1030 -20 c 2,53,-1
 708 -20 l 2,54,55
 679 -20 679 -20 661 4 c 0,56,57
 655 14 655 14 655 22 c 0,58,59
 655 37 655 37 674 50 c 0,60,61
 679 53 679 53 680 61 c 2,62,-1
 680 62 l 2,63,64
 680 71 680 71 671 84 c 2,65,-1
 501 331 l 1,66,-1
 300 87 l 2,67,68
 285 66 285 66 285 55 c 2,69,-1
 285 52 l 2,70,71
 285 44 285 44 288 39 c 0,72,73
 291 31 291 31 291 26 c 0,74,75
 291 14 291 14 283 4 c 0,76,77
 267 -20 267 -20 242 -20 c 2,78,-1
 34 -20 l 2,79,80
 -1 -20 -1 -20 -1 5 c 0,81,82
 -1 15 -1 15 7 25 c 0,83,84
 25 47 25 47 68 58 c 128,-1,85
 111 69 111 69 142 108 c 2,0,-1
EndSplineSet
Validated: 1
EndChar

StartChar: y
Encoding: 121 121 58
Width: 1036
Flags: MW
LayerCount: 2
Fore
SplineSet
143 794 m 2,0,1
 129 826 129 826 102 844 c 0,2,3
 79 859 79 859 48 871.5 c 128,-1,4
 17 884 17 884 9 906 c 0,5,6
 5 915 5 915 5 922 c 0,7,8
 5 951 5 951 43 951 c 2,9,-1
 371 951 l 2,10,11
 408 951 408 951 421 920 c 0,12,13
 425 913 425 913 425 905 c 0,14,15
 425 882 425 882 396 868 c 0,16,17
 382 861 382 861 376 844 c 0,18,19
 374 838 374 838 374 830 c 0,20,21
 374 821 374 821 379 811 c 2,22,-1
 617 229 l 1,23,-1
 823 723 l 2,24,25
 831 741 831 741 831 758 c 0,26,27
 831 787 831 787 807 815 c 2,28,-1
 763 868 l 1,29,-1
 867 949 l 2,30,31
 879 962 879 962 896 962 c 0,32,33
 915 962 915 962 931 946 c 2,34,-1
 987 889 l 2,35,36
 1009 866 1009 866 1009 833 c 0,37,38
 1009 816 1009 816 1002 794 c 0,39,40
 986 746 986 746 954 681 c 2,41,-1
 460 -421 l 2,42,43
 429 -487 429 -487 405 -532 c 0,44,45
 374 -586 374 -586 321 -586 c 2,46,-1
 317 -586 l 1,47,-1
 235 -583 l 1,48,49
 194 -576 194 -576 194 -544 c 2,50,-1
 187 -411 l 1,51,-1
 263 -409 l 2,52,53
 314 -407 314 -407 336 -363 c 2,54,-1
 492 -39 l 2,55,56
 495 -39 495 -39 495 -37 c 0,57,58
 495 -33 495 -33 488 -25 c 0,59,60
 482 -19 482 -19 477 -4.5 c 128,-1,61
 472 10 472 10 470 15 c 2,62,-1
 143 794 l 2,0,1
EndSplineSet
Validated: 1
EndChar

StartChar: z
Encoding: 122 122 59
Width: 1019
Flags: MW
LayerCount: 2
Fore
SplineSet
953 869 m 2,0,-1
 339 99 l 1,1,-1
 727 99 l 2,2,3
 767 101 767 101 797.5 129.5 c 128,-1,4
 828 158 828 158 870 217 c 0,5,6
 903 261 903 261 924 261 c 0,7,8
 967 261 967 261 967 223 c 2,9,-1
 967 65 l 2,10,11
 967 6 967 6 945.5 -7 c 128,-1,12
 924 -20 924 -20 845 -20 c 2,13,-1
 160 -21 l 2,14,15
 83 -20 83 -20 55 -11 c 0,16,17
 26 -4 26 -4 26 21 c 0,18,19
 26 38 26 38 46 62 c 2,20,-1
 654 841 l 1,21,-1
 347 841 l 2,22,23
 307 841 307 841 279.5 812.5 c 128,-1,24
 252 784 252 784 211 726 c 0,25,26
 178 683 178 683 157 683 c 0,27,28
 113 683 113 683 113 720 c 2,29,-1
 113 879 l 2,30,31
 113 933 113 933 137 949 c 128,-1,32
 161 965 161 965 236 965 c 2,33,-1
 858 965 l 2,34,35
 972 965 972 965 972 913 c 0,36,37
 972 893 972 893 953 869 c 2,0,-1
EndSplineSet
Validated: 1
EndChar

StartChar: braceleft
Encoding: 123 123 60
Width: 1024
Flags: MW
LayerCount: 2
Fore
SplineSet
156 593 m 0,0,1
 126 595 126 595 114 614 c 0,2,3
 105 625 105 625 105 643 c 0,4,5
 105 648 105 648 106 655 c 0,6,7
 112 687 112 687 155 693 c 0,8,9
 297 705 297 705 346 758 c 0,10,11
 375 790 375 790 385 847.5 c 128,-1,12
 395 905 395 905 395 961 c 2,13,-1
 395 1173 l 2,14,15
 395 1246 395 1246 410 1326 c 128,-1,16
 425 1406 425 1406 477 1456 c 0,17,18
 558 1536 558 1536 774 1536 c 0,19,20
 807 1536 807 1536 823 1517 c 0,21,22
 837 1497 837 1497 837 1482 c 0,23,24
 837 1446 837 1446 782 1446 c 0,25,26
 662 1444 662 1444 622 1399 c 0,27,28
 595 1371 595 1371 587 1313.5 c 128,-1,29
 579 1256 579 1256 579 1204 c 2,30,-1
 579 1061 l 2,31,32
 579 983 579 983 568 892 c 128,-1,33
 557 801 557 801 519 746 c 0,34,35
 456 656 456 656 388 642 c 1,36,37
 455 628 455 628 519 539 c 0,38,39
 557 483 557 483 568 392.5 c 128,-1,40
 579 302 579 302 579 223 c 2,41,-1
 579 80 l 2,42,43
 579 -67 579 -67 622 -114 c 0,44,45
 663 -158 663 -158 782 -160 c 0,46,47
 816 -160 816 -160 828 -190 c 0,48,49
 831 -199 831 -199 831 -207 c 0,50,51
 831 -220 831 -220 821 -234 c 0,52,53
 806 -251 806 -251 774 -251 c 0,54,55
 560 -251 560 -251 477 -171 c 0,56,57
 425 -121 425 -121 410 -41.5 c 128,-1,58
 395 38 395 38 395 112 c 2,59,-1
 395 323 l 2,60,61
 395 379 395 379 384.5 437.5 c 128,-1,62
 374 496 374 496 345 529 c 0,63,64
 315 560 315 560 261.5 574.5 c 128,-1,65
 208 589 208 589 156 593 c 0,0,1
EndSplineSet
Validated: 1
EndChar

StartChar: bar
Encoding: 124 124 61
Width: 1024
Flags: MW
LayerCount: 2
Fore
SplineSet
425 1510 m 1,0,-1
 616 1510 l 1,1,-1
 616 -247 l 1,2,-1
 425 -247 l 1,3,-1
 425 1510 l 1,0,-1
EndSplineSet
Validated: 1
EndChar

StartChar: asciitilde
Encoding: 126 126 62
Width: 1024
Flags: MW
LayerCount: 2
Fore
SplineSet
986 722 m 0,0,1
 923 605 923 605 866 552 c 0,2,3
 798 490 798 490 722 490 c 0,4,5
 601 490 601 490 459 578 c 0,6,7
 391 620 391 620 332 620 c 0,8,9
 288 620 288 620 248 595 c 0,10,11
 236 587 236 587 220 577 c 128,-1,12
 204 567 204 567 186 551 c 0,13,14
 153 520 153 520 128 482 c 0,15,16
 114 461 114 461 89 461 c 0,17,18
 73 461 73 461 57 471 c 0,19,20
 33 483 33 483 33 506 c 0,21,22
 33 520 33 520 44 538 c 0,23,24
 91 610 91 610 143 691.5 c 128,-1,25
 195 773 195 773 312 773 c 0,26,27
 447 773 447 773 583 681 c 0,28,29
 645 639 645 639 704 639 c 0,30,31
 755 639 755 639 806 670 c 0,32,33
 856 699 856 699 894 769 c 0,34,35
 908 793 908 793 938 793 c 0,36,37
 946 793 946 793 951 791 c 0,38,39
 985 786 985 786 991 755 c 0,40,41
 992 750 992 750 992 745 c 0,42,43
 992 735 992 735 986 722 c 0,0,1
EndSplineSet
Validated: 1
EndChar

StartChar: currency
Encoding: 164 164 63
Width: 1024
Flags: MW
LayerCount: 2
Fore
SplineSet
513 712 m 0,0,1
 418 712 418 712 349.5 643 c 128,-1,2
 281 574 281 574 281 475 c 256,3,4
 281 376 281 376 349.5 307.5 c 128,-1,5
 418 239 418 239 513 239 c 0,6,7
 606 239 606 239 675 307.5 c 128,-1,8
 744 376 744 376 744 475 c 256,9,10
 744 574 744 574 675 643 c 128,-1,11
 606 712 606 712 513 712 c 0,0,1
513 842 m 256,12,13
 639 842 639 842 720 780 c 1,14,-1
 849 909 l 2,15,16
 861 921 861 921 878 921 c 0,17,18
 897 921 897 921 907 908 c 2,19,-1
 954 862 l 2,20,21
 963 851 963 851 963 840 c 0,22,23
 963 828 963 828 951 816 c 2,24,-1
 818 684 l 1,25,26
 884 598 884 598 884 476 c 0,27,28
 884 352 884 352 818 268 c 1,29,-1
 953 135 l 2,30,31
 963 123 963 123 963 112 c 256,32,33
 963 101 963 101 954 90 c 2,34,-1
 906 44 l 2,35,36
 894 31 894 31 877 31 c 0,37,38
 859 31 859 31 847 45 c 2,39,-1
 720 172 l 1,40,41
 640 111 640 111 513 111 c 256,42,43
 386 111 386 111 306 172 c 1,44,-1
 178 43 l 2,45,46
 166 31 166 31 149 31 c 256,47,48
 132 31 132 31 121 42 c 2,49,-1
 75 88 l 2,50,51
 63 100 63 100 63 112 c 256,52,53
 63 124 63 124 76 137 c 2,54,-1
 208 269 l 1,55,56
 143 354 143 354 143 476 c 0,57,58
 143 597 143 597 208 683 c 1,59,-1
 75 817 l 2,60,61
 63 827 63 827 63 840 c 0,62,63
 63 852 63 852 75 864 c 2,64,-1
 121 910 l 2,65,66
 132 921 132 921 149 921 c 256,67,68
 166 921 166 921 178 909 c 2,69,-1
 306 780 l 1,70,71
 387 842 387 842 513 842 c 256,12,13
EndSplineSet
Validated: 1
EndChar

StartChar: section
Encoding: 167 167 64
Width: 1024
Flags: MW
LayerCount: 2
Fore
SplineSet
497 -345 m 0,0,1
 566 -340 566 -340 629.5 -308.5 c 128,-1,2
 693 -277 693 -277 732 -215 c 0,3,4
 772 -150 772 -150 772 -58 c 2,5,-1
 772 -47 l 2,6,7
 769 47 769 47 701 96 c 0,8,9
 669 120 669 120 624 133 c 0,10,11
 528 159 528 159 425.5 170.5 c 128,-1,12
 323 182 323 182 226 229 c 0,13,14
 137 271 137 271 94 351 c 128,-1,15
 51 431 51 431 51 524 c 0,16,17
 51 699 51 699 156 800 c 1,18,19
 51 881 51 881 51 1051 c 0,20,21
 51 1231 51 1231 177 1348 c 0,22,23
 310 1470 310 1470 508 1470 c 0,24,25
 523 1470 523 1470 538 1469 c 0,26,27
 751 1460 751 1460 913 1356 c 1,28,-1
 889 1151 l 2,29,30
 885 1115 885 1115 849 1115 c 0,31,32
 841 1115 841 1115 837 1116 c 0,33,34
 811 1118 811 1118 796 1156 c 0,35,36
 760 1234 760 1234 689 1288 c 128,-1,37
 618 1342 618 1342 540 1346 c 1,38,-1
 526 1346 l 2,39,40
 448 1346 448 1346 387 1318 c 0,41,42
 350 1300 350 1300 325 1274 c 0,43,44
 302 1251 302 1251 287 1215 c 0,45,46
 271 1183 271 1183 265 1149 c 0,47,48
 259 1121 259 1121 259 1094 c 0,49,50
 259 1061 259 1061 268 1034 c 0,51,52
 285 978 285 978 328 948 c 0,53,54
 356 926 356 926 396 915 c 0,55,56
 419 909 419 909 451 904 c 128,-1,57
 483 899 483 899 520 893 c 0,58,59
 572 884 572 884 631.5 874.5 c 128,-1,60
 691 865 691 865 749 849 c 0,61,62
 850 815 850 815 898 763 c 0,63,64
 933 725 933 725 957 674 c 0,65,66
 983 610 983 610 983 534 c 0,67,68
 983 365 983 365 881 254 c 1,69,70
 883 253 883 253 898 237 c 0,71,72
 934 196 934 196 957 147 c 0,73,74
 983 83 983 83 983 7 c 0,75,76
 983 -196 983 -196 815 -335 c 0,77,78
 729 -404 729 -404 622 -440 c 0,79,80
 543 -467 543 -467 442 -473 c 0,81,82
 422 -474 422 -474 402 -474 c 0,83,84
 267 -474 267 -474 132 -432 c 1,85,-1
 42 -178 l 2,86,87
 39 -170 39 -170 39 -163 c 0,88,89
 39 -147 39 -147 49 -135 c 0,90,91
 61 -113 61 -113 87 -113 c 2,92,-1
 91 -113 l 2,93,94
 117 -116 117 -116 136 -152 c 0,95,96
 193 -273 193 -273 276 -313 c 0,97,98
 344 -347 344 -347 450 -347 c 0,99,100
 473 -347 473 -347 497 -345 c 0,0,1
733 312 m 1,101,102
 772 375 772 375 772 468 c 2,103,-1
 772 479 l 2,104,105
 769 574 769 574 702 623 c 0,106,107
 666 647 666 647 624 660 c 0,108,109
 543 681 543 681 456.5 692 c 128,-1,110
 370 703 370 703 305 725 c 1,111,112
 299 718 299 718 287 689 c 0,113,114
 271 658 271 658 265 622 c 0,115,116
 259 594 259 594 259 567 c 0,117,118
 259 534 259 534 268 507 c 0,119,120
 286 450 286 450 328 422 c 1,121,122
 355 399 355 399 396 389 c 0,123,124
 431 380 431 380 520 366 c 0,125,126
 572 357 572 357 631.5 347.5 c 128,-1,127
 691 338 691 338 733 312 c 1,101,102
EndSplineSet
Validated: 1
EndChar

StartChar: logicalnot
Encoding: 172 172 65
Width: 1024
Flags: MW
LayerCount: 2
Fore
SplineSet
1023 321 m 1,0,-1
 856 321 l 1,1,-1
 856 755 l 1,2,-1
 5 755 l 1,3,-1
 5 907 l 1,4,-1
 1023 907 l 1,5,-1
 1023 321 l 1,0,-1
EndSplineSet
Validated: 1
EndChar

StartChar: degree
Encoding: 176 176 66
Width: 819
Flags: MW
LayerCount: 2
Fore
SplineSet
406 1407 m 0,0,1
 546 1407 546 1407 643 1310 c 128,-1,2
 740 1213 740 1213 740 1078 c 256,3,4
 740 943 740 943 643 846 c 128,-1,5
 546 749 546 749 406 749 c 0,6,7
 265 749 265 749 168.5 846 c 128,-1,8
 72 943 72 943 72 1078 c 256,9,10
 72 1213 72 1213 168.5 1310 c 128,-1,11
 265 1407 265 1407 406 1407 c 0,0,1
406 1285 m 0,12,13
 324 1285 324 1285 264.5 1224.5 c 128,-1,14
 205 1164 205 1164 205 1078 c 0,15,16
 205 991 205 991 264.5 931.5 c 128,-1,17
 324 872 324 872 406 872 c 0,18,19
 487 872 487 872 547 931.5 c 128,-1,20
 607 991 607 991 607 1078 c 0,21,22
 607 1164 607 1164 547 1224.5 c 128,-1,23
 487 1285 487 1285 406 1285 c 0,12,13
EndSplineSet
Validated: 1
EndChar

StartChar: mu
Encoding: 181 181 67
Width: 1325
Flags: MW
LayerCount: 2
Fore
SplineSet
865 752 m 2,0,1
 865 802 865 802 814 820 c 128,-1,2
 763 838 763 838 763 877 c 0,3,4
 763 918 763 918 808 918 c 0,5,6
 860 920 860 920 917 934 c 0,7,8
 985 949 985 949 1095 989 c 1,9,-1
 1095 142 l 2,10,11
 1095 91 1095 91 1146.5 75.5 c 128,-1,12
 1198 60 1198 60 1198 21 c 0,13,14
 1198 -20 1198 -20 1152 -20 c 2,15,-1
 864 -20 l 1,16,-1
 864 55 l 1,17,-1
 693 -12 l 2,18,19
 627 -37 627 -37 563 -37 c 0,20,21
 545 -37 545 -37 528 -35 c 0,22,23
 447 -26 447 -26 386 8 c 0,24,25
 314 47 314 47 302 47 c 1,26,-1
 305 23 l 1,27,-1
 352 -531 l 1,28,-1
 352 -534 l 2,29,30
 352 -573 352 -573 307 -573 c 2,31,-1
 215 -573 l 2,32,33
 170 -573 170 -573 170 -532 c 2,34,-1
 170 804 l 1,35,36
 155 819 155 819 121.5 833 c 128,-1,37
 88 847 88 847 88 877 c 0,38,39
 88 918 88 918 133 918 c 0,40,41
 188 921 188 921 243 935 c 0,42,43
 278 942 278 942 310 953 c 128,-1,44
 342 964 342 964 413 988 c 1,45,-1
 413 424 l 2,46,47
 413 252 413 252 489 160 c 0,48,49
 548 87 548 87 633 87 c 0,50,51
 679 87 679 87 734 107 c 2,52,-1
 865 156 l 1,53,-1
 865 752 l 2,0,1
EndSplineSet
Validated: 1
EndChar

StartChar: paragraph
Encoding: 182 182 68
Width: 1266
Flags: MW
LayerCount: 2
Fore
SplineSet
702 1317 m 1,0,-1
 702 -214 l 1,1,-1
 912 -214 l 1,2,-1
 912 1317 l 1,3,-1
 702 1317 l 1,0,-1
504 767 m 1,4,5
 486 761 486 761 433 761 c 0,6,7
 297 761 297 761 203.5 859 c 128,-1,8
 110 957 110 957 110 1093 c 0,9,10
 110 1228 110 1228 203.5 1325.5 c 128,-1,11
 297 1423 297 1423 432 1424 c 2,12,-1
 1181 1424 l 2,13,14
 1232 1424 1232 1424 1232 1379 c 0,15,16
 1232 1335 1232 1335 1171 1313 c 128,-1,17
 1110 1291 1110 1291 1110 1226 c 2,18,-1
 1110 -122 l 2,19,20
 1110 -187 1110 -187 1171 -209 c 128,-1,21
 1232 -231 1232 -231 1232 -275 c 0,22,23
 1232 -320 1232 -320 1181 -320 c 2,24,-1
 433 -320 l 2,25,26
 382 -320 382 -320 382 -275 c 0,27,28
 382 -231 382 -231 443 -209 c 128,-1,29
 504 -187 504 -187 504 -122 c 2,30,-1
 504 767 l 1,4,5
EndSplineSet
Validated: 1
EndChar

StartChar: periodcentered
Encoding: 183 183 69
Width: 512
Flags: MW
LayerCount: 2
Fore
SplineSet
255 476 m 128,-1,1
 196 476 196 476 154 517 c 0,2,3
 113 558 113 558 113 618 c 0,4,5
 113 677 113 677 154 718 c 0,6,7
 195 760 195 760 255 760 c 0,8,9
 314 760 314 760 356 718 c 0,10,11
 397 676 397 676 397 618 c 0,12,13
 397 559 397 559 356 517 c 0,14,0
 314 476 314 476 255 476 c 128,-1,1
EndSplineSet
Validated: 1
EndChar

StartChar: AE
Encoding: 198 198 70
Width: 1933
Flags: MW
LayerCount: 2
Fore
SplineSet
1114 114 m 1,0,-1
 1517 114 l 2,1,2
 1596 114 1596 114 1656.5 181 c 128,-1,3
 1717 248 1717 248 1750 288 c 0,4,5
 1776 319 1776 319 1799 319 c 0,6,7
 1845 319 1845 319 1845 278 c 0,8,9
 1845 263 1845 263 1842 253 c 2,10,-1
 1765 -20 l 1,11,-1
 826 -20 l 2,12,13
 783 -20 783 -20 783 21 c 0,14,15
 783 59 783 59 833 76.5 c 128,-1,16
 883 94 883 94 883 146 c 2,17,-1
 883 469 l 1,18,-1
 419 469 l 1,19,20
 378 395 378 395 329.5 309.5 c 128,-1,21
 281 224 281 224 233 139 c 0,22,23
 225 125 225 125 219 106 c 0,24,25
 216 97 216 97 216 88 c 0,26,27
 216 84 216 84 217 81 c 0,28,29
 218 70 218 70 223 62 c 128,-1,30
 228 54 228 54 230 43 c 0,31,32
 232 38 232 38 232 33 c 0,33,34
 232 29 232 29 230 22 c 2,35,-1
 227 18 l 2,36,37
 227 17 227 17 228 18 c 1,38,-1
 228 17 l 1,39,40
 209 -20 209 -20 178 -20 c 2,41,-1
 -79 -20 l 2,42,43
 -107 -20 -107 -20 -118 2 c 1,44,-1
 -118 11 l 2,45,46
 -118 19 -118 19 -113 30 c 0,47,48
 -100 46 -100 46 -65 64 c 0,49,50
 -48 72 -48 72 -30.5 80 c 128,-1,51
 -13 88 -13 88 5 99 c 0,52,53
 40 122 40 122 60 154 c 2,54,-1
 749 1323 l 1,55,56
 737 1326 737 1326 696.5 1338.5 c 128,-1,57
 656 1351 656 1351 656 1383 c 0,58,59
 656 1424 656 1424 702 1424 c 2,60,-1
 1782 1424 l 1,61,-1
 1782 1147 l 2,62,63
 1782 1106 1782 1106 1736 1106 c 0,64,65
 1711 1106 1711 1106 1677 1156 c 0,66,67
 1628 1224 1628 1224 1596 1257.5 c 128,-1,68
 1564 1291 1564 1291 1517 1291 c 2,69,-1
 1114 1291 l 1,70,-1
 1114 788 l 1,71,-1
 1318 788 l 2,72,73
 1364 788 1364 788 1384 839.5 c 128,-1,74
 1404 891 1404 891 1448 891 c 0,75,76
 1493 891 1493 891 1493 850 c 2,77,-1
 1493 596 l 2,78,79
 1493 555 1493 555 1448 555 c 0,80,81
 1405 555 1405 555 1382 606 c 128,-1,82
 1359 657 1359 657 1312 657 c 2,83,-1
 1114 657 l 1,84,-1
 1114 114 l 1,0,-1
886 590 m 1,85,-1
 886 1283 l 1,86,87
 817 1165 817 1165 687 939.5 c 128,-1,88
 557 714 557 714 487 590 c 1,89,-1
 886 590 l 1,85,-1
EndSplineSet
Validated: 1
EndChar

StartChar: Thorn
Encoding: 222 222 71
Width: 1151
Flags: MW
LayerCount: 2
Fore
SplineSet
401 1257 m 2,0,-1
 401 1108 l 1,1,-1
 686 1108 l 2,2,3
 794 1108 794 1108 912.5 1069.5 c 128,-1,4
 1031 1031 1031 1031 1097 918 c 0,5,6
 1147 829 1147 829 1147 706 c 0,7,8
 1145 588 1145 588 1079 493 c 0,9,10
 1021 411 1021 411 915 371 c 128,-1,11
 809 331 809 331 722 331 c 2,12,-1
 401 331 l 1,13,-1
 401 146 l 2,14,15
 401 94 401 94 451 76.5 c 128,-1,16
 501 59 501 59 501 21 c 0,17,18
 501 -20 501 -20 455 -20 c 2,19,-1
 116 -20 l 2,20,21
 71 -20 71 -20 71 21 c 0,22,23
 71 59 71 59 121 76.5 c 128,-1,24
 171 94 171 94 171 146 c 2,25,-1
 171 1257 l 2,26,27
 171 1308 171 1308 121 1326 c 128,-1,28
 71 1344 71 1344 71 1383 c 0,29,30
 71 1424 71 1424 117 1424 c 2,31,-1
 455 1424 l 2,32,33
 501 1424 501 1424 501 1383 c 0,34,35
 501 1344 501 1344 451 1326 c 128,-1,36
 401 1308 401 1308 401 1257 c 2,0,-1
401 441 m 1,37,-1
 587 441 l 2,38,39
 652 441 652 441 717.5 459.5 c 128,-1,40
 783 478 783 478 830 525 c 0,41,42
 904 596 904 596 904 716 c 0,43,44
 902 832 902 832 827 907 c 0,45,46
 746 985 746 985 607 985 c 2,47,-1
 401 985 l 1,48,-1
 401 441 l 1,37,-1
EndSplineSet
Validated: 1
EndChar

StartChar: germandbls
Encoding: 223 223 72
Width: 1258
Flags: MW
LayerCount: 2
Fore
SplineSet
502 52 m 1,0,-1
 439 225 l 1,1,-1
 441 248 l 2,2,3
 443 282 443 282 484 282 c 2,4,-1
 489 282 l 1,5,6
 514 277 514 277 530 245 c 0,7,8
 574 151 574 151 634.5 113.5 c 128,-1,9
 695 76 695 76 788 73 c 2,10,-1
 800 73 l 2,11,12
 866 73 866 73 946 104 c 0,13,14
 1024 135 1024 135 1027 216 c 2,15,-1
 1027 222 l 2,16,17
 1027 316 1027 316 942 340 c 0,18,19
 836 370 836 370 756 393 c 0,20,21
 653 421 653 421 562 483 c 0,22,23
 467 547 467 547 467 672 c 2,24,-1
 467 675 l 2,25,26
 467 782 467 782 536.5 835.5 c 128,-1,27
 606 889 606 889 668 947 c 0,28,29
 728 1002 728 1002 740 1095 c 0,30,31
 742 1114 742 1114 742 1133 c 0,32,33
 742 1201 742 1201 707 1251 c 0,34,35
 667 1307 667 1307 580 1316 c 0,36,37
 569 1317 569 1317 558 1317 c 0,38,39
 490 1317 490 1317 453 1268 c 0,40,41
 422 1226 422 1226 417.5 1160 c 128,-1,42
 413 1094 413 1094 413 1027 c 2,43,-1
 413 146 l 2,44,45
 413 94 413 94 463 77 c 0,46,47
 490 67 490 67 502 52 c 1,0,-1
513 22 m 1,48,-1
 513 21 l 2,49,50
 513 -20 513 -20 467 -20 c 2,51,-1
 128 -20 l 2,52,53
 82 -20 82 -20 82 21 c 0,54,55
 82 59 82 59 132 76.5 c 128,-1,56
 182 94 182 94 182 146 c 2,57,-1
 182 1027 l 2,58,59
 182 1119 182 1119 205.5 1207.5 c 128,-1,60
 229 1296 229 1296 288 1362 c 0,61,62
 396 1486 396 1486 555 1486 c 0,63,64
 590 1486 590 1486 627 1480 c 0,65,66
 814 1447 814 1447 903 1272 c 0,67,68
 937 1204 937 1204 937 1140 c 0,69,70
 937 1040 937 1040 853 950 c 0,71,72
 797 890 797 890 736 847.5 c 128,-1,73
 675 805 675 805 663 748 c 0,74,75
 658 727 658 727 658 711 c 0,76,77
 658 659 658 659 702 638 c 0,78,79
 770 604 770 604 861 583 c 0,80,81
 993 554 993 554 1106 501.5 c 128,-1,82
 1219 449 1219 449 1229 281 c 1,83,-1
 1229 269 l 2,84,85
 1229 190 1229 190 1168 113 c 0,86,87
 1102 27 1102 27 977 -16 c 0,88,89
 900 -42 900 -42 807 -45 c 2,90,-1
 779 -45 l 2,91,92
 653 -45 653 -45 524 -8 c 1,93,-1
 513 22 l 1,48,-1
EndSplineSet
Validated: 1
EndChar

StartChar: uni0261
Encoding: 609 609 73
Width: 1164
Flags: MW
LayerCount: 2
Fore
SplineSet
1028 199 m 2,0,1
 1028 103 1028 103 1053.5 37.5 c 128,-1,2
 1079 -28 1079 -28 1119 -153 c 0,3,4
 1136 -209 1136 -209 1136 -261 c 0,5,6
 1136 -333 1136 -333 1104 -400 c 0,7,8
 1047 -519 1047 -519 921 -566 c 0,9,10
 835 -598 835 -598 738 -598 c 0,11,12
 720 -598 720 -598 701 -597 c 0,13,14
 588 -590 588 -590 474 -574.5 c 128,-1,15
 360 -559 360 -559 251 -552 c 0,16,17
 234 -551 234 -551 218 -551 c 0,18,19
 134 -551 134 -551 60 -579 c 0,20,21
 20 -594 20 -594 -9 -594 c 0,22,23
 -19 -594 -19 -594 -28 -593 c 0,24,25
 -53 -588 -53 -588 -53 -568 c 0,26,27
 -53 -544 -53 -544 52 -472 c 0,28,29
 151 -404 151 -404 256 -404 c 0,30,31
 354 -404 354 -404 450.5 -420 c 128,-1,32
 547 -436 547 -436 638 -446 c 0,33,34
 654 -448 654 -448 669 -448 c 0,35,36
 735 -448 735 -448 797 -416 c 0,37,38
 863 -382 863 -382 897 -334 c 0,39,40
 915 -310 915 -310 915 -276 c 0,41,42
 915 -249 915 -249 903 -215 c 2,43,-1
 806 59 l 1,44,-1
 557 -32 l 2,45,46
 520 -45 520 -45 494 -45 c 2,47,-1
 452 -45 l 1,48,49
 298 -37 298 -37 190 77 c 0,50,51
 81 193 81 193 66 358 c 0,52,53
 62 400 62 400 62 440 c 0,54,55
 62 493 62 493 69 543 c 0,56,57
 82 632 82 632 138 720 c 1,58,59
 165 767 165 767 232 818 c 1,60,61
 257 835 257 835 287 848 c 1,62,63
 368 878 368 878 448.5 908 c 128,-1,64
 529 938 529 938 610 968 c 0,65,66
 632 976 632 976 652 976 c 2,67,-1
 658 976 l 1,68,69
 726 973 726 973 822 942 c 0,70,71
 832 939 832 939 834 937 c 1,72,73
 854 929 854 929 885 919 c 0,74,75
 893 916 893 916 900 916 c 0,76,77
 906 916 906 916 910 919 c 0,78,79
 929 935 929 935 936 945 c 0,80,81
 949 962 949 962 971 962 c 0,82,83
 982 962 982 962 991 958 c 0,84,85
 1028 945 1028 945 1028 920 c 2,86,-1
 1028 199 l 2,0,1
797 158 m 1,87,-1
 796 219 l 1,88,-1
 797 219 l 1,89,-1
 797 762 l 1,90,91
 765 792 765 792 702.5 822 c 128,-1,92
 640 852 640 852 594 854 c 1,93,-1
 591 854 l 2,94,95
 577 854 577 854 561 848 c 0,96,97
 525 835 525 835 489.5 821.5 c 128,-1,98
 454 808 454 808 418 795 c 1,99,100
 399 787 399 787 388 775 c 0,101,102
 330 713 330 713 310 624 c 1,103,104
 293 554 293 554 293 486 c 0,105,106
 293 465 293 465 295 442 c 0,107,108
 306 303 306 303 370 217 c 1,109,110
 432 130 432 130 524 105 c 0,111,112
 558 95 558 95 593 95 c 0,113,114
 604 95 604 95 615 96 c 0,115,116
 633 98 633 98 660 107 c 0,117,118
 683 115 683 115 731.5 133 c 128,-1,119
 780 151 780 151 797 158 c 1,87,-1
EndSplineSet
Validated: 1
EndChar

StartChar: uni0262
Encoding: 610 610 74
Width: 1078
Flags: MW
LayerCount: 2
Fore
SplineSet
623 -46 m 0,0,1
 404 -46 404 -46 235.5 90 c 128,-1,2
 67 226 67 226 67 463 c 0,3,4
 67 695 67 695 230.5 835.5 c 128,-1,5
 394 976 394 976 623 976 c 0,6,7
 704 976 704 976 796 958.5 c 128,-1,8
 888 941 888 941 983 882 c 1,9,-1
 966 711 l 1,10,11
 961 681 961 681 928 681 c 2,12,-1
 924 681 l 1,13,14
 896 684 896 684 884 714 c 1,15,16
 843 799 843 799 784 830.5 c 128,-1,17
 725 862 725 862 623 862 c 0,18,19
 559 862 559 862 484 823.5 c 128,-1,20
 409 785 409 785 359 699 c 0,21,22
 302 599 302 599 302 463 c 0,23,24
 302 307 302 307 403.5 194 c 128,-1,25
 505 81 505 81 625 73 c 0,26,27
 650 71 650 71 672 71 c 0,28,29
 730 71 730 71 764 84 c 0,30,31
 808 100 808 100 845 162 c 1,32,-1
 845 281 l 1,33,34
 844 292 844 292 835 297 c 0,35,36
 818 305 818 305 776 322 c 128,-1,37
 734 339 734 339 734 365 c 0,38,39
 734 399 734 399 773 399 c 2,40,-1
 1062 399 l 2,41,42
 1101 399 1101 399 1101 365 c 0,43,44
 1101 335 1101 335 1067 323 c 128,-1,45
 1033 311 1033 311 1033 282 c 2,46,-1
 1033 5 l 1,47,48
 953 1 953 1 911.5 -5.5 c 128,-1,49
 870 -12 870 -12 818 -23 c 1,50,51
 732 -46 732 -46 623 -46 c 0,0,1
EndSplineSet
Validated: 1
EndChar

StartChar: uni026A
Encoding: 618 618 75
Width: 492
Flags: MW
LayerCount: 2
Fore
SplineSet
358 771 m 0,0,1
 358 465 358 465 358 160 c 0,2,3
 358 137 358 137 366 121 c 128,-1,4
 374 105 374 105 395 99 c 0,5,6
 458 78 458 78 458 40 c 0,7,8
 458 25 458 25 450 14 c 0,9,10
 439 0 439 0 418 0 c 2,11,-1
 85 0 l 2,12,13
 69 0 69 0 58 9 c 0,14,15
 44 20 44 20 44 40 c 0,16,17
 44 78 44 78 107 98 c 0,18,19
 127 105 127 105 136 121 c 0,20,21
 144 137 144 137 144 159 c 0,22,23
 144 465 144 465 144 772 c 0,24,25
 144 795 144 795 136 810 c 128,-1,26
 128 825 128 825 107 832 c 0,27,28
 44 854 44 854 44 892 c 0,29,30
 44 912 44 912 58 923 c 0,31,32
 69 931 69 931 85 931 c 2,33,-1
 418 931 l 2,34,35
 439 931 439 931 450 917 c 0,36,37
 458 907 458 907 458 892 c 0,38,39
 458 854 458 854 395 832 c 0,40,41
 375 825 375 825 366 810 c 0,42,43
 358 794 358 794 358 771 c 0,0,1
EndSplineSet
Validated: 1
EndChar

StartChar: uni0274
Encoding: 628 628 76
Width: 1142
Flags: MW
LayerCount: 2
Fore
SplineSet
892 267 m 1,0,-1
 892 784 l 2,1,2
 892 835 892 835 842 853 c 128,-1,3
 792 871 792 871 792 910 c 0,4,5
 792 951 792 951 838 951 c 2,6,-1
 1092 951 l 2,7,8
 1138 951 1138 951 1138 910 c 0,9,10
 1138 871 1138 871 1086 853 c 128,-1,11
 1034 835 1034 835 1034 784 c 2,12,-1
 1034 -71 l 1,13,-1
 837 -17 l 1,14,-1
 278 650 l 1,15,-1
 278 146 l 2,16,17
 278 94 278 94 328 76.5 c 128,-1,18
 378 59 378 59 378 21 c 0,19,20
 378 -20 378 -20 333 -20 c 2,21,-1
 78 -20 l 2,22,23
 32 -20 32 -20 32 21 c 0,24,25
 32 59 32 59 83.5 76.5 c 128,-1,26
 135 94 135 94 135 146 c 2,27,-1
 135 784 l 2,28,29
 135 835 135 835 85 853 c 128,-1,30
 35 871 35 871 35 910 c 0,31,32
 35 951 35 951 81 951 c 2,33,-1
 330 951 l 1,34,-1
 892 267 l 1,0,-1
EndSplineSet
Validated: 1
EndChar

StartChar: uni0276
Encoding: 630 630 77
Width: 1506
Flags: MW
LayerCount: 2
Fore
SplineSet
581 976 m 0,0,1
 633 976 633 976 681 963.5 c 128,-1,2
 729 951 729 951 770 951 c 2,3,-1
 1432 951 l 1,4,-1
 1432 740 l 2,5,6
 1432 702 1432 702 1393 697 c 1,7,-1
 1389 697 l 2,8,9
 1362 697 1362 697 1328 743 c 1,10,11
 1295 790 1295 790 1283 809 c 128,-1,12
 1271 828 1271 828 1247 828 c 2,13,-1
 1021 828 l 1,14,-1
 1021 529 l 1,15,-1
 1115 529 l 2,16,17
 1130 529 1130 529 1143 545 c 2,18,-1
 1188 598 l 1,19,20
 1240 598 1240 598 1240 564 c 2,21,-1
 1240 374 l 2,22,23
 1240 340 1240 340 1201 340 c 0,24,25
 1173 340 1173 340 1162.5 362.5 c 128,-1,26
 1152 385 1152 385 1141 396 c 0,27,28
 1129 408 1129 408 1115 408 c 2,29,-1
 1021 408 l 1,30,-1
 1021 98 l 1,31,-1
 1248 98 l 2,32,33
 1296 98 1296 98 1325 133 c 128,-1,34
 1354 168 1354 168 1376 194 c 1,35,36
 1404 232 1404 232 1429 232 c 2,37,-1
 1431 232 l 1,38,39
 1477 228 1477 228 1477 189 c 0,40,41
 1477 179 1477 179 1473 167 c 2,42,-1
 1421 -20 l 1,43,-1
 743 -20 l 2,44,45
 708 -20 708 -20 666.5 -31 c 128,-1,46
 625 -42 625 -42 582 -45 c 0,47,48
 567 -46 567 -46 552 -46 c 0,49,50
 353 -46 353 -46 202 89 c 1,51,52
 49 223 49 223 49 441 c 2,53,-1
 49 465 l 1,54,55
 57 698 57 698 202.5 835.5 c 128,-1,56
 348 973 348 973 581 976 c 0,0,1
797 197 m 1,57,-1
 797 748 l 1,58,59
 721 838 721 838 584 838 c 2,60,-1
 581 838 l 2,61,62
 410 838 410 838 341 729.5 c 128,-1,63
 272 621 272 621 272 464 c 0,64,65
 272 306 272 306 359 198 c 128,-1,66
 446 90 446 90 581 89 c 1,67,-1
 586 89 l 2,68,69
 711 89 711 89 797 197 c 1,57,-1
EndSplineSet
Validated: 1
EndChar

StartChar: uni0280
Encoding: 640 640 78
Width: 1010
Flags: MW
LayerCount: 2
Fore
SplineSet
933 82 m 1,0,-1
 950 74 l 2,1,2
 966 66 966 66 987 65 c 1,3,4
 1038 59 1038 59 1038 21 c 2,5,-1
 1038 18 l 2,6,7
 1038 -20 1038 -20 993 -20 c 2,8,-1
 763 -20 l 2,9,10
 737 -20 737 -20 618 144 c 128,-1,11
 499 308 499 308 427 399 c 1,12,-1
 368 399 l 1,13,-1
 368 146 l 2,14,15
 368 94 368 94 418 76.5 c 128,-1,16
 468 59 468 59 468 21 c 0,17,18
 468 -20 468 -20 423 -20 c 2,19,-1
 90 -20 l 2,20,21
 44 -20 44 -20 44 21 c 0,22,23
 44 58 44 58 94 76 c 128,-1,24
 144 94 144 94 144 146 c 2,25,-1
 144 785 l 2,26,27
 144 836 144 836 94 854 c 128,-1,28
 44 872 44 872 44 911 c 0,29,30
 44 951 44 951 90 951 c 2,31,-1
 580 951 l 2,32,33
 655 951 655 951 737.5 924.5 c 128,-1,34
 820 898 820 898 867 821 c 0,35,36
 902 762 902 762 902 678 c 1,37,38
 900 598 900 598 855 533 c 1,39,40
 817 481 817 481 750.5 453.5 c 128,-1,41
 684 426 684 426 666 425 c 1,42,-1
 933 82 l 1,0,-1
368 509 m 1,43,-1
 492 509 l 2,44,45
 575 509 575 509 630 562 c 0,46,47
 678 607 678 607 678 681 c 2,48,-1
 678 684 l 2,49,50
 678 759 678 759 628 806 c 0,51,52
 596 835 596 835 574 838 c 128,-1,53
 552 841 552 841 506 841 c 2,54,-1
 368 841 l 1,55,-1
 368 509 l 1,43,-1
EndSplineSet
Validated: 1
EndChar

StartChar: uni028F
Encoding: 655 655 79
Width: 940
Flags: MW
LayerCount: 2
Fore
SplineSet
390 404 m 1,0,-1
 194 754 l 1,1,2
 174 786 174 786 128 812 c 0,3,4
 103 825 103 825 77.5 834.5 c 128,-1,5
 52 844 52 844 36 855 c 1,6,7
 18 864 18 864 11 877 c 1,8,9
 5 886 5 886 5 896 c 2,10,-1
 5 900 l 1,11,12
 9 925 9 925 40 925 c 2,13,-1
 369 925 l 2,14,15
 384 925 384 925 401 916 c 0,16,17
 417 908 417 908 426 894 c 0,18,19
 432 884 432 884 432 875 c 0,20,21
 432 863 432 863 422 849 c 1,22,23
 399 823 399 823 398 815 c 1,24,-1
 398 811 l 2,25,26
 398 795 398 795 411 777 c 1,27,-1
 574 508 l 1,28,-1
 659 642 l 2,29,30
 684 682 684 682 689 708 c 1,31,-1
 689 718 l 2,32,33
 689 743 689 743 669 785 c 2,34,-1
 628 867 l 1,35,-1
 784 935 l 1,36,37
 795 942 795 942 811 942 c 0,38,39
 838 942 838 942 856 915 c 1,40,-1
 915 816 l 2,41,42
 928 794 928 794 928 771 c 0,43,44
 928 730 928 730 890 691 c 0,45,46
 840 638 840 638 782 555 c 2,47,-1
 667 391 l 1,48,49
 651 370 651 370 646 324.5 c 128,-1,50
 641 279 641 279 641 237 c 2,51,-1
 641 142 l 2,52,53
 641 92 641 92 690 74.5 c 128,-1,54
 739 57 739 57 739 20 c 0,55,56
 739 -20 739 -20 693 -20 c 2,57,-1
 364 -20 l 2,58,59
 319 -20 319 -20 319 20 c 0,60,61
 319 57 319 57 367.5 74.5 c 128,-1,62
 416 92 416 92 416 142 c 2,63,-1
 416 311 l 2,64,65
 416 362 416 362 390 404 c 1,0,-1
EndSplineSet
Validated: 1
EndChar

StartChar: uni0299
Encoding: 665 665 80
Width: 865
Flags: MW
LayerCount: 2
Fore
SplineSet
349 69 m 1,0,-1
 454 69 l 2,1,2
 498 69 498 69 542 81.5 c 128,-1,3
 586 94 586 94 618 125 c 0,4,5
 668 173 668 173 668 253 c 256,6,7
 668 333 668 333 613.5 385 c 128,-1,8
 559 437 559 437 468 437 c 2,9,-1
 349 437 l 1,10,-1
 349 69 l 1,0,-1
349 535 m 1,11,-1
 485 535 l 1,12,13
 554 544 554 544 597 585 c 0,14,15
 638 624 638 624 638 695 c 2,16,-1
 638 698 l 2,17,18
 638 771 638 771 590.5 816.5 c 128,-1,19
 543 862 543 862 460 862 c 2,20,-1
 349 862 l 1,21,-1
 349 535 l 1,11,-1
531 955 m 2,22,23
 602 955 602 955 676 931 c 1,24,25
 758 903 758 903 796 836 c 0,26,27
 831 774 831 774 831 699 c 2,28,-1
 831 694 l 2,29,30
 831 617 831 617 792.5 562 c 128,-1,31
 754 507 754 507 734 499 c 1,32,33
 792 479 792 479 834 405 c 0,34,35
 873 336 873 336 873 254 c 2,36,-1
 873 250 l 2,37,38
 873 165 873 165 828 100 c 1,39,40
 783 37 783 37 707 8.5 c 128,-1,41
 631 -20 631 -20 569 -20 c 2,42,-1
 109 -20 l 2,43,44
 71 -20 71 -20 71 12 c 0,45,46
 71 43 71 43 104 55 c 128,-1,47
 137 67 137 67 137 97 c 2,48,-1
 137 837 l 2,49,50
 137 866 137 866 104 878 c 128,-1,51
 71 890 71 890 71 923 c 0,52,53
 71 955 71 955 109 955 c 2,54,-1
 531 955 l 2,22,23
EndSplineSet
Validated: 1
EndChar

StartChar: uni029C
Encoding: 668 668 81
Width: 1249
Flags: MW
LayerCount: 2
Fore
SplineSet
820 0 m 6,0,1
 777 0 777 0 774 39 c 4,2,3
 774 77 774 77 842 98 c 4,4,5
 879 111 879 111 879 159 c 6,6,-1
 879 438 l 5,7,-1
 358 438 l 5,8,-1
 358 159 l 6,9,10
 358 110 358 110 395 98 c 4,11,12
 462 77 462 77 462 41 c 4,13,14
 462 40 462 40 462 40 c 4,15,16
 462 25 462 25 451.5 12.5 c 132,-1,17
 441 0 441 0 418 0 c 6,18,-1
 85 0 l 6,19,20
 44 0 44 0 44 39 c 132,-1,21
 44 78 44 78 107 98 c 4,22,23
 144 111 144 111 144 159 c 6,24,25
 144 159 144 159 144 772 c 4,26,27
 144 820 144 820 107 832 c 4,28,29
 44 854 44 854 44 892.5 c 132,-1,30
 44 931 44 931 85 931 c 6,31,-1
 418 931 l 6,32,33
 441 931 441 931 451.5 919 c 132,-1,34
 462 907 462 907 462 892 c 4,35,36
 462 854 462 854 395 833 c 4,37,38
 358 820 358 820 358 773 c 6,39,-1
 358 548 l 5,40,-1
 879 548 l 5,41,-1
 879 773 l 6,42,43
 879 821 879 821 842 833 c 4,44,45
 774 855 774 855 774 893 c 132,-1,46
 774 931 774 931 820 931 c 6,47,-1
 1153 931 l 6,48,49
 1194 931 1194 931 1194 892.5 c 132,-1,50
 1194 854 1194 854 1130 832 c 4,51,52
 1093 820 1093 820 1093 772 c 6,53,54
 1093 772 1093 772 1093 160 c 4,55,56
 1093 110 1093 110 1130 99 c 4,57,58
 1194 78 1194 78 1194 40 c 4,59,60
 1194 24 1194 24 1184 12 c 132,-1,61
 1174 0 1174 0 1153 0 c 6,62,-1
 820 0 l 6,0,1
EndSplineSet
Validated: 1
EndChar

StartChar: uni029F
Encoding: 671 671 82
Width: 865
Flags: MW
LayerCount: 2
Fore
SplineSet
818 232 m 0,0,1
 864 232 864 232 866 189 c 0,2,3
 866 181 866 181 862 167 c 2,4,-1
 810 -20 l 1,5,-1
 90 -20 l 2,6,7
 44 -20 44 -20 44 20 c 0,8,9
 44 59 44 59 94 76.5 c 128,-1,10
 144 94 144 94 144 146 c 2,11,-1
 144 785 l 2,12,13
 144 836 144 836 94 854 c 128,-1,14
 44 872 44 872 44 911 c 0,15,16
 44 951 44 951 90 951 c 2,17,-1
 423 951 l 2,18,19
 468 951 468 951 468 911 c 0,20,21
 468 872 468 872 418 854 c 128,-1,22
 368 836 368 836 368 785 c 2,23,-1
 368 103 l 1,24,-1
 638 103 l 2,25,26
 686 103 686 103 714.5 135.5 c 128,-1,27
 743 168 743 168 768.5 200 c 128,-1,28
 794 232 794 232 818 232 c 0,0,1
EndSplineSet
Validated: 1
EndChar

StartChar: circumflex
Encoding: 710 710 83
Width: 1000
Flags: MW
LayerCount: 2
Fore
SplineSet
431 1463 m 1,0,-1
 569 1463 l 1,1,-1
 824 1076 l 1,2,-1
 722 1076 l 1,3,-1
 500 1278 l 1,4,-1
 278 1076 l 1,5,-1
 175 1076 l 1,6,-1
 431 1463 l 1,0,-1
EndSplineSet
Validated: 1
EndChar

StartChar: breve
Encoding: 728 728 84
Width: 1000
Flags: MW
LayerCount: 2
Fore
SplineSet
525 1095 m 0,0,1
 352 1095 352 1095 262 1217 c 0,2,3
 202 1297 202 1297 196 1412 c 1,4,-1
 196 1415 l 2,5,6
 196 1459 196 1459 248 1459 c 0,7,8
 287 1459 287 1459 299 1416 c 0,9,10
 338 1267 338 1267 524 1266 c 1,11,-1
 529 1266 l 2,12,13
 712 1266 712 1266 750 1416 c 1,14,15
 762 1459 762 1459 802 1459 c 0,16,17
 854 1459 854 1459 854 1414 c 2,18,-1
 854 1412 l 1,19,20
 847 1297 847 1297 788 1217 c 0,21,22
 697 1095 697 1095 525 1095 c 0,0,1
EndSplineSet
Validated: 1
EndChar

StartChar: uni0305
Encoding: 773 773 85
Width: 0
Flags: MW
LayerCount: 2
Fore
SplineSet
-1090 1201 m 1,0,-1
 -1090 1324 l 1,1,-1
 20 1324 l 1,2,-1
 20 1201 l 1,3,-1
 -1090 1201 l 1,0,-1
EndSplineSet
Validated: 1
EndChar

StartChar: uni031A
Encoding: 794 794 86
Width: 0
Flags: MW
LayerCount: 2
Fore
SplineSet
83 871 m 1,0,-1
 -38 871 l 1,1,-1
 -38 1138 l 1,2,-1
 -493 1138 l 1,3,-1
 -493 1261 l 1,4,-1
 83 1261 l 1,5,-1
 83 871 l 1,0,-1
EndSplineSet
Validated: 1
EndChar

StartChar: uni0321
Encoding: 801 801 87
Width: 0
Flags: MW
LayerCount: 2
Fore
SplineSet
-96 20 m 1,0,1
 -96 -194 -96 -194 -122.5 -284.5 c 128,-1,2
 -149 -375 -149 -375 -215 -445 c 1,3,4
 -311 -542 -311 -542 -457 -579 c 1,5,-1
 -457 -493 l 1,6,7
 -361 -435 -361 -435 -333 -343 c 0,8,9
 -322 -306 -322 -306 -321.5 -237.5 c 128,-1,10
 -321 -169 -321 -169 -321 20 c 1,11,-1
 -96 20 l 1,0,1
EndSplineSet
Validated: 1
EndChar

StartChar: uni032A
Encoding: 810 810 88
Width: 0
Flags: MW
LayerCount: 2
Fore
SplineSet
-172 -168 m 6,0,-1
 -172 -442 l 6,1,2
 -172 -452 -172 -452 -179.5 -459.5 c 132,-1,3
 -187 -467 -187 -467 -197 -467 c 6,4,-1
 -280 -467 l 6,5,6
 -290 -467 -290 -467 -297.5 -459.5 c 132,-1,7
 -305 -452 -305 -452 -305 -442 c 6,8,-1
 -305 -276 l 5,9,-1
 -842 -276 l 5,10,-1
 -842 -442 l 6,11,12
 -842 -452 -842 -452 -849.5 -459.5 c 132,-1,13
 -857 -467 -857 -467 -867 -467 c 6,14,-1
 -949 -467 l 6,15,16
 -959 -467 -959 -467 -966.5 -459.5 c 132,-1,17
 -974 -452 -974 -452 -974 -442 c 6,18,-1
 -974 -168 l 6,19,20
 -974 -158 -974 -158 -966.5 -150.5 c 132,-1,21
 -959 -143 -959 -143 -949 -143 c 6,22,-1
 -197 -143 l 6,23,24
 -187 -143 -187 -143 -179.5 -150.5 c 132,-1,25
 -172 -158 -172 -158 -172 -168 c 6,0,-1
EndSplineSet
Validated: 1
EndChar

StartChar: uni0337
Encoding: 823 823 89
Width: 0
Flags: MW
LayerCount: 2
Fore
SplineSet
-514 393 m 1,0,1
 -648 315 -648 315 -806 259 c 2,2,-1
 -817 255 l 1,3,-1
 -824 265 l 2,4,5
 -851 307 -851 307 -869 338 c 1,6,-1
 -852 344 l 2,7,8
 -714 397 -714 397 -584 474 c 1,9,10
 -347 637 -347 637 -263 707 c 2,11,-1
 -252 716 l 1,12,13
 -230 692 -230 692 -218.5 679 c 128,-1,14
 -207 666 -207 666 -185 644 c 1,15,-1
 -196 633 l 2,16,17
 -292 540 -292 540 -513 393 c 1,18,-1
 -514 393 l 1,0,1
EndSplineSet
Validated: 1
EndChar

StartChar: uni0338
Encoding: 824 824 90
Width: 0
Flags: MW
LayerCount: 2
Fore
SplineSet
223 1494 m 1,0,-1
 377 1494 l 1,1,-1
 -270 -90 l 1,2,-1
 -426 -90 l 1,3,-1
 223 1494 l 1,0,-1
EndSplineSet
Validated: 1
EndChar

StartChar: uni033B
Encoding: 827 827 91
Width: 0
Flags: MW
LayerCount: 2
Fore
SplineSet
-440 -195 m 1,0,-1
 -706 -195 l 1,1,-1
 -706 -461 l 1,2,-1
 -440 -461 l 1,3,-1
 -440 -195 l 1,0,-1
-829 -72 m 1,4,-1
 -317 -72 l 1,5,-1
 -317 -584 l 1,6,-1
 -829 -584 l 1,7,-1
 -829 -72 l 1,4,-1
EndSplineSet
Validated: 1
EndChar

StartChar: uni033C
Encoding: 828 828 92
Width: 0
Flags: MW
LayerCount: 2
Fore
SplineSet
-177 -148 m 1,0,-1
 -177 -244 l 1,1,2
 -296 -300 -296 -300 -380 -350 c 0,3,4
 -458 -397 -458 -397 -492 -539 c 1,5,-1
 -495 -554 l 1,6,-1
 -608 -554 l 1,7,-1
 -612 -539 l 2,8,9
 -644 -420 -644 -420 -724 -359 c 0,10,11
 -803 -299 -803 -299 -955 -250 c 1,12,-1
 -969 -246 l 1,13,-1
 -969 -154 l 1,14,15
 -799 -196 -799 -196 -687 -229 c 0,16,17
 -593 -256 -593 -256 -548 -354 c 1,18,19
 -512 -258 -512 -258 -432 -233 c 0,20,21
 -339 -204 -339 -204 -177 -148 c 1,0,-1
EndSplineSet
Validated: 1
EndChar

StartChar: uni0346
Encoding: 838 838 93
Width: 0
Flags: MW
LayerCount: 2
Fore
SplineSet
-177 1474 m 1,0,-1
 -177 1160 l 1,1,-1
 -300 1160 l 1,2,-1
 -300 1351 l 1,3,-1
 -847 1351 l 1,4,-1
 -847 1160 l 1,5,-1
 -969 1160 l 1,6,-1
 -969 1474 l 1,7,-1
 -177 1474 l 1,0,-1
EndSplineSet
Validated: 1
EndChar

StartChar: uni0347
Encoding: 839 839 94
Width: 0
Flags: MW
LayerCount: 2
Fore
SplineSet
-801 -365 m 1,0,-1
 -260 -365 l 1,1,-1
 -260 -487 l 1,2,-1
 -801 -487 l 1,3,-1
 -801 -365 l 1,0,-1
-801 -196 m 1,4,-1
 -260 -196 l 1,5,-1
 -260 -319 l 1,6,-1
 -801 -319 l 1,7,-1
 -801 -196 l 1,4,-1
EndSplineSet
Validated: 1
EndChar

StartChar: uni0348
Encoding: 840 840 95
Width: 0
Flags: MW
LayerCount: 2
Fore
SplineSet
-722 -101 m 1,0,-1
 -556 -101 l 1,1,-1
 -556 -530 l 1,2,-1
 -722 -530 l 1,3,-1
 -722 -101 l 1,0,-1
-511 -101 m 1,4,-1
 -345 -101 l 1,5,-1
 -345 -530 l 1,6,-1
 -511 -530 l 1,7,-1
 -511 -101 l 1,4,-1
EndSplineSet
Validated: 1
EndChar

StartChar: uni034A
Encoding: 842 842 96
Width: 0
Flags: MW
LayerCount: 2
Fore
SplineSet
-189 1331 m 1,0,1
 -161 1316 -161 1316 -133 1316 c 256,2,3
 -105 1316 -105 1316 -80 1337 c 1,4,5
 -44 1365 -44 1365 -18 1436 c 1,6,7
 -7 1462 -7 1462 20 1462 c 0,8,9
 29 1462 29 1462 34 1459 c 1,10,11
 59 1453 59 1453 64 1421 c 1,12,-1
 64 1415 l 2,13,14
 64 1403 64 1403 60 1393 c 0,15,16
 21 1278 21 1278 -22 1224 c 1,17,18
 -71 1159 -71 1159 -131 1159 c 256,19,20
 -191 1159 -191 1159 -286 1216.5 c 128,-1,21
 -381 1274 -381 1274 -428 1302 c 1,22,23
 -483 1333 -483 1333 -506 1372 c 0,24,25
 -523 1402 -523 1402 -523 1433 c 0,26,27
 -523 1474 -523 1474 -491 1519 c 0,28,29
 -442 1586 -442 1586 -397 1651 c 1,30,31
 -375 1680 -375 1680 -346 1680 c 0,32,33
 -338 1680 -338 1680 -327 1678 c 1,34,35
 -299 1666 -299 1666 -299 1646 c 0,36,37
 -299 1637 -299 1637 -307 1625 c 0,38,39
 -333 1586 -333 1586 -345 1556 c 0,40,41
 -356 1529 -356 1529 -364 1494 c 0,42,43
 -365 1487 -365 1487 -365 1480 c 0,44,45
 -365 1433 -365 1433 -311 1398 c 1,46,47
 -303 1412 -303 1412 -275 1447.5 c 128,-1,48
 -247 1483 -247 1483 -223 1518 c 1,49,50
 -201 1547 -201 1547 -172 1547 c 0,51,52
 -161 1547 -161 1547 -151 1543 c 0,53,54
 -125 1532 -125 1532 -125 1512 c 0,55,56
 -125 1503 -125 1503 -132 1493 c 0,57,58
 -158 1455 -158 1455 -171 1422 c 1,59,60
 -183 1395 -183 1395 -189 1361 c 0,61,62
 -190 1359 -190 1359 -190 1353 c 0,63,64
 -190 1341 -190 1341 -189 1331 c 1,0,1
EndSplineSet
Validated: 1
EndChar

StartChar: uni034D
Encoding: 845 845 97
Width: 0
Flags: MW
LayerCount: 2
Fore
SplineSet
-861 -403 m 1,0,-1
 -827 -509 l 1,1,-1
 -1057 -342 l 1,2,-1
 -827 -173 l 1,3,-1
 -861 -280 l 1,4,-1
 -206 -280 l 1,5,-1
 -240 -173 l 1,6,-1
 -10 -342 l 1,7,-1
 -240 -509 l 1,8,-1
 -206 -403 l 1,9,-1
 -861 -403 l 1,0,-1
EndSplineSet
Validated: 1
EndChar

StartChar: uni034E
Encoding: 846 846 98
Width: 0
Flags: MW
LayerCount: 2
Fore
SplineSet
-472 -597 m 1,0,-1
 -595 -597 l 1,1,-1
 -595 -267 l 1,2,-1
 -702 -301 l 1,3,-1
 -533 -71 l 1,4,-1
 -366 -301 l 1,5,-1
 -472 -267 l 1,6,-1
 -472 -597 l 1,0,-1
EndSplineSet
Validated: 1
EndChar

StartChar: uni035B
Encoding: 859 859 99
Width: 0
Flags: MW
LayerCount: 2
Fore
SplineSet
-217 1367 m 2,0,1
 -206 1367 -206 1367 -198 1361 c 0,2,3
 -187 1353 -187 1353 -187 1337 c 2,4,-1
 -187 1251 l 2,5,6
 -187 1223 -187 1223 -203 1187 c 0,7,8
 -228 1126 -228 1126 -307 1030 c 0,9,10
 -318 1016 -318 1016 -333 1011 c 0,11,12
 -349 1006 -349 1006 -352 1006 c 2,13,-1
 -354 1006 l 2,14,15
 -372 1006 -372 1006 -383 1020 c 0,16,17
 -391 1030 -391 1030 -391 1043 c 128,-1,18
 -391 1056 -391 1056 -381 1067 c 0,19,20
 -325 1137 -325 1137 -325 1188 c 0,21,22
 -325 1205 -325 1205 -331 1220 c 1,23,-1
 -690 1220 l 2,24,25
 -706 1220 -706 1220 -714 1231 c 0,26,27
 -721 1239 -721 1239 -721 1251 c 2,28,-1
 -721 1327 l 2,29,30
 -721 1355 -721 1355 -704 1397 c 0,31,32
 -677 1459 -677 1459 -599 1555 c 0,33,34
 -586 1567 -586 1567 -573 1573 c 0,35,36
 -562 1576 -562 1576 -553 1576 c 0,37,38
 -538 1576 -538 1576 -525 1565 c 0,39,40
 -515 1553 -515 1553 -515 1541 c 128,-1,41
 -515 1529 -515 1529 -525 1516 c 0,42,43
 -582 1443 -582 1443 -582 1395 c 0,44,45
 -582 1380 -582 1380 -578 1367 c 1,46,-1
 -217 1367 l 2,0,1
EndSplineSet
Validated: 1
EndChar

StartChar: uni035C
Encoding: 860 860 100
Width: 0
Flags: MW
LayerCount: 2
Fore
SplineSet
-211 -457 m 1,0,1
 -373 -449 -373 -449 -459 -334 c 1,2,3
 -519 -249 -519 -249 -524 -139 c 1,4,-1
 -524 -137 l 2,5,6
 -524 -93 -524 -93 -473 -93 c 0,7,8
 -430 -93 -430 -93 -421 -136 c 1,9,10
 -384 -277 -384 -277 -211 -286 c 1,11,-1
 236 -286 l 1,12,13
 413 -282 413 -282 451 -135 c 0,14,15
 462 -93 462 -93 502 -93 c 0,16,17
 554 -93 554 -93 554 -137 c 2,18,-1
 554 -139 l 1,19,20
 547 -253 547 -253 488 -334 c 0,21,22
 402 -452 402 -452 235 -457 c 1,23,-1
 -211 -457 l 1,0,1
EndSplineSet
Validated: 1
EndChar

StartChar: uni035E
Encoding: 862 862 101
Width: 0
Flags: MW
LayerCount: 2
Fore
SplineSet
-517 1367 m 2,0,-1
 503 1367 l 2,1,2
 518 1367 518 1367 527 1356 c 0,3,4
 533 1348 533 1348 533 1337 c 2,5,-1
 533 1251 l 2,6,7
 533 1240 533 1240 527 1232 c 0,8,9
 519 1220 519 1220 503 1220 c 2,10,-1
 -517 1220 l 2,11,12
 -533 1220 -533 1220 -541 1231 c 0,13,14
 -548 1239 -548 1239 -548 1251 c 2,15,-1
 -548 1337 l 2,16,17
 -548 1353 -548 1353 -536 1361 c 0,18,19
 -528 1367 -528 1367 -517 1367 c 2,0,-1
EndSplineSet
Validated: 1
EndChar

StartChar: uni035F
Encoding: 863 863 102
Width: 0
Flags: MW
LayerCount: 2
Fore
SplineSet
-517 -201 m 2,0,-1
 503 -201 l 2,1,2
 519 -201 519 -201 527 -213 c 0,3,4
 533 -221 533 -221 533 -232 c 2,5,-1
 533 -318 l 2,6,7
 533 -333 533 -333 522 -342 c 0,8,9
 514 -348 514 -348 503 -348 c 2,10,-1
 -517 -348 l 2,11,12
 -528 -348 -528 -348 -536 -342 c 0,13,14
 -548 -334 -548 -334 -548 -318 c 2,15,-1
 -548 -232 l 2,16,17
 -548 -216 -548 -216 -537 -208 c 0,18,19
 -529 -201 -529 -201 -517 -201 c 2,0,-1
EndSplineSet
Validated: 1
EndChar

StartChar: uni0362
Encoding: 866 866 103
Width: 0
Flags: MW
LayerCount: 2
Fore
SplineSet
-556 -361 m 1,0,-1
 -556 -238 l 1,1,-1
 428 -238 l 1,2,-1
 394 -131 l 1,3,-1
 624 -300 l 1,4,-1
 394 -467 l 1,5,-1
 428 -361 l 1,6,-1
 -556 -361 l 1,0,-1
EndSplineSet
Validated: 1
EndChar

StartChar: uni16A0
Encoding: 5792 5792 104
Width: 1000
Flags: MW
LayerCount: 2
Fore
SplineSet
932 630 m 2,0,1
 938 633 938 633 944 633.5 c 128,-1,2
 950 634 950 634 956 627.5 c 128,-1,3
 962 621 962 621 962 613 c 2,4,-1
 962 488 l 2,5,6
 962 477 962 477 952 471 c 2,7,-1
 369 117 l 1,8,-1
 369 -409 l 2,9,10
 369 -417 369 -417 363 -423 c 128,-1,11
 357 -429 357 -429 349 -429 c 2,12,-1
 208 -429 l 2,13,14
 200 -429 200 -429 194 -423 c 128,-1,15
 188 -417 188 -417 188 -409 c 2,16,-1
 188 1405 l 2,17,18
 188 1413 188 1413 194 1419 c 128,-1,19
 200 1425 200 1425 208 1425 c 2,20,-1
 349 1425 l 2,21,22
 357 1425 357 1425 363 1419 c 128,-1,23
 369 1413 369 1413 369 1405 c 2,24,-1
 369 782 l 1,25,-1
 932 1123 l 2,26,27
 938 1126 938 1126 944 1126.5 c 128,-1,28
 950 1127 950 1127 956 1120.5 c 128,-1,29
 962 1114 962 1114 962 1106 c 2,30,-1
 962 981 l 2,31,32
 962 970 962 970 952 964 c 2,33,-1
 369 610 l 1,34,-1
 369 289 l 1,35,-1
 932 630 l 2,0,1
EndSplineSet
Validated: 1
EndChar

StartChar: uni16A2
Encoding: 5794 5794 105
Width: 1489
Flags: MW
LayerCount: 2
Fore
SplineSet
349 -429 m 2,0,-1
 208 -429 l 2,1,2
 200 -429 200 -429 194 -423 c 128,-1,3
 188 -417 188 -417 188 -409 c 2,4,-1
 188 1404 l 2,5,6
 188 1412 188 1412 194 1418 c 128,-1,7
 200 1424 200 1424 208 1424 c 2,8,-1
 349 1424 l 2,9,10
 360 1424 360 1424 366 1414 c 2,11,-1
 1427 -399 l 2,12,13
 1430 -405 1430 -405 1430.5 -411 c 128,-1,14
 1431 -417 1431 -417 1424.5 -423 c 128,-1,15
 1418 -429 1418 -429 1410 -429 c 2,16,-1
 1269 -429 l 2,17,18
 1258 -429 1258 -429 1252 -419 c 2,19,-1
 370 1088 l 1,20,-1
 369 -409 l 2,21,22
 369 -417 369 -417 363 -423 c 128,-1,23
 357 -429 357 -429 349 -429 c 2,0,-1
EndSplineSet
Validated: 1
EndChar

StartChar: uni16A6
Encoding: 5798 5798 106
Width: 1033
Flags: MW
LayerCount: 2
Fore
SplineSet
369 687 m 1,0,-1
 369 250 l 1,1,-1
 807 470 l 1,2,-1
 369 687 l 1,0,-1
348 -429 m 2,3,-1
 208 -429 l 2,4,5
 200 -429 200 -429 194 -423 c 128,-1,6
 188 -417 188 -417 188 -409 c 2,7,-1
 188 1405 l 2,8,9
 188 1413 188 1413 194 1419 c 128,-1,10
 200 1425 200 1425 208 1425 c 2,11,-1
 349 1425 l 2,12,13
 357 1425 357 1425 363 1419 c 128,-1,14
 369 1413 369 1413 369 1405 c 2,15,-1
 369 848 l 1,16,-1
 974 542 l 2,17,18
 977 541 977 541 979 538 c 0,19,20
 985 532 985 532 985 524 c 2,21,-1
 985 416 l 2,22,23
 985 408 985 408 979 402 c 0,24,25
 977 400 977 400 974 398 c 2,26,-1
 368 87 l 1,27,-1
 368 -409 l 2,28,29
 368 -417 368 -417 362 -423 c 128,-1,30
 356 -429 356 -429 348 -429 c 2,3,-1
EndSplineSet
Validated: 1
EndChar

StartChar: uni16D8
Encoding: 5848 5848 107
Width: 1324
Flags: MW
LayerCount: 2
Fore
SplineSet
644 1405 m 2,0,1
 644 1413 644 1413 650 1419 c 128,-1,2
 656 1425 656 1425 664 1425 c 2,3,-1
 805 1425 l 2,4,5
 813 1425 813 1425 819 1419 c 128,-1,6
 825 1413 825 1413 825 1405 c 2,7,-1
 825 806 l 1,8,9
 941 828 941 828 1009 896 c 0,10,11
 1113 1000 1113 1000 1113 1214 c 2,12,-1
 1113 1405 l 2,13,14
 1113 1413 1113 1413 1119 1419 c 128,-1,15
 1125 1425 1125 1425 1133 1425 c 2,16,-1
 1262 1425 l 2,17,18
 1270 1425 1270 1425 1276 1419 c 128,-1,19
 1282 1413 1282 1413 1282 1405 c 2,20,-1
 1282 1214 l 2,21,22
 1282 944 1282 944 1140 801 c 0,23,24
 1027 688 1027 688 825 659 c 1,25,-1
 825 -410 l 2,26,27
 825 -418 825 -418 819 -424 c 128,-1,28
 813 -430 813 -430 805 -430 c 2,29,-1
 664 -430 l 2,30,31
 656 -430 656 -430 650 -424 c 128,-1,32
 644 -418 644 -418 644 -410 c 2,33,-1
 644 659 l 1,34,35
 443 690 443 690 330 802 c 0,36,37
 188 945 188 945 188 1214 c 2,38,-1
 188 1405 l 2,39,40
 188 1413 188 1413 194 1419 c 128,-1,41
 200 1425 200 1425 208 1425 c 2,42,-1
 337 1425 l 2,43,44
 345 1425 345 1425 351 1419 c 128,-1,45
 357 1413 357 1413 357 1405 c 2,46,-1
 357 1214 l 2,47,48
 357 1001 357 1001 461 897 c 0,49,50
 529 829 529 829 644 807 c 1,51,-1
 644 1405 l 2,0,1
EndSplineSet
Validated: 1
EndChar

StartChar: uni16EB
Encoding: 5867 5867 108
Width: 600
Flags: MW
LayerCount: 2
Fore
SplineSet
435.5 335.5 m 128,-1,1
 380 280 380 280 303 280 c 0,2,3
 225 280 225 280 170 335.5 c 128,-1,4
 115 391 115 391 115 468 c 0,5,6
 115 546 115 546 170.5 601.5 c 128,-1,7
 226 657 226 657 303 657 c 0,8,9
 381 657 381 657 436 601 c 128,-1,10
 491 545 491 545 491 468 c 128,-1,0
 491 391 491 391 435.5 335.5 c 128,-1,1
EndSplineSet
Validated: 1
EndChar

StartChar: uni1D00
Encoding: 7424 7424 109
Width: 1127
Flags: MW
LayerCount: 2
Fore
SplineSet
93 46 m 0,0,1
 101 52 101 52 138 72 c 1,2,3
 158 85 158 85 166 104 c 2,4,-1
 552 976 l 1,5,-1
 670 976 l 1,6,7
 855 547 855 547 861 532 c 0,8,9
 1008 198 1008 198 1046 104 c 0,10,11
 1055 82 1055 82 1073 71 c 128,-1,12
 1091 60 1091 60 1107 52.5 c 128,-1,13
 1123 45 1123 45 1133.5 37.5 c 128,-1,14
 1144 30 1144 30 1148 22.5 c 128,-1,15
 1152 15 1152 15 1152 9 c 0,16,17
 1152 2 1152 2 1149 -5 c 1,18,19
 1137 -20 1137 -20 1118 -20 c 2,20,-1
 828 -20 l 2,21,22
 813 -20 813 -20 800 -12.5 c 128,-1,23
 787 -5 787 -5 784 5 c 128,-1,24
 781 15 781 15 781 24 c 256,25,26
 781 33 781 33 798.5 47.5 c 128,-1,27
 816 62 816 62 817.5 65.5 c 128,-1,28
 819 69 819 69 819 75 c 256,29,30
 819 81 819 81 815 92 c 2,31,-1
 722 308 l 1,32,-1
 388 308 l 1,33,34
 370 264 370 264 346 206.5 c 128,-1,35
 322 149 322 149 307 114 c 0,36,37
 295 88 295 88 292 74 c 1,38,-1
 292 71 l 2,39,40
 292 61 292 61 304 37 c 0,41,42
 308 28 308 28 308 21 c 0,43,44
 308 13 308 13 307 10.5 c 128,-1,45
 306 8 306 8 299.5 -6 c 128,-1,46
 293 -20 293 -20 267 -20 c 2,47,-1
 85 -20 l 1,48,49
 65 -6 65 -6 65 9 c 0,50,51
 65 27 65 27 93 46 c 0,0,1
675 416 m 1,52,-1
 553 704 l 1,53,-1
 433 416 l 1,54,-1
 675 416 l 1,52,-1
EndSplineSet
Validated: 1
EndChar

StartChar: uni1D01
Encoding: 7425 7425 110
Width: 1438
Flags: MW
LayerCount: 2
Fore
SplineSet
680 -20 m 2,0,1
 634 -20 634 -20 634 21 c 0,2,3
 634 59 634 59 684 76.5 c 128,-1,4
 734 94 734 94 734 146 c 2,5,-1
 734 308 l 1,6,-1
 411 308 l 1,7,8
 381 261 381 261 343.5 203.5 c 128,-1,9
 306 146 306 146 270 89 c 0,10,11
 263 78 263 78 259 68 c 0,12,13
 256 61 256 61 256 57 c 1,14,-1
 257 56 l 1,15,16
 257 47 257 47 259.5 42 c 128,-1,17
 262 37 262 37 264 27 c 1,18,19
 264 17 264 17 263 15 c 0,20,21
 263 14 263 14 259 6 c 1,22,23
 242 -20 242 -20 218 -20 c 2,24,-1
 45 -20 l 2,25,26
 17 -20 17 -20 11 2 c 1,27,-1
 11 7 l 2,28,29
 11 13 11 13 16 22 c 0,30,31
 23 36 23 36 53 49 c 0,32,33
 64 54 64 54 77 59 c 128,-1,34
 90 64 90 64 102 72 c 0,35,36
 126 86 126 86 140 107 c 2,37,-1
 657 874 l 1,38,39
 634 888 634 888 634 911 c 0,40,41
 634 951 634 951 680 951 c 2,42,-1
 1368 951 l 1,43,-1
 1368 738 l 2,44,45
 1368 702 1368 702 1330 697 c 1,46,-1
 1326 697 l 2,47,48
 1299 697 1299 697 1265 743 c 1,49,50
 1232 790 1232 790 1220 809 c 128,-1,51
 1208 828 1208 828 1184 828 c 2,52,-1
 958 828 l 1,53,-1
 958 529 l 1,54,-1
 1052 529 l 2,55,56
 1067 529 1067 529 1080 545 c 2,57,-1
 1125 598 l 1,58,59
 1177 598 1177 598 1177 564 c 2,60,-1
 1177 374 l 2,61,62
 1177 340 1177 340 1138 340 c 0,63,64
 1108 340 1108 340 1098.5 362.5 c 128,-1,65
 1089 385 1089 385 1077 397 c 0,66,67
 1065 408 1065 408 1052 408 c 2,68,-1
 958 408 l 1,69,-1
 958 98 l 1,70,-1
 1185 98 l 2,71,72
 1233 98 1233 98 1262 133 c 128,-1,73
 1291 168 1291 168 1313 195 c 0,74,75
 1318 201 1318 201 1327 212 c 0,76,77
 1342 232 1342 232 1365 232 c 2,78,-1
 1368 232 l 1,79,80
 1413 228 1413 228 1413 187 c 0,81,82
 1413 178 1413 178 1411 167 c 1,83,-1
 1357 -20 l 1,84,-1
 680 -20 l 2,0,1
483 416 m 1,85,-1
 734 416 l 1,86,-1
 734 785 l 1,87,-1
 483 416 l 1,85,-1
EndSplineSet
Validated: 1
EndChar

StartChar: uni1D04
Encoding: 7428 7428 111
Width: 966
Flags: MW
LayerCount: 2
Fore
SplineSet
616 -49 m 0,0,1
 400 -49 400 -49 233.5 87 c 128,-1,2
 67 223 67 223 67 462 c 0,3,4
 67 694 67 694 228.5 835 c 128,-1,5
 390 976 390 976 616 976 c 0,6,7
 696 976 696 976 786.5 958.5 c 128,-1,8
 877 941 877 941 971 882 c 1,9,-1
 954 731 l 1,10,11
 949 701 949 701 916 701 c 2,12,-1
 911 701 l 1,13,14
 886 704 886 704 872 733 c 0,15,16
 821 842 821 842 692 858 c 0,17,18
 665 862 665 862 640 862 c 0,19,20
 541 862 541 862 467 810 c 0,21,22
 300 695 300 695 300 462 c 0,23,24
 300 292 300 292 419 174 c 0,25,26
 515 79 515 79 667 70 c 0,27,28
 676 69 676 69 685 69 c 0,29,30
 814 69 814 69 873 194 c 0,31,32
 885 221 885 221 910 226 c 1,33,-1
 915 226 l 2,34,35
 949 226 949 226 954 196 c 1,36,-1
 956 176 l 1,37,-1
 893 2 l 1,38,39
 816 -30 816 -30 747 -39.5 c 128,-1,40
 678 -49 678 -49 616 -49 c 0,0,1
EndSplineSet
Validated: 1
EndChar

StartChar: uni1D05
Encoding: 7429 7429 112
Width: 1117
Flags: MW
LayerCount: 2
Fore
SplineSet
266 -24 m 1,0,-1
 185 -24 l 2,1,2
 161 -24 161 -24 118 -29 c 1,3,4
 77 -29 77 -29 77 4 c 0,5,6
 77 36 77 36 110.5 48 c 128,-1,7
 144 60 144 60 144 90 c 2,8,-1
 144 845 l 2,9,10
 144 875 144 875 110.5 886.5 c 128,-1,11
 77 898 77 898 77 931 c 0,12,13
 77 963 77 963 116 963 c 2,14,-1
 162 963 l 2,15,16
 196 963 196 963 241.5 964 c 128,-1,17
 287 965 287 965 344 966 c 1,18,-1
 400 966 l 2,19,20
 500 966 500 966 631 960 c 128,-1,21
 762 954 762 954 863.5 909.5 c 128,-1,22
 965 865 965 865 1030 776 c 1,23,24
 1098 680 1098 680 1105 530 c 0,25,26
 1106 508 1106 508 1106 487 c 0,27,28
 1106 372 1106 372 1058.5 270 c 128,-1,29
 1011 168 1011 168 925.5 101.5 c 128,-1,30
 840 35 840 35 720 4.5 c 128,-1,31
 600 -26 600 -26 492 -28 c 1,32,33
 379 -26 379 -26 266 -24 c 1,0,-1
477 90 m 0,34,35
 594 90 594 90 683 137.5 c 128,-1,36
 772 185 772 185 821.5 268 c 128,-1,37
 871 351 871 351 871 492 c 2,38,-1
 871 514 l 1,39,40
 868 618 868 618 834.5 677 c 128,-1,41
 801 736 801 736 733 787 c 128,-1,42
 665 838 665 838 570 848 c 0,43,44
 536 852 536 852 482 852 c 0,45,46
 427 852 427 852 365 842 c 1,47,-1
 365 100 l 1,48,49
 415 90 415 90 477 90 c 0,34,35
EndSplineSet
Validated: 1
EndChar

StartChar: uni1D07
Encoding: 7431 7431 113
Width: 842
Flags: MW
LayerCount: 2
Fore
SplineSet
90 -20 m 2,0,1
 44 -20 44 -20 44 21 c 0,2,3
 44 59 44 59 94 76.5 c 128,-1,4
 144 94 144 94 144 146 c 2,5,-1
 144 834 l 2,6,7
 144 863 144 863 111 875 c 128,-1,8
 78 887 78 887 78 917 c 0,9,10
 78 951 78 951 117 951 c 2,11,-1
 779 951 l 1,12,-1
 779 740 l 2,13,14
 779 702 779 702 740 697 c 1,15,-1
 736 697 l 2,16,17
 709 697 709 697 675 743 c 1,18,19
 642 790 642 790 630 809 c 128,-1,20
 618 828 618 828 594 828 c 2,21,-1
 368 828 l 1,22,-1
 368 529 l 1,23,-1
 462 529 l 2,24,25
 477 529 477 529 490 545 c 2,26,-1
 535 598 l 1,27,28
 587 598 587 598 587 564 c 2,29,-1
 587 374 l 2,30,31
 587 340 587 340 548 340 c 0,32,33
 520 340 520 340 509.5 362.5 c 128,-1,34
 499 385 499 385 488 396 c 0,35,36
 476 408 476 408 462 408 c 2,37,-1
 368 408 l 1,38,-1
 368 98 l 1,39,-1
 595 98 l 2,40,41
 643 98 643 98 672 133 c 128,-1,42
 701 168 701 168 723 194 c 1,43,44
 751 232 751 232 776 232 c 2,45,-1
 778 232 l 1,46,47
 824 228 824 228 824 189 c 0,48,49
 824 179 824 179 820 167 c 2,50,-1
 768 -20 l 1,51,-1
 90 -20 l 2,0,1
EndSplineSet
Validated: 1
EndChar

StartChar: uni1D0A
Encoding: 7434 7434 114
Width: 601
Flags: MW
LayerCount: 2
Fore
SplineSet
421 771 m 0,0,1
 421 477 421 477 421 189 c 0,2,3
 421 -3 421 -3 397 -99 c 0,4,5
 373 -199 373 -199 304 -271 c 0,6,7
 209 -368 209 -368 92 -398 c 1,8,9
 79 -381 79 -381 67 -405 c 1,10,11
 67 -341 67 -341 67 -318 c 1,12,13
 72 -295 72 -295 77 -312 c 1,14,15
 165 -259 165 -259 195 -163 c 0,16,17
 206 -125 206 -125 206 -54 c 0,18,19
 206 56 206 56 207 184 c 0,20,21
 207 476 207 476 207 771 c 0,22,23
 207 794 207 794 199 809.5 c 128,-1,24
 191 825 191 825 170 832 c 0,25,26
 107 854 107 854 107 892 c 0,27,28
 107 912 107 912 121 923 c 0,29,30
 132 931 132 931 148 931 c 2,31,-1
 481 931 l 2,32,33
 497 931 497 931 508 923 c 0,34,35
 522 912 522 912 522 892 c 0,36,37
 522 853 522 853 458 832 c 0,38,39
 437 825 437 825 429 809.5 c 128,-1,40
 421 794 421 794 421 771 c 0,0,1
EndSplineSet
Validated: 1
EndChar

StartChar: uni1D0D
Encoding: 7437 7437 115
Width: 1401
Flags: MW
LayerCount: 2
Fore
SplineSet
329 636 m 1,0,-1
 329 146 l 2,1,2
 329 94 329 94 379 76.5 c 128,-1,3
 429 59 429 59 429 21 c 0,4,5
 429 -20 429 -20 384 -20 c 2,6,-1
 129 -20 l 2,7,8
 83 -20 83 -20 83 21 c 0,9,10
 83 59 83 59 133 76.5 c 128,-1,11
 183 94 183 94 183 146 c 2,12,-1
 183 785 l 2,13,14
 183 836 183 836 133 854 c 128,-1,15
 83 872 83 872 83 911 c 0,16,17
 83 951 83 951 129 951 c 2,18,-1
 411 951 l 1,19,-1
 739 279 l 1,20,-1
 1057 951 l 1,21,-1
 1339 951 l 2,22,23
 1385 951 1385 951 1385 911 c 0,24,25
 1385 872 1385 872 1335 854 c 128,-1,26
 1285 836 1285 836 1285 785 c 2,27,-1
 1285 146 l 2,28,29
 1285 94 1285 94 1335 76.5 c 128,-1,30
 1385 59 1385 59 1385 21 c 0,31,32
 1385 -20 1385 -20 1339 -20 c 2,33,-1
 1006 -20 l 2,34,35
 961 -20 961 -20 961 21 c 0,36,37
 961 59 961 59 1011 76.5 c 128,-1,38
 1061 94 1061 94 1061 146 c 2,39,-1
 1061 648 l 1,40,-1
 737 -50 l 1,41,-1
 656 -50 l 1,42,-1
 329 636 l 1,0,-1
EndSplineSet
Validated: 1
EndChar

StartChar: uni1D0F
Encoding: 7439 7439 116
Width: 1130
Flags: MW
LayerCount: 2
Fore
SplineSet
581 976 m 1,0,-1
 591 976 l 2,1,2
 815 976 815 976 970 839 c 0,3,4
 1114 711 1114 711 1114 503 c 0,5,6
 1114 484 1114 484 1113 464 c 0,7,8
 1099 229 1099 229 947 98.5 c 128,-1,9
 795 -32 795 -32 582 -45 c 0,10,11
 567 -46 567 -46 552 -46 c 0,12,13
 353 -46 353 -46 202 89 c 1,14,15
 49 223 49 223 49 441 c 2,16,-1
 49 465 l 1,17,18
 57 698 57 698 202.5 835.5 c 128,-1,19
 348 973 348 973 581 976 c 1,0,-1
581 838 m 0,20,21
 410 838 410 838 341 729.5 c 128,-1,22
 272 621 272 621 272 464 c 0,23,24
 272 306 272 306 359 198 c 128,-1,25
 446 90 446 90 581 89 c 1,26,-1
 583 89 l 2,27,28
 715 89 715 89 801 201 c 1,29,30
 890 319 890 319 890 464 c 1,31,32
 888 608 888 608 815.5 723 c 128,-1,33
 743 838 743 838 581 838 c 0,20,21
EndSplineSet
Validated: 1
EndChar

StartChar: uni1D18
Encoding: 7448 7448 117
Width: 934
Flags: MW
LayerCount: 2
Fore
SplineSet
457 146 m 2,0,1
 457 94 457 94 507 76.5 c 128,-1,2
 557 59 557 59 557 21 c 0,3,4
 557 -20 557 -20 511 -20 c 2,5,-1
 180 -20 l 2,6,7
 134 -20 134 -20 134 21 c 0,8,9
 134 59 134 59 183 76.5 c 128,-1,10
 232 94 232 94 232 146 c 2,11,-1
 234 784 l 2,12,13
 234 835 234 835 184 853 c 128,-1,14
 134 871 134 871 134 910 c 0,15,16
 134 951 134 951 180 951 c 2,17,-1
 581 951 l 2,18,19
 917 951 917 951 928 711 c 1,20,-1
 928 690 l 2,21,22
 928 416 928 416 616 416 c 2,23,-1
 457 416 l 1,24,-1
 457 146 l 2,0,1
457 850 m 1,25,-1
 457 516 l 1,26,-1
 481 516 l 2,27,28
 602 516 602 516 677 557 c 0,29,30
 739 590 739 590 739 702 c 0,31,32
 739 715 739 715 738 729 c 0,33,34
 733 809 733 809 664 829.5 c 128,-1,35
 595 850 595 850 532 850 c 2,36,-1
 457 850 l 1,25,-1
EndSplineSet
Validated: 1
EndChar

StartChar: uni1D1B
Encoding: 7451 7451 118
Width: 960
Flags: MW
LayerCount: 2
Fore
SplineSet
919 839 m 0,0,1
 919 758 919 758 919 717 c 0,2,3
 919 705 919 705 914 697 c 0,4,5
 906 683 906 683 889 683 c 0,6,7
 877 683 877 683 864.5 694 c 128,-1,8
 852 705 852 705 832 733 c 128,-1,9
 812 761 812 761 788 786 c 0,10,11
 769 805 769 805 738 805 c 2,12,-1
 611 805 l 1,13,14
 611 478 611 478 611 159 c 0,15,16
 611 136 611 136 620.5 120.5 c 128,-1,17
 630 105 630 105 652 98 c 0,18,19
 718 77 718 77 718 42 c 0,20,21
 718 26 718 26 710 15 c 0,22,23
 699 0 699 0 677 0 c 2,24,-1
 305 0 l 2,25,26
 283 0 283 0 272 15 c 0,27,28
 264 25 264 25 264 40.5 c 128,-1,29
 264 56 264 56 274 67 c 0,30,31
 289 85 289 85 330 98 c 0,32,33
 353 105 353 105 362 120.5 c 128,-1,34
 371 136 371 136 371 159 c 0,35,36
 371 479 371 479 371 805 c 1,37,-1
 245 805 l 2,38,39
 213 805 213 805 195 786 c 0,40,41
 172 761 172 761 151 733 c 128,-1,42
 130 705 130 705 121.5 697.5 c 128,-1,43
 113 690 113 690 106.5 686.5 c 128,-1,44
 100 683 100 683 93.5 683 c 128,-1,45
 87 683 87 683 80 686.5 c 128,-1,46
 73 690 73 690 68.5 698 c 128,-1,47
 64 706 64 706 64 717 c 0,48,49
 64 758 64 758 64 839 c 0,50,51
 64 881 64 881 79 904 c 0,52,53
 97 931 97 931 159 931 c 2,54,-1
 823 931 l 2,55,56
 857 931 857 931 877 924.5 c 128,-1,57
 897 918 897 918 906 904 c 0,58,59
 919 883 919 883 919 839 c 0,0,1
EndSplineSet
Validated: 1
EndChar

StartChar: uni1D1C
Encoding: 7452 7452 119
Width: 1123
Flags: MW
LayerCount: 2
Fore
SplineSet
873 784 m 2,0,1
 873 836 873 836 823.5 854 c 128,-1,2
 774 872 774 872 774 910 c 0,3,4
 774 951 774 951 819 951 c 2,5,-1
 1074 951 l 2,6,7
 1120 951 1120 951 1120 910 c 0,8,9
 1120 872 1120 872 1070 854 c 128,-1,10
 1020 836 1020 836 1020 785 c 2,11,-1
 1020 390 l 2,12,13
 1020 177 1020 177 931 72 c 0,14,15
 831 -45 831 -45 613 -45 c 0,16,17
 345 -45 345 -45 240 66 c 1,18,19
 144 164 144 164 144 390 c 2,20,-1
 144 787 l 2,21,22
 144 837 144 837 94 855 c 128,-1,23
 44 873 44 873 44 911 c 0,24,25
 44 951 44 951 90 951 c 2,26,-1
 423 951 l 2,27,28
 468 951 468 951 468 911 c 0,29,30
 468 873 468 873 418 855 c 128,-1,31
 368 837 368 837 368 787 c 2,32,-1
 368 472 l 2,33,34
 368 372 368 372 374.5 295.5 c 128,-1,35
 381 219 381 219 408 168 c 1,36,37
 432 120 432 120 475 99 c 128,-1,38
 518 78 518 78 613 78 c 0,39,40
 772 78 772 78 830 202 c 0,41,42
 873 293 873 293 873 478 c 2,43,-1
 873 784 l 2,0,1
EndSplineSet
Validated: 1
EndChar

StartChar: uni1D20
Encoding: 7456 7456 120
Width: 1096
Flags: MW
LayerCount: 2
Fore
SplineSet
416 796 m 2,0,-1
 655 232 l 1,1,-1
 893 672 l 1,2,3
 903 694 903 694 903 711 c 0,4,5
 903 725 903 725 898 734 c 0,6,7
 879 763 879 763 839 810 c 2,8,-1
 779 882 l 1,9,-1
 917 987 l 1,10,11
 932 1000 932 1000 952 1000 c 0,12,13
 973 1000 973 1000 994 983 c 1,14,-1
 1077 898 l 1,15,16
 1108 864 1108 864 1108 819 c 0,17,18
 1108 795 1108 795 1099 767 c 0,19,20
 1075 695 1075 695 1027 598 c 1,21,-1
 728 25 l 1,22,23
 719 5 719 5 707 -8 c 1,24,25
 691 -20 691 -20 673 -20 c 2,26,-1
 564 -20 l 2,27,28
 539 -20 539 -20 529 -4 c 1,29,30
 523 0 523 0 514.5 23 c 128,-1,31
 506 46 506 46 503 54 c 2,32,-1
 248 631 l 1,33,34
 216 715 216 715 190 779 c 1,35,36
 173 814 173 814 140 836 c 0,37,38
 118 850 118 850 95 859.5 c 128,-1,39
 72 869 72 869 57 880 c 1,40,41
 41 889 41 889 36 905 c 0,42,43
 33 912 33 912 33 918 c 0,44,45
 33 927 33 927 37 933 c 0,46,47
 46 951 46 951 71 951 c 2,48,-1
 410 951 l 2,49,50
 428 951 428 951 445 939 c 1,51,52
 459 927 459 927 464 916 c 1,53,54
 466 909 466 909 466 905 c 0,55,56
 466 888 466 888 449 872 c 0,57,58
 438 863 438 863 427.5 854 c 128,-1,59
 417 845 417 845 413 833 c 0,60,61
 410 826 410 826 410 819 c 0,62,63
 410 808 410 808 416 796 c 2,0,-1
EndSplineSet
Validated: 1
EndChar

StartChar: uni1D21
Encoding: 7457 7457 121
Width: 1677
Flags: MW
LayerCount: 2
Fore
SplineSet
852 598 m 1,0,-1
 838 631 l 1,1,2
 806 715 806 715 781 778 c 1,3,4
 761 815 761 815 729 836 c 0,5,6
 708 850 708 850 685 859.5 c 128,-1,7
 662 869 662 869 647 880 c 1,8,9
 631 889 631 889 627 902 c 1,10,11
 622 909 622 909 622 919 c 0,12,13
 622 927 622 927 626 933 c 0,14,15
 635 951 635 951 661 951 c 2,16,-1
 1000 951 l 2,17,18
 1019 951 1019 951 1034 940 c 256,19,20
 1049 929 1049 929 1054 915 c 0,21,22
 1056 909 1056 909 1056 905 c 0,23,24
 1056 888 1056 888 1039 872 c 0,25,26
 1028 863 1028 863 1017.5 854 c 128,-1,27
 1007 845 1007 845 1003 833 c 0,28,29
 1000 826 1000 826 1000 819 c 0,30,31
 1000 808 1000 808 1006 796 c 2,32,-1
 1245 232 l 1,33,-1
 1483 672 l 1,34,35
 1493 694 1493 694 1493 711 c 0,36,37
 1493 725 1493 725 1488 734 c 0,38,39
 1469 763 1469 763 1429 810 c 2,40,-1
 1369 882 l 1,41,-1
 1507 987 l 1,42,43
 1522 1000 1522 1000 1542 1000 c 0,44,45
 1563 1000 1563 1000 1584 983 c 1,46,-1
 1664 900 l 2,47,48
 1698 865 1698 865 1698 819 c 0,49,50
 1698 795 1698 795 1689 767 c 0,51,52
 1665 695 1665 695 1617 598 c 1,53,-1
 1317 26 l 1,54,55
 1311 10 1311 10 1299 -7 c 1,56,57
 1281 -20 1281 -20 1263 -20 c 2,58,-1
 1154 -20 l 2,59,60
 1129 -20 1129 -20 1119 -4 c 1,61,62
 1113 0 1113 0 1104.5 23 c 128,-1,63
 1096 46 1096 46 1093 54 c 2,64,-1
 932 418 l 1,65,-1
 728 25 l 1,66,67
 719 5 719 5 707 -8 c 1,68,69
 691 -20 691 -20 673 -20 c 2,70,-1
 564 -20 l 2,71,72
 539 -20 539 -20 529 -4 c 1,73,74
 523 0 523 0 514.5 23 c 128,-1,75
 506 46 506 46 503 54 c 2,76,-1
 248 631 l 1,77,78
 216 715 216 715 190 779 c 1,79,80
 173 814 173 814 140 836 c 0,81,82
 118 850 118 850 95 859.5 c 128,-1,83
 72 869 72 869 57 880 c 1,84,85
 41 889 41 889 36 905 c 0,86,87
 33 912 33 912 33 918 c 0,88,89
 33 927 33 927 37 933 c 0,90,91
 46 951 46 951 71 951 c 2,92,-1
 410 951 l 2,93,94
 428 951 428 951 445 939 c 1,95,96
 459 927 459 927 464 916 c 1,97,98
 466 909 466 909 466 905 c 0,99,100
 466 888 466 888 449 872 c 0,101,102
 438 863 438 863 427.5 854 c 128,-1,103
 417 845 417 845 413 833 c 0,104,105
 410 826 410 826 410 819 c 0,106,107
 410 808 410 808 416 796 c 2,108,-1
 655 232 l 1,109,-1
 852 598 l 1,0,-1
EndSplineSet
Validated: 1
EndChar

StartChar: uni1D22
Encoding: 7458 7458 122
Width: 966
Flags: MW
LayerCount: 2
Fore
SplineSet
52 71 m 2,0,-1
 621 807 l 1,1,-1
 353 806 l 2,2,3
 305 806 305 806 272 772.5 c 128,-1,4
 239 739 239 739 190 671 c 1,5,6
 153 622 153 622 131 622 c 0,7,8
 85 622 85 622 85 663 c 2,9,-1
 85 847 l 2,10,11
 85 911 85 911 112.5 928 c 128,-1,12
 140 945 140 945 224 945 c 2,13,-1
 852 945 l 2,14,15
 942 945 942 945 942 889 c 2,16,-1
 942 886 l 2,17,18
 942 858 942 858 924 837 c 2,19,-1
 345 118 l 1,20,-1
 702 119 l 2,21,22
 750 119 750 119 782 152 c 128,-1,23
 814 185 814 185 865 254 c 0,24,25
 902 303 902 303 924 303 c 0,26,27
 970 303 970 303 970 262 c 2,28,-1
 970 77 l 2,29,30
 970 9 970 9 946 -5.5 c 128,-1,31
 922 -20 922 -20 831 -20 c 2,32,-1
 182 -20 l 2,33,34
 93 -20 93 -20 61 -10 c 0,35,36
 30 -1 30 -1 30 25 c 0,37,38
 30 44 30 44 52 71 c 2,0,-1
EndSplineSet
Validated: 1
EndChar

StartChar: uni1E6B
Encoding: 7787 7787 123
Width: 646
Flags: MW
LayerCount: 2
Fore
SplineSet
339 1631 m 0,0,1
 443 1631 443 1631 443 1430 c 0,2,3
 443 1109 443 1109 339 1109 c 0,4,5
 234 1109 234 1109 234 1430 c 0,6,7
 234 1631 234 1631 339 1631 c 0,0,1
419 827 m 1,8,-1
 418 220 l 2,9,10
 418 140 418 140 482 108.5 c 128,-1,11
 546 77 546 77 608 70 c 1,12,-1
 608 -20 l 1,13,-1
 444 -20 l 1,14,15
 403 -18 403 -18 356 -12 c 128,-1,16
 309 -6 309 -6 262 33 c 0,17,18
 204 82 204 82 202 219 c 0,19,20
 201 283 201 283 201 339 c 0,21,22
 201 377 201 377 202 444 c 2,23,-1
 208 824 l 1,24,25
 194 823 194 823 119 820 c 1,26,-1
 113 820 l 2,27,28
 70 820 70 820 68 860 c 1,29,-1
 68 862 l 2,30,31
 68 889 68 889 100 904 c 0,32,33
 119 913 119 913 181 947 c 0,34,35
 206 960 206 960 225 965 c 1,36,-1
 651 973 l 1,37,-1
 652 973 l 2,38,39
 692 973 692 973 692 927 c 0,40,41
 692 912 692 912 688 890 c 0,42,43
 674 826 674 826 618 826 c 2,44,-1
 419 827 l 1,8,-1
EndSplineSet
Validated: 1
EndChar

StartChar: uni2010
Encoding: 8208 8208 135
Width: 827
Flags: MW
LayerCount: 2
Fore
SplineSet
80 416 m 1,0,-1
 80 575 l 1,1,-1
 738 575 l 1,2,-1
 738 416 l 1,3,-1
 80 416 l 1,0,-1
EndSplineSet
Validated: 1
EndChar

StartChar: uni2016
Encoding: 8214 8214 136
Width: 1241
Flags: MW
LayerCount: 2
Fore
SplineSet
677 1510 m 1,0,-1
 858 1510 l 1,1,-1
 858 -247 l 1,2,-1
 677 -247 l 1,3,-1
 677 1510 l 1,0,-1
320 1510 m 1,4,-1
 501 1510 l 1,5,-1
 501 -247 l 1,6,-1
 320 -247 l 1,7,-1
 320 1510 l 1,4,-1
EndSplineSet
Validated: 1
EndChar

StartChar: underscoredbl
Encoding: 8215 8215 137
Width: 1024
Flags: MW
LayerCount: 2
Fore
SplineSet
-20 -51 m 1,0,-1
 1041 -51 l 1,1,-1
 1041 -209 l 1,2,-1
 -20 -209 l 1,3,-1
 -20 -51 l 1,0,-1
-20 -235 m 1,4,-1
 1041 -235 l 1,5,-1
 1041 -393 l 1,6,-1
 -20 -393 l 1,7,-1
 -20 -235 l 1,4,-1
EndSplineSet
Validated: 1
EndChar

StartChar: bullet
Encoding: 8226 8226 138
Width: 1241
Flags: MW
LayerCount: 2
Fore
SplineSet
628 325 m 128,-1,1
 473 325 473 325 363 435 c 128,-1,2
 253 545 253 545 253 700 c 128,-1,3
 253 855 253 855 363 966 c 0,4,5
 473 1076 473 1076 628 1076 c 128,-1,6
 783 1076 783 1076 894 966 c 0,7,8
 1004 856 1004 856 1004 700 c 0,9,10
 1004 545 1004 545 894 435 c 0,11,0
 783 325 783 325 628 325 c 128,-1,1
EndSplineSet
Validated: 1
EndChar

StartChar: guilsinglleft
Encoding: 8249 8249 139
Width: 678
Flags: MW
LayerCount: 2
Fore
SplineSet
172 603 m 1,0,1
 161 612 161 612 161 626 c 0,2,3
 161 637 161 637 169 650 c 1,4,5
 231 724 231 724 338.5 823.5 c 128,-1,6
 446 923 446 923 520 1000 c 0,7,8
 532 1012 532 1012 547 1012 c 256,9,10
 562 1012 562 1012 570 1004 c 1,11,-1
 607 978 l 1,12,13
 618 967 618 967 618 957 c 0,14,15
 618 948 618 948 611 942 c 1,16,-1
 366 629 l 1,17,-1
 615 311 l 1,18,19
 619 304 619 304 619 299 c 0,20,21
 619 284 619 284 605 275 c 2,22,-1
 570 251 l 1,23,24
 562 243 562 243 547 243 c 256,25,26
 532 243 532 243 521 255 c 0,27,28
 436 339 436 339 346 427 c 128,-1,29
 256 515 256 515 172 603 c 1,0,1
EndSplineSet
Validated: 1
EndChar

StartChar: uni203E
Encoding: 8254 8254 140
Width: 1024
Flags: MW
LayerCount: 2
Fore
SplineSet
-20 1597 m 1,0,-1
 -20 1749 l 1,1,-1
 1048 1749 l 1,2,-1
 1048 1597 l 1,3,-1
 -20 1597 l 1,0,-1
EndSplineSet
Validated: 1
EndChar

StartChar: fraction
Encoding: 8260 8260 141
Width: 342
Flags: MW
LayerCount: 2
Fore
SplineSet
581 1440 m 1,0,-1
 720 1440 l 1,1,-1
 -231 -52 l 1,2,-1
 -370 -52 l 1,3,-1
 581 1440 l 1,0,-1
EndSplineSet
Validated: 1
EndChar

StartChar: uni204A
Encoding: 8266 8266 142
Width: 963
Flags: MW
LayerCount: 2
Fore
SplineSet
658 753 m 0,0,-1
 1058 1040 l 1,1,2
 1056 912 1056 912 1056 816 c 0,3,4
 1056 648 1056 648 1060 431 c 0,5,6
 1061 368 1061 368 1061 309 c 0,7,8
 1061 50 1061 50 1041 -141 c 0,9,10
 1032 -226 1032 -226 1002.5 -312 c 128,-1,11
 973 -398 973 -398 916 -467 c 0,12,13
 803 -603 803 -603 664 -605 c 1,14,-1
 661 -605 l 2,15,16
 598 -605 598 -605 596 -549 c 1,17,-1
 596 -542 l 2,18,19
 596 -527 596 -527 601 -516 c 0,20,21
 611 -497 611 -497 653 -497 c 0,22,23
 664 -497 664 -497 676 -498 c 1,24,25
 691 -498 691 -498 730 -471 c 1,26,27
 770 -442 770 -442 796 -363 c 1,28,29
 816 -296 816 -296 820 -150 c 0,30,31
 825 26 825 26 825 206 c 0,32,33
 825 266 825 266 824 327 c 0,34,35
 822 570 822 570 820 754 c 1,36,-1
 629 615 l 1,37,38
 612 601 612 601 570 590 c 0,39,40
 555 586 555 586 540 586 c 0,41,42
 511 586 511 586 487 601 c 1,43,44
 432 631 432 631 432 721 c 2,45,-1
 432 739 l 1,46,47
 433 753 433 753 433 764 c 0,48,49
 433 837 433 837 417 840 c 1,50,-1
 411 840 l 2,51,52
 393 840 393 840 347 828 c 0,53,54
 289 813 289 813 51 708 c 1,55,-1
 539 1050 l 1,56,57
 658 939 658 939 658 753 c 0,0,-1
EndSplineSet
Validated: 1
EndChar

StartChar: uni2215
Encoding: 8725 8725 143
Width: 991
Flags: MW
LayerCount: 2
Fore
SplineSet
796 1385 m 1,0,-1
 978 1385 l 1,1,-1
 214 -20 l 1,2,-1
 32 -20 l 1,3,-1
 796 1385 l 1,0,-1
EndSplineSet
Validated: 1
EndChar

StartChar: radical
Encoding: 8730 8730 144
Width: 991
Flags: MW
LayerCount: 2
Fore
SplineSet
794 1385 m 1,0,-1
 973 1385 l 1,1,-1
 436 -20 l 1,2,-1
 269 -20 l 1,3,-1
 115 916 l 1,4,-1
 -13 896 l 1,5,-1
 -13 1042 l 1,6,-1
 239 1079 l 1,7,-1
 370 276 l 1,8,-1
 794 1385 l 1,0,-1
EndSplineSet
Validated: 1
EndChar

StartChar: uniA730
Encoding: 42800 42800 145
Width: 747
Flags: MW
LayerCount: 2
Fore
SplineSet
144 146 m 2,0,-1
 144 834 l 2,1,2
 144 863 144 863 111 875 c 128,-1,3
 78 887 78 887 78 917 c 0,4,5
 78 951 78 951 117 951 c 2,6,-1
 779 951 l 1,7,-1
 779 740 l 2,8,9
 779 702 779 702 740 697 c 1,10,-1
 736 697 l 2,11,12
 709 697 709 697 675 743 c 1,13,14
 642 790 642 790 630 809 c 128,-1,15
 618 828 618 828 594 828 c 2,16,-1
 368 828 l 1,17,-1
 368 529 l 1,18,-1
 462 529 l 2,19,20
 477 529 477 529 490 545 c 2,21,-1
 535 598 l 1,22,23
 587 598 587 598 587 564 c 2,24,-1
 587 374 l 2,25,26
 587 340 587 340 548 340 c 0,27,28
 520 340 520 340 509.5 362.5 c 128,-1,29
 499 385 499 385 488 396 c 0,30,31
 476 408 476 408 462 408 c 2,32,-1
 368 408 l 1,33,-1
 368 146 l 2,34,35
 368 94 368 94 418 76.5 c 128,-1,36
 468 59 468 59 468 21 c 0,37,38
 468 -20 468 -20 423 -20 c 2,39,-1
 90 -20 l 2,40,41
 44 -20 44 -20 44 21 c 0,42,43
 44 59 44 59 94 76.5 c 128,-1,44
 144 94 144 94 144 146 c 2,0,-1
EndSplineSet
Validated: 1
EndChar

StartChar: uniA732
Encoding: 42802 42802 146
Width: 2376
Flags: MW
LayerCount: 2
Fore
SplineSet
817 1447 m 1,0,1
 886 1285 886 1285 983 1060.5 c 128,-1,2
 1080 836 1080 836 1153 666 c 1,3,-1
 1499 1447 l 1,4,-1
 1597 1447 l 1,5,6
 1653 1315 1653 1315 1726.5 1144 c 128,-1,7
 1800 973 1800 973 1878.5 792 c 128,-1,8
 1957 611 1957 611 2030.5 440 c 128,-1,9
 2104 269 2104 269 2155 152 c 0,10,11
 2168 120 2168 120 2206 94 c 1,12,13
 2227 81 2227 81 2249.5 71 c 128,-1,14
 2272 61 2272 61 2288 50 c 0,15,16
 2303 39 2303 39 2308 28 c 0,17,18
 2312 21 2312 21 2312 13 c 0,19,20
 2312 6 2312 6 2307 -3 c 0,21,22
 2299 -20 2299 -20 2273 -20 c 2,23,-1
 1935 -20 l 2,24,25
 1917 -20 1917 -20 1901 -9 c 0,26,27
 1884 3 1884 3 1881 14 c 1,28,29
 1878 19 1878 19 1878 27 c 0,30,31
 1878 44 1878 44 1896 59 c 0,32,33
 1906 68 1906 68 1917 76.5 c 128,-1,34
 1928 85 1928 85 1932 97 c 0,35,36
 1934 103 1934 103 1934 110 c 0,37,38
 1934 124 1934 124 1927 141 c 2,39,-1
 1786 469 l 1,40,-1
 1238 469 l 1,41,42
 1276 383 1276 383 1311.5 300 c 128,-1,43
 1347 217 1347 217 1376 152 c 1,44,45
 1389 119 1389 119 1426 94 c 0,46,47
 1447 81 1447 81 1470 71 c 128,-1,48
 1493 61 1493 61 1509 50 c 0,49,50
 1524 39 1524 39 1529 28 c 0,51,52
 1533 21 1533 21 1533 13 c 0,53,54
 1533 4 1533 4 1529 -2 c 0,55,56
 1520 -20 1520 -20 1494 -20 c 2,57,-1
 1155 -20 l 2,58,59
 1134 -20 1134 -20 1122 -9 c 1,60,61
 1108 -1 1108 -1 1101 16 c 0,62,63
 1099 22 1099 22 1099 26 c 0,64,65
 1099 42 1099 42 1117 59 c 0,66,67
 1126 68 1126 68 1137 76.5 c 128,-1,68
 1148 85 1148 85 1152 98 c 1,69,70
 1155 104 1155 104 1155 111 c 0,71,72
 1155 124 1155 124 1147 141 c 2,73,-1
 1006 469 l 1,74,-1
 458 469 l 1,75,76
 428 397 428 397 392.5 311.5 c 128,-1,77
 357 226 357 226 322 141 c 0,78,79
 314 123 314 123 313 109 c 0,80,81
 312 103 312 103 312 97 c 0,82,83
 312 89 312 89 314 82 c 0,84,85
 317 72 317 72 323.5 64 c 128,-1,86
 330 56 330 56 334 43 c 0,87,88
 336 37 336 37 336 28 c 0,89,90
 336 21 336 21 332 14 c 1,91,92
 318 -20 318 -20 287 -20 c 2,93,-1
 29 -20 l 2,94,95
 2 -20 2 -20 -6 -4 c 1,96,97
 -11 1 -11 1 -11 11 c 256,98,99
 -11 21 -11 21 -7 28 c 0,100,101
 3 48 3 48 38 65 c 0,102,103
 50 71 50 71 67.5 79 c 128,-1,104
 85 87 85 87 101 98 c 0,105,106
 133 120 133 120 146 152 c 1,107,-1
 720 1447 l 1,108,-1
 817 1447 l 1,0,1
1734 590 m 1,109,-1
 1507 1117 l 1,110,111
 1467 1020 1467 1020 1403.5 867 c 128,-1,112
 1340 714 1340 714 1289 590 c 1,113,-1
 1734 590 l 1,109,-1
954 590 m 1,114,-1
 728 1117 l 1,115,116
 688 1020 688 1020 624.5 868 c 128,-1,117
 561 716 561 716 509 590 c 1,118,-1
 954 590 l 1,114,-1
EndSplineSet
Validated: 1
EndChar

StartChar: uniA734
Encoding: 42804 42804 147
Width: 2632
Flags: MW
LayerCount: 2
Fore
SplineSet
1774 1300 m 0,0,1
 1490 1299 1490 1299 1377 1120 c 128,-1,2
 1264 941 1264 941 1264 683 c 256,3,4
 1264 425 1264 425 1407.5 245.5 c 128,-1,5
 1551 66 1551 66 1774 65 c 1,6,-1
 1779 65 l 2,7,8
 1998 65 1998 65 2140 253 c 1,9,10
 2284 446 2284 446 2284 680 c 2,11,-1
 2284 683 l 1,12,13
 2281 919 2281 919 2162 1109.5 c 128,-1,14
 2043 1300 2043 1300 1774 1300 c 0,0,1
857 1407 m 1,15,-1
 1055 948 l 1,16,17
 1100 1130 1100 1130 1295.5 1276 c 128,-1,18
 1491 1422 1491 1422 1775 1425 c 1,19,-1
 1785 1425 l 2,20,21
 2110 1425 2110 1425 2332 1226 c 1,22,23
 2540 1041 2540 1041 2540 737 c 0,24,25
 2540 711 2540 711 2538 684 c 0,26,27
 2517 343 2517 343 2298.5 153 c 128,-1,28
 2080 -37 2080 -37 1774 -54 c 0,29,30
 1752 -55 1752 -55 1730 -55 c 0,31,32
 1498 -55 1498 -55 1306 78 c 1,33,34
 1096 221 1096 221 1038 455 c 1,35,-1
 508 455 l 1,36,37
 479 385 479 385 444.5 302 c 128,-1,38
 410 219 410 219 376 137 c 0,39,40
 368 119 368 119 367 106 c 0,41,42
 366 100 366 100 366 95 c 0,43,44
 366 87 366 87 368 80 c 0,45,46
 371 70 371 70 377 62 c 128,-1,47
 383 54 383 54 387 43 c 0,48,49
 390 32 390 32 390 25 c 1,50,-1
 387 14 l 1,51,52
 370 -20 370 -20 341 -20 c 2,53,-1
 91 -20 l 2,54,55
 63 -20 63 -20 55 -4 c 1,56,57
 50 1 50 1 50 10 c 0,58,59
 50 22 50 22 54 28 c 1,60,61
 61 45 61 45 98 63 c 0,62,63
 112 69 112 69 128 77 c 128,-1,64
 144 85 144 85 160 96 c 0,65,66
 192 120 192 120 204 148 c 2,67,-1
 762 1408 l 1,68,-1
 857 1407 l 1,15,-1
989 574 m 1,69,-1
 769 1084 l 1,70,71
 731 992 731 992 669.5 844 c 128,-1,72
 608 696 608 696 557 574 c 1,73,-1
 989 574 l 1,69,-1
EndSplineSet
Validated: 1
EndChar

StartChar: uniA736
Encoding: 42806 42806 148
Width: 2287
Flags: MW
LayerCount: 2
Fore
SplineSet
1237 1424 m 2,0,1
 1283 1424 1283 1424 1283 1383 c 0,2,3
 1283 1344 1283 1344 1233.5 1327.5 c 128,-1,4
 1184 1311 1184 1311 1184 1260 c 2,5,-1
 1185 721 l 1,6,-1
 1185 693 l 2,7,8
 1185 558 1185 558 1194 451 c 0,9,10
 1204 336 1204 336 1243 260 c 0,11,12
 1283 184 1283 184 1361.5 145 c 128,-1,13
 1440 106 1440 106 1583 106 c 0,14,15
 1828 106 1828 106 1917 301 c 1,16,17
 1982 441 1982 441 1982 721 c 2,18,-1
 1982 1257 l 2,19,20
 1982 1308 1982 1308 1932.5 1326 c 128,-1,21
 1883 1344 1883 1344 1883 1383 c 0,22,23
 1883 1424 1883 1424 1928 1424 c 2,24,-1
 2183 1424 l 2,25,26
 2229 1424 2229 1424 2229 1383 c 0,27,28
 2229 1344 2229 1344 2179 1326 c 128,-1,29
 2129 1308 2129 1308 2129 1257 c 2,30,-1
 2129 588 l 2,31,32
 2129 437 2129 437 2102 311 c 128,-1,33
 2075 185 2075 185 2000 97 c 0,34,35
 1867 -59 1867 -59 1583 -59 c 0,36,37
 1407 -59 1407 -59 1281 -25.5 c 128,-1,38
 1155 8 1155 8 1078 98 c 1,39,40
 969 223 969 223 956 469 c 1,41,-1
 486 469 l 1,42,43
 445 395 445 395 396.5 309.5 c 128,-1,44
 348 224 348 224 300 139 c 0,45,46
 290 120 290 120 286 106 c 0,47,48
 283 97 283 97 283 88 c 0,49,50
 283 84 283 84 284 81 c 0,51,52
 285 70 285 70 290 62 c 128,-1,53
 295 54 295 54 297 43 c 1,54,55
 299 38 299 38 299 33 c 0,56,57
 299 29 299 29 298 26 c 0,58,59
 298 23 298 23 293 14 c 0,60,61
 276 -20 276 -20 245 -20 c 2,62,-1
 -12 -20 l 2,63,64
 -42 -20 -42 -20 -48 -3 c 1,65,66
 -51 0 -51 0 -51 11 c 0,67,68
 -51 19 -51 19 -46 29 c 1,69,70
 -34 47 -34 47 4 65 c 0,71,72
 18 71 18 71 35.5 79.5 c 128,-1,73
 53 88 53 88 72 99 c 0,74,75
 106 120 106 120 127 154 c 2,76,-1
 816 1323 l 1,77,78
 804 1326 804 1326 763.5 1338.5 c 128,-1,79
 723 1351 723 1351 723 1383 c 0,80,81
 723 1424 723 1424 769 1424 c 2,82,-1
 1237 1424 l 2,0,1
953 590 m 1,83,-1
 952 1305 l 1,84,85
 884 1165 884 1165 754 939.5 c 128,-1,86
 624 714 624 714 554 590 c 1,87,-1
 953 590 l 1,83,-1
EndSplineSet
Validated: 1
EndChar

StartChar: uniA738
Encoding: 42808 42808 149
Width: 1900
Flags: MW
LayerCount: 2
Fore
SplineSet
1364 227 m 1,0,-1
 1799 1114 l 2,1,2
 1809 1136 1809 1136 1809 1154 c 0,3,4
 1809 1168 1809 1168 1804 1177 c 0,5,6
 1785 1206 1785 1206 1745 1253 c 2,7,-1
 1684 1324 l 1,8,-1
 1823 1429 l 1,9,10
 1838 1442 1838 1442 1858 1442 c 0,11,12
 1879 1442 1879 1442 1900 1425 c 1,13,-1
 1980 1342 l 2,14,15
 2014 1307 2014 1307 2014 1262 c 0,16,17
 2014 1238 2014 1238 2005 1210 c 0,18,19
 1981 1138 1981 1138 1933 1041 c 1,20,-1
 1444 26 l 1,21,22
 1435 5 1435 5 1423 -8 c 0,23,24
 1411 -20 1411 -20 1389 -20 c 2,25,-1
 1266 -20 l 2,26,27
 1242 -20 1242 -20 1229 -3 c 0,28,29
 1224 2 1224 2 1216.5 24 c 128,-1,30
 1209 46 1209 46 1205 56 c 2,31,-1
 1027 469 l 1,32,-1
 479 469 l 1,33,34
 449 397 449 397 413.5 311.5 c 128,-1,35
 378 226 378 226 343 141 c 0,36,37
 335 123 335 123 334 109 c 0,38,39
 333 103 333 103 333 97 c 0,40,41
 333 89 333 89 335 82 c 0,42,43
 338 72 338 72 344.5 64 c 128,-1,44
 351 56 351 56 356 42 c 1,45,46
 357 32 357 32 357 28 c 0,47,48
 357 21 357 21 353 14 c 1,49,50
 339 -20 339 -20 308 -20 c 2,51,-1
 50 -20 l 2,52,53
 22 -20 22 -20 14 -4 c 1,54,55
 9 1 9 1 9 11 c 256,56,57
 9 21 9 21 13 28 c 0,58,59
 22 48 22 48 57 64 c 0,60,61
 71 71 71 71 88.5 79 c 128,-1,62
 106 87 106 87 122 98 c 0,63,64
 154 120 154 120 167 152 c 1,65,-1
 741 1447 l 1,66,-1
 838 1447 l 1,67,68
 893 1317 893 1317 965 1151.5 c 128,-1,69
 1037 986 1037 986 1113.5 809 c 128,-1,70
 1190 632 1190 632 1262.5 463.5 c 128,-1,71
 1335 295 1335 295 1364 227 c 1,0,-1
975 590 m 1,72,-1
 749 1117 l 1,73,74
 709 1020 709 1020 645.5 868 c 128,-1,75
 582 716 582 716 530 590 c 1,76,-1
 975 590 l 1,72,-1
EndSplineSet
Validated: 1
EndChar

StartChar: uniA739
Encoding: 42809 42809 150
Width: 1669
Flags: MW
LayerCount: 2
Fore
SplineSet
817 63 m 1,0,-1
 557 -32 l 2,1,2
 520 -45 520 -45 494 -45 c 2,3,-1
 452 -45 l 1,4,5
 298 -37 298 -37 190 77 c 0,6,7
 81 193 81 193 66 358 c 0,8,9
 62 400 62 400 62 440 c 0,10,11
 62 493 62 493 69 543 c 0,12,13
 82 632 82 632 138 720 c 1,14,15
 165 767 165 767 232 818 c 1,16,17
 257 835 257 835 287 848 c 1,18,19
 368 878 368 878 448.5 908 c 128,-1,20
 529 938 529 938 610 968 c 0,21,22
 632 976 632 976 652 976 c 2,23,-1
 658 976 l 1,24,25
 726 973 726 973 822 942 c 0,26,27
 832 939 832 939 834 937 c 1,28,29
 854 929 854 929 885 919 c 0,30,31
 893 916 893 916 900 916 c 0,32,33
 906 916 906 916 910 919 c 0,34,35
 929 935 929 935 936 945 c 0,36,37
 949 962 949 962 971 962 c 0,38,39
 982 962 982 962 991 958 c 0,40,41
 1028 945 1028 945 1028 920 c 2,42,-1
 1028 147 l 1,43,44
 1035 84 1035 84 1077.5 76.5 c 128,-1,45
 1120 69 1120 69 1177 69 c 0,46,47
 1197 69 1197 69 1228.5 82 c 128,-1,48
 1260 95 1260 95 1274 105 c 0,49,50
 1308 129 1308 129 1343 178 c 1,51,52
 1368 216 1368 216 1388 280.5 c 128,-1,53
 1408 345 1408 345 1408 411 c 2,54,-1
 1408 476 l 2,55,56
 1408 557 1408 557 1386 616 c 128,-1,57
 1364 675 1364 675 1337 730 c 1,58,59
 1315 769 1315 769 1273 812 c 128,-1,60
 1231 855 1231 855 1196 884 c 1,61,62
 1151 918 1151 918 1151 931 c 0,63,64
 1151 967 1151 967 1192 967 c 2,65,-1
 1494 967 l 2,66,67
 1535 967 1535 967 1535 931 c 0,68,69
 1535 883 1535 883 1458 882 c 0,70,71
 1429 881 1429 881 1429 865 c 2,72,-1
 1429 864 l 2,73,74
 1429 854 1429 854 1453.5 829 c 128,-1,75
 1478 804 1478 804 1490 793 c 0,76,77
 1523 759 1523 759 1559 704 c 0,78,79
 1585 664 1585 664 1612.5 600 c 128,-1,80
 1640 536 1640 536 1640 471 c 2,81,-1
 1640 415 l 2,82,83
 1640 318 1640 318 1596.5 233 c 128,-1,84
 1553 148 1553 148 1504 99 c 0,85,86
 1451 46 1451 46 1362.5 -6.5 c 128,-1,87
 1274 -59 1274 -59 1167 -59 c 1,88,89
 1015 -56 1015 -56 942.5 -15.5 c 128,-1,90
 870 25 870 25 817 63 c 1,0,-1
797 762 m 1,91,92
 765 792 765 792 702.5 822 c 128,-1,93
 640 852 640 852 594 854 c 1,94,-1
 591 854 l 2,95,96
 577 854 577 854 561 848 c 0,97,98
 525 835 525 835 489.5 821.5 c 128,-1,99
 454 808 454 808 418 795 c 1,100,101
 399 787 399 787 388 775 c 0,102,103
 330 713 330 713 310 624 c 1,104,105
 293 554 293 554 293 486 c 0,106,107
 293 465 293 465 295 442 c 0,108,109
 306 303 306 303 370 217 c 1,110,111
 432 130 432 130 524 105 c 0,112,113
 558 95 558 95 593 95 c 0,114,115
 604 95 604 95 615 96 c 0,116,117
 633 98 633 98 660 107 c 0,118,119
 683 115 683 115 732 133.5 c 128,-1,120
 781 152 781 152 797 158 c 1,121,-1
 797 762 l 1,91,92
EndSplineSet
Validated: 1
EndChar

StartChar: uniA75B
Encoding: 42843 42843 151
Width: 772
Flags: MW
LayerCount: 2
Fore
SplineSet
330 977 m 2,0,1
 400 977 400 977 481 950.5 c 128,-1,2
 562 924 562 924 604 852.5 c 128,-1,3
 646 781 646 781 646 697 c 1,4,5
 643 549 643 549 595 476.5 c 128,-1,6
 547 404 547 404 464 378 c 128,-1,7
 381 352 381 352 320 351 c 1,8,-1
 677 86 l 1,9,10
 689 68 689 68 734 66 c 1,11,12
 786 61 786 61 786 18 c 1,13,14
 782 -20 782 -20 739 -20 c 2,15,-1
 504 -20 l 2,16,17
 482 -20 482 -20 320 111 c 128,-1,18
 158 242 158 242 47 336 c 1,19,-1
 47 436 l 1,20,21
 194 436 194 436 279 475 c 0,22,23
 415 539 415 539 417 704 c 1,24,-1
 417 707 l 2,25,26
 417 808 417 808 356 842 c 0,27,28
 328 857 328 857 301 857 c 256,29,30
 274 857 274 857 249 851 c 0,31,32
 182 834 182 834 140 796.5 c 128,-1,33
 98 759 98 759 70 724.5 c 128,-1,34
 42 690 42 690 -31 601 c 1,35,-1
 -31 746 l 1,36,37
 -17 760 -17 760 30 814.5 c 128,-1,38
 77 869 77 869 88 879 c 0,39,40
 183 970 183 970 314 977 c 1,41,-1
 330 977 l 2,0,1
EndSplineSet
Validated: 1
EndChar

StartChar: uniA77A
Encoding: 42874 42874 152
Width: 1105
Flags: MW
LayerCount: 2
Fore
SplineSet
586 873 m 1,0,-1
 575 873 l 2,1,2
 472 873 472 873 396 768 c 0,3,4
 311 651 311 651 311 478 c 2,5,-1
 311 474 l 2,6,7
 311 302 311 302 395 176 c 0,8,9
 476 55 476 55 587 50 c 1,10,-1
 599 50 l 2,11,12
 701 50 701 50 777 155 c 0,13,14
 862 271 862 271 863 446 c 0,15,16
 863 619 863 619 780 743.5 c 128,-1,17
 697 868 697 868 586 873 c 1,0,-1
766 958 m 1,18,19
 711 1062 711 1062 614.5 1180 c 128,-1,20
 518 1298 518 1298 333 1397 c 1,21,22
 302 1415 302 1415 302 1435 c 0,23,24
 302 1443 302 1443 307 1450 c 0,25,26
 314 1462 314 1462 326 1484 c 0,27,28
 343 1514 343 1514 376 1514 c 0,29,30
 391 1514 391 1514 409 1506 c 1,31,32
 722 1324 722 1324 909 1076 c 128,-1,33
 1096 828 1096 828 1101 461 c 1,34,-1
 1101 455 l 2,35,36
 1101 244 1101 244 954 98 c 1,37,38
 804 -54 804 -54 585 -60 c 1,39,-1
 572 -60 l 2,40,41
 365 -60 365 -60 217 93 c 0,42,43
 68 247 68 247 68 458 c 2,44,-1
 68 461 l 1,45,46
 69 692 69 692 240 850 c 0,47,48
 263 871 263 871 303 885 c 128,-1,49
 343 899 343 899 417 928 c 1,50,51
 461 944 461 944 514 963 c 0,52,53
 569 983 569 983 605 983 c 2,54,-1
 609 983 l 1,55,56
 731 978 731 978 766 958 c 1,18,19
EndSplineSet
Validated: 1
EndChar

StartChar: uniEF11
Encoding: 61201 61201 153
Width: 1060
Flags: MW
LayerCount: 2
Fore
SplineSet
429 836 m 2,0,1
 429 822 429 822 442 803 c 2,2,-1
 558 629 l 1,3,-1
 639 744 l 2,4,5
 706 841 706 841 760 903 c 0,6,7
 809 958 809 958 859 958 c 0,8,9
 872 958 872 958 885 954 c 2,10,-1
 985 923 l 2,11,12
 998 918 998 918 1005 909 c 0,13,14
 1015 897 1015 897 1015 881 c 0,15,16
 1015 872 1015 872 1012 863 c 2,17,-1
 966 677 l 1,18,-1
 882 696 l 2,19,20
 830 708 830 708 798 710 c 2,21,-1
 797 710 l 2,22,23
 776 710 776 710 751 672 c 2,24,-1
 639 505 l 1,25,-1
 869 156 l 2,26,27
 888 125 888 125 939 95 c 0,28,29
 965 81 965 81 989 72 c 0,30,31
 1014 63 1014 63 1034 52 c 0,32,33
 1048 41 1048 41 1054 33 c 0,34,35
 1064 21 1064 21 1064 9 c 0,36,37
 1064 3 1064 3 1061 -2 c 0,38,39
 1057 -12 1057 -12 1048 -17 c 0,40,41
 1041 -20 1041 -20 1033 -20 c 2,42,-1
 698 -20 l 2,43,44
 683 -20 683 -20 670 -12 c 0,45,46
 657 -7 657 -7 645 9 c 0,47,48
 639 19 639 19 639 31 c 128,-1,49
 639 43 639 43 649 58 c 0,50,51
 670 82 670 82 674 92 c 1,52,-1
 674 93 l 2,53,54
 674 111 674 111 663 128 c 2,55,-1
 522 337 l 1,56,-1
 384 134 l 2,57,58
 369 113 369 113 364 100 c 128,-1,59
 359 87 359 87 359 78 c 128,-1,60
 359 69 359 69 361 64 c 0,61,62
 366 53 366 53 368 40 c 2,63,-1
 368 39 l 2,64,65
 368 34 368 34 365 22 c 0,66,67
 361 13 361 13 358 9 c 0,68,69
 338 -20 338 -20 314 -20 c 2,70,-1
 59 -20 l 2,71,72
 37 -20 37 -20 28 -3 c 2,73,-1
 26 1 l 1,74,-1
 26 6 l 1,75,-1
 26 11 l 2,76,77
 26 20 26 20 35 32 c 0,78,79
 44 45 44 45 84 65 c 1,80,81
 124 80 124 80 160 101 c 0,82,83
 202 124 202 124 224 156 c 2,84,-1
 440 462 l 1,85,-1
 233 775 l 2,86,87
 212 808 212 808 164 836 c 0,88,89
 139 850 139 850 113 859 c 128,-1,90
 87 868 87 868 69 880 c 0,91,92
 56 888 56 888 47 900 c 0,93,94
 40 911 40 911 40 922 c 1,95,96
 8 181 8 181 40 926 c 0,97,98
 42 941 42 941 54 948 c 0,99,100
 61 952 61 952 70 952 c 2,101,-1
 405 952 l 2,102,103
 418 952 418 952 434 943 c 0,104,105
 447 937 447 937 456 923 c 0,106,107
 464 913 464 913 464 899 c 0,108,109
 464 886 464 886 452 872 c 0,110,111
 444 862 444 862 434 852 c 0,112,113
 429 847 429 847 429 840 c 2,114,-1
 429 836 l 2,0,1
EndSplineSet
Validated: 1
EndChar

StartChar: uniEFA0
Encoding: 61344 61344 154
Width: 1611
Flags: MW
LayerCount: 2
Fore
SplineSet
274 251 m 0,0,1
 274 238 274 238 276 221 c 0,2,3
 280 176 280 176 303 152 c 0,4,5
 342 108 342 108 402 101 c 0,6,7
 418 99 418 99 433 99 c 0,8,9
 477 99 477 99 521 115 c 0,10,11
 590 139 590 139 662 182 c 1,12,-1
 662 517 l 1,13,14
 440 446 440 446 440 446 c 1,15,16
 300 401 300 401 281 313 c 0,17,18
 274 282 274 282 274 251 c 0,0,1
864 251 m 0,19,20
 864 238 864 238 866 221 c 0,21,22
 871 176 871 176 892 152 c 0,23,24
 932 108 932 108 992 101 c 0,25,26
 1008 99 1008 99 1023 99 c 0,27,28
 1067 99 1067 99 1111 115 c 0,29,30
 1182 140 1182 140 1252 182 c 1,31,-1
 1252 517 l 1,32,33
 1030 446 1030 446 1030 446 c 1,34,35
 890 401 890 401 871 313 c 0,36,37
 864 282 864 282 864 251 c 0,19,20
862 608 m 2,38,-1
 862 494 l 1,39,40
 869 497 869 497 881 501 c 0,41,42
 893 506 893 506 912 512 c 0,43,44
 973 535 973 535 1252 640 c 1,45,46
 1248 719 1248 719 1205 766 c 0,47,48
 1147 827 1147 827 1005 837 c 1,49,-1
 982 837 l 2,50,51
 930 837 930 837 898 818 c 0,52,53
 861 796 861 796 851 746 c 1,54,55
 862 694 862 694 862 608 c 2,38,-1
127 635 m 0,56,57
 127 672 127 672 141 717 c 0,58,59
 195 889 195 889 313 931 c 0,60,61
 402 963 402 963 500 970 c 0,62,63
 515 971 515 971 528 971 c 0,64,65
 614 971 614 971 698 934 c 1,66,-1
 699 933 l 1,67,68
 757 905 757 905 791 867 c 1,69,70
 883 934 883 934 1013 963 c 0,71,72
 1060 973 1060 973 1106 973 c 0,73,74
 1198 973 1198 973 1288 934 c 1,75,-1
 1289 933 l 1,76,77
 1399 879 1399 879 1425 799 c 0,78,79
 1450 722 1450 722 1452 608 c 2,80,-1
 1453 133 l 2,81,82
 1453 109 1453 109 1461 93 c 128,-1,83
 1469 77 1469 77 1491 71 c 0,84,85
 1550 54 1550 54 1550 19 c 0,86,87
 1550 1 1550 1 1538 -8 c 0,88,89
 1529 -15 1529 -15 1515 -15 c 2,90,-1
 1287 -15 l 2,91,92
 1263 -15 1263 -15 1255 -3 c 0,93,94
 1252 2 1252 2 1252 9 c 2,95,-1
 1252 64 l 1,96,97
 1044 -13 1044 -13 1010 -25 c 0,98,99
 982 -35 982 -35 940 -35 c 2,100,-1
 932 -35 l 1,101,-1
 931 -35 l 2,102,103
 900 -32 900 -32 870 -28 c 128,-1,104
 840 -24 840 -24 813 -14 c 0,105,106
 742 13 742 13 723 42 c 0,107,108
 710 61 710 61 698 78 c 1,109,110
 624 50 624 50 563 27 c 0,111,112
 474 -7 474 -7 421 -25 c 0,113,114
 393 -35 393 -35 350 -35 c 2,115,-1
 342 -35 l 1,116,-1
 341 -35 l 1,117,118
 267 -29 267 -29 199 -5 c 0,119,120
 127 20 127 20 92 92 c 0,121,122
 68 139 68 139 68 196 c 0,123,124
 68 208 68 208 69 219 c 0,125,126
 74 287 74 287 93 345 c 0,127,128
 109 397 109 397 153 439 c 0,129,130
 168 453 168 453 223 476 c 1,131,132
 127 534 127 534 127 635 c 0,56,57
276 727 m 0,133,134
 264 702 264 702 264 676 c 128,-1,135
 264 650 264 650 276 623 c 128,-1,136
 288 596 288 596 308 563 c 0,137,138
 324 536 324 536 364 530 c 1,139,140
 432 556 432 556 517 587 c 128,-1,141
 602 618 602 618 662 640 c 1,142,143
 660 726 660 726 622 767 c 1,144,145
 582 826 582 826 500 833 c 0,146,147
 476 834 476 834 468 834 c 0,148,149
 402 834 402 834 352 808 c 0,150,151
 300 779 300 779 276 727 c 0,133,134
EndSplineSet
Validated: 1
EndChar

StartChar: uniF11A
Encoding: 61722 61722 155
Width: 2029
Flags: MW
LayerCount: 2
Fore
SplineSet
1071 807 m 2,0,-1
 1071 163 l 2,1,2
 1071 104 1071 104 1107 89 c 0,3,4
 1168 64 1168 64 1168 23 c 0,5,6
 1168 7 1168 7 1160 -4 c 0,7,8
 1149 -20 1149 -20 1128 -20 c 2,9,-1
 812 -20 l 2,10,11
 790 -20 790 -20 780 -4 c 0,12,13
 772 7 772 7 772 23 c 0,14,15
 772 64 772 64 833 89 c 0,16,17
 869 104 869 104 869 163 c 2,18,-1
 869 783 l 2,19,20
 869 907 869 907 858 982 c 0,21,22
 847 1056 847 1056 804 1131 c 0,23,24
 773 1183 773 1183 708 1230 c 128,-1,25
 643 1277 643 1277 568 1277 c 2,26,-1
 522 1277 l 2,27,28
 494 1277 494 1277 452 1257 c 128,-1,29
 410 1237 410 1237 392 1223 c 0,30,31
 342 1182 342 1182 301 1114 c 0,32,33
 267 1057 267 1057 242 963 c 128,-1,34
 217 869 217 869 217 775 c 2,35,-1
 217 681 l 2,36,37
 217 562 217 562 244 476 c 128,-1,38
 271 390 271 390 308 311 c 0,39,40
 335 253 335 253 389 189 c 0,41,42
 443 126 443 126 490 85 c 0,43,44
 506 70 506 70 519 63 c 0,45,46
 544 48 544 48 544 23 c 0,47,48
 544 7 544 7 536 -4 c 0,49,50
 526 -20 526 -20 504 -20 c 2,51,-1
 174 -20 l 2,52,53
 152 -20 152 -20 142 -4 c 0,54,55
 134 7 134 7 134 22 c 0,56,57
 134 57 134 57 166 73 c 0,58,59
 187 83 187 83 221 84 c 0,60,61
 245 85 245 85 257 93 c 128,-1,62
 269 101 269 101 269 119 c 0,63,64
 269 125 269 125 262 138 c 0,65,66
 256 150 256 150 237 171 c 2,67,-1
 187 229 l 2,68,69
 146 276 146 276 102 354 c 0,70,71
 68 411 68 411 34 502 c 128,-1,72
 0 593 0 593 0 687 c 2,73,-1
 0 768 l 2,74,75
 0 905 0 905 54 1028 c 0,76,77
 108 1150 108 1150 170 1220 c 0,78,79
 235 1295 235 1295 338 1353 c 128,-1,80
 441 1411 441 1411 573 1411 c 2,81,-1
 608 1411 l 2,82,83
 678 1411 678 1411 742 1384 c 128,-1,84
 806 1357 806 1357 851 1328 c 0,85,86
 903 1289 903 1289 940 1249 c 0,87,88
 950 1237 950 1237 971 1209 c 0,89,90
 992 1180 992 1180 999 1166 c 1,91,92
 1008 1178 1008 1178 1031 1209 c 0,93,94
 1053 1240 1053 1240 1062 1249 c 0,95,96
 1111 1306 1111 1306 1155 1336 c 0,97,98
 1262 1411 1262 1411 1431 1411 c 2,99,-1
 1437 1411 l 2,100,101
 1559 1411 1559 1411 1652 1350 c 128,-1,102
 1745 1289 1745 1289 1806 1220 c 0,103,104
 1865 1151 1865 1151 1909 1033 c 128,-1,105
 1953 915 1953 915 1953 781 c 2,106,-1
 1953 768 l 2,107,108
 1953 659 1953 659 1928 566 c 128,-1,109
 1903 473 1903 473 1872 402 c 0,110,111
 1841 332 1841 332 1793 258 c 0,112,113
 1781 238 1781 238 1746 191 c 0,114,115
 1728 167 1728 167 1722 153 c 128,-1,116
 1716 139 1716 139 1716 133 c 2,117,-1
 1716 120 l 2,118,119
 1716 101 1716 101 1729 93 c 128,-1,120
 1742 85 1742 85 1774 85 c 128,-1,121
 1806 85 1806 85 1827 75 c 0,122,123
 1841 68 1841 68 1851 55 c 128,-1,124
 1861 42 1861 42 1861 24 c 128,-1,125
 1861 6 1861 6 1853 -5 c 0,126,127
 1842 -20 1842 -20 1820 -20 c 2,128,-1
 1490 -20 l 2,129,130
 1468 -20 1468 -20 1458 -4 c 0,131,132
 1450 7 1450 7 1450 23 c 0,133,134
 1450 48 1450 48 1475 63 c 0,135,136
 1489 71 1489 71 1505 85 c 0,137,138
 1600 166 1600 166 1664 309 c 0,139,140
 1690 368 1690 368 1711 464 c 0,141,142
 1733 559 1733 559 1733 648 c 2,143,-1
 1733 765 l 2,144,145
 1733 864 1733 864 1705 956 c 128,-1,146
 1677 1048 1677 1048 1643 1112 c 0,147,148
 1614 1166 1614 1166 1549 1223 c 128,-1,149
 1484 1280 1484 1280 1414 1280 c 2,150,-1
 1377 1280 l 2,151,152
 1306 1280 1306 1280 1244 1232 c 128,-1,153
 1182 1184 1182 1184 1150 1136 c 0,154,155
 1071 1018 1071 1018 1071 807 c 2,0,-1
EndSplineSet
Validated: 1
EndChar

StartChar: uniF224
Encoding: 61988 61988 156
Width: 2029
Flags: MW
LayerCount: 2
Fore
SplineSet
1071 807 m 2,0,-1
 1071 163 l 2,1,2
 1071 104 1071 104 1107 89 c 0,3,4
 1168 64 1168 64 1168 23 c 0,5,6
 1168 7 1168 7 1160 -4 c 0,7,8
 1149 -20 1149 -20 1128 -20 c 2,9,-1
 812 -20 l 2,10,11
 790 -20 790 -20 780 -4 c 0,12,13
 772 7 772 7 772 23 c 0,14,15
 772 64 772 64 833 89 c 0,16,17
 869 104 869 104 869 163 c 2,18,-1
 869 783 l 2,19,20
 869 907 869 907 858 982 c 0,21,22
 847 1056 847 1056 804 1131 c 0,23,24
 773 1183 773 1183 708 1230 c 128,-1,25
 643 1277 643 1277 568 1277 c 2,26,-1
 522 1277 l 2,27,28
 494 1277 494 1277 452 1257 c 128,-1,29
 410 1237 410 1237 392 1223 c 0,30,31
 342 1182 342 1182 301 1114 c 0,32,33
 267 1057 267 1057 242 963 c 128,-1,34
 217 869 217 869 217 775 c 2,35,-1
 217 681 l 2,36,37
 217 562 217 562 244 476 c 128,-1,38
 271 390 271 390 308 311 c 0,39,40
 335 253 335 253 389 189 c 0,41,42
 443 126 443 126 490 85 c 0,43,44
 506 70 506 70 519 63 c 0,45,46
 544 48 544 48 544 23 c 0,47,48
 544 7 544 7 536 -4 c 0,49,50
 526 -20 526 -20 504 -20 c 2,51,-1
 174 -20 l 2,52,53
 152 -20 152 -20 142 -4 c 0,54,55
 134 7 134 7 134 22 c 0,56,57
 134 57 134 57 166 73 c 0,58,59
 187 83 187 83 221 84 c 0,60,61
 245 85 245 85 257 93 c 128,-1,62
 269 101 269 101 269 119 c 0,63,64
 269 125 269 125 262 138 c 0,65,66
 256 150 256 150 237 171 c 2,67,-1
 187 229 l 2,68,69
 146 276 146 276 102 354 c 0,70,71
 68 411 68 411 34 502 c 128,-1,72
 0 593 0 593 0 687 c 2,73,-1
 0 768 l 2,74,75
 0 905 0 905 54 1028 c 0,76,77
 108 1150 108 1150 170 1220 c 0,78,79
 235 1295 235 1295 338 1353 c 128,-1,80
 441 1411 441 1411 573 1411 c 2,81,-1
 608 1411 l 2,82,83
 678 1411 678 1411 742 1384 c 128,-1,84
 806 1357 806 1357 851 1328 c 0,85,86
 903 1289 903 1289 940 1249 c 0,87,88
 950 1237 950 1237 971 1209 c 0,89,90
 992 1180 992 1180 999 1166 c 1,91,92
 1008 1178 1008 1178 1031 1209 c 0,93,94
 1053 1240 1053 1240 1062 1249 c 0,95,96
 1111 1306 1111 1306 1155 1336 c 0,97,98
 1262 1411 1262 1411 1431 1411 c 2,99,-1
 1437 1411 l 2,100,101
 1559 1411 1559 1411 1652 1350 c 128,-1,102
 1745 1289 1745 1289 1806 1220 c 0,103,104
 1865 1151 1865 1151 1909 1033 c 128,-1,105
 1953 915 1953 915 1953 781 c 2,106,-1
 1953 768 l 2,107,108
 1953 584 1953 584 1896 407 c 128,-1,109
 1839 230 1839 230 1743 80 c 0,110,111
 1578 -175 1578 -175 1344 -310 c 0,112,113
 1314 -326 1314 -326 1284 -344 c 0,114,115
 1274 -350 1274 -350 1265 -350 c 128,-1,116
 1256 -350 1256 -350 1249 -345 c 0,117,118
 1234 -335 1234 -335 1234 -304 c 0,119,120
 1234 -278 1234 -278 1259 -263 c 0,121,122
 1273 -255 1273 -255 1289 -241 c 0,123,124
 1396 -150 1396 -150 1483 -48 c 0,125,126
 1571 53 1571 53 1630 177 c 0,127,128
 1733 387 1733 387 1733 648 c 2,129,-1
 1733 765 l 2,130,131
 1733 864 1733 864 1705 956 c 128,-1,132
 1677 1048 1677 1048 1643 1112 c 0,133,134
 1614 1166 1614 1166 1549 1223 c 128,-1,135
 1484 1280 1484 1280 1414 1280 c 2,136,-1
 1377 1280 l 2,137,138
 1306 1280 1306 1280 1244 1232 c 128,-1,139
 1182 1184 1182 1184 1150 1136 c 0,140,141
 1071 1018 1071 1018 1071 807 c 2,0,-1
EndSplineSet
Validated: 1
EndChar

StartChar: uniF225
Encoding: 61989 61989 157
Width: 1677
Flags: MW
LayerCount: 2
Fore
SplineSet
499 984 m 0,0,1
 717 984 717 984 848 821 c 1,2,3
 967 970 967 970 1142 983 c 0,4,5
 1158 984 1158 984 1172 984 c 0,6,7
 1341 984 1341 984 1475 850 c 0,8,9
 1612 712 1612 712 1612 541 c 2,10,-1
 1612 527 l 1,11,-1
 1612 526 l 1,12,13
 1608 420 1608 420 1557 318 c 128,-1,14
 1506 216 1506 216 1433 131 c 0,15,16
 1404 96 1404 96 1399 82 c 0,17,18
 1399 74 1399 74 1406 70 c 0,19,20
 1415 65 1415 65 1433 64 c 0,21,22
 1506 62 1506 62 1506 16 c 0,23,24
 1506 -2 1506 -2 1494 -12 c 0,25,26
 1485 -20 1485 -20 1470 -20 c 2,27,-1
 1167 -20 l 2,28,29
 1149 -20 1149 -20 1139 -7 c 0,30,31
 1132 2 1132 2 1132 16 c 0,32,33
 1132 24 1132 24 1138 31 c 0,34,35
 1145 40 1145 40 1177 65 c 0,36,37
 1243 116 1243 116 1282 170 c 0,38,39
 1397 327 1397 327 1397 496 c 0,40,41
 1397 568 1397 568 1377 647 c 128,-1,42
 1357 726 1357 726 1315 781 c 1,43,44
 1216 860 1216 860 1147 870 c 0,45,46
 1130 870 1130 870 1111 867 c 0,47,48
 1043 857 1043 857 1000 815 c 0,49,50
 965 781 965 781 946 725 c 0,51,52
 915 639 915 639 915 542 c 2,53,-1
 915 112 l 2,54,55
 915 95 915 95 921 84 c 128,-1,56
 927 73 927 73 940 68 c 0,57,58
 992 49 992 49 992 16 c 0,59,60
 992 -2 992 -2 980 -12 c 0,61,62
 971 -20 971 -20 956 -20 c 2,63,-1
 698 -20 l 2,64,65
 684 -20 684 -20 674 -12 c 0,66,67
 662 -2 662 -2 662 16 c 0,68,69
 662 49 662 49 714 68 c 0,70,71
 728 73 728 73 733 84 c 0,72,73
 739 95 739 95 739 112 c 2,74,-1
 739 542 l 2,75,76
 739 640 739 640 708 725 c 0,77,78
 688 781 688 781 653 815 c 0,79,80
 610 857 610 857 543 867 c 0,81,82
 524 870 524 870 507 870 c 0,83,84
 410 870 410 870 339 781 c 0,85,86
 295 723 295 723 276 645 c 0,87,88
 257 570 257 570 257 500 c 0,89,90
 257 481 257 481 258 462 c 0,91,92
 268 311 268 311 371 170 c 0,93,94
 410 117 410 117 477 65 c 0,95,96
 508 40 508 40 516 31 c 0,97,98
 522 24 522 24 522 16 c 0,99,100
 522 2 522 2 514 -8 c 0,101,102
 504 -20 504 -20 486 -20 c 2,103,-1
 184 -20 l 2,104,105
 166 -20 166 -20 156 -8 c 0,106,107
 148 1 148 1 148 16 c 0,108,109
 148 62 148 62 220 64 c 0,110,111
 238 65 238 65 248 70 c 0,112,113
 254 74 254 74 254 82 c 0,114,115
 249 96 249 96 221 131 c 0,116,117
 147 217 147 217 96 319 c 0,118,119
 46 420 46 420 42 526 c 1,120,-1
 42 527 l 1,121,-1
 42 543 l 2,122,123
 42 713 42 713 179 850 c 0,124,125
 313 984 313 984 499 984 c 0,0,1
EndSplineSet
Validated: 1
EndChar

StartChar: uniF226
Encoding: 61990 61990 158
Width: 1624
Flags: MW
LayerCount: 2
Fore
SplineSet
1567 521 m 0,0,1
 1567 395 1567 395 1522 276 c 128,-1,2
 1477 157 1477 157 1403 55 c 0,3,4
 1272 -120 1272 -120 1095 -208 c 0,5,6
 1083 -213 1083 -213 1073 -219 c 0,7,8
 1062 -225 1062 -225 1050 -231 c 0,9,10
 1038 -235 1038 -235 1036 -235 c 2,11,-1
 1034 -235 l 2,12,13
 1027 -235 1027 -235 1019 -231 c 0,14,15
 1006 -223 1006 -223 1006 -198 c 0,16,17
 1006 -190 1006 -190 1010 -185 c 0,18,19
 1014 -179 1014 -179 1022 -172 c 128,-1,20
 1030 -165 1030 -165 1050 -150 c 0,21,22
 1131 -89 1131 -89 1190 -19 c 0,23,24
 1248 51 1248 51 1289 128 c 0,25,26
 1367 271 1367 271 1367 441 c 2,27,-1
 1367 520 l 2,28,29
 1367 586 1367 586 1347 644 c 128,-1,30
 1327 702 1327 702 1301 744 c 0,31,32
 1279 780 1279 780 1230 817 c 0,33,34
 1182 855 1182 855 1129 855 c 2,35,-1
 1121 855 l 2,36,37
 1067 855 1067 855 1024 825 c 128,-1,38
 981 795 981 795 956 764 c 0,39,40
 897 685 897 685 897 546 c 2,41,-1
 897 113 l 2,42,43
 897 96 897 96 902 86 c 0,44,45
 907 75 907 75 921 70 c 0,46,47
 972 51 972 51 972 19 c 0,48,49
 972 6 972 6 965 -4 c 0,50,51
 955 -17 955 -17 937 -17 c 2,52,-1
 679 -20 l 2,53,54
 665 -20 665 -20 655 -12 c 0,55,56
 643 -2 643 -2 643 16 c 0,57,58
 643 48 643 48 694 66 c 0,59,60
 707 71 707 71 713 82 c 0,61,62
 718 93 718 93 718 109 c 2,63,-1
 718 527 l 2,64,65
 718 609 718 609 710 658 c 128,-1,66
 702 707 702 707 668 757 c 0,67,68
 645 791 645 791 597 822 c 128,-1,69
 549 853 549 853 492 853 c 2,70,-1
 487 853 l 2,71,72
 465 853 465 853 434 840 c 128,-1,73
 403 827 403 827 389 817 c 0,74,75
 350 790 350 790 321 746 c 0,76,77
 296 709 296 709 277 646 c 128,-1,78
 258 583 258 583 258 521 c 2,79,-1
 258 458 l 2,80,81
 258 380 258 380 279 323 c 0,82,83
 298 270 298 270 327 213 c 0,84,85
 347 174 347 174 387 132 c 0,86,87
 428 91 428 91 464 63 c 0,88,89
 494 39 494 39 501 31 c 0,90,91
 508 24 508 24 508 16 c 0,92,93
 508 2 508 2 501 -7 c 0,94,95
 491 -20 491 -20 473 -20 c 2,96,-1
 199 -20 l 2,97,98
 181 -20 181 -20 171 -7 c 0,99,100
 164 2 164 2 164 16 c 0,101,102
 164 35 164 35 178 47 c 0,103,104
 196 63 196 63 235 63 c 0,105,106
 253 63 253 63 261 68 c 0,107,108
 267 71 267 71 267 80 c 0,109,110
 267 82 267 82 263 89 c 128,-1,111
 259 96 259 96 245 110 c 0,112,113
 217 137 217 137 207 149 c 0,114,115
 178 178 178 178 140 234 c 0,116,117
 114 273 114 273 88 335 c 0,118,119
 62 398 62 398 62 463 c 2,120,-1
 62 517 l 2,121,122
 62 612 62 612 104 695 c 0,123,124
 146 779 146 779 195 828 c 128,-1,125
 244 877 244 877 324 916 c 0,126,127
 404 956 404 956 506 956 c 2,128,-1
 532 956 l 2,129,130
 587 956 587 956 636 938 c 0,131,132
 690 918 690 918 721 900 c 0,133,134
 761 874 761 874 789 846 c 0,135,136
 799 836 799 836 813 819 c 128,-1,137
 827 802 827 802 833 794 c 1,138,139
 839 801 839 801 854 820 c 0,140,141
 871 840 871 840 877 847 c 0,142,143
 919 886 919 886 949 905 c 0,144,145
 1029 956 1029 956 1163 956 c 2,146,-1
 1167 956 l 2,147,148
 1261 956 1261 956 1333 915 c 0,149,150
 1407 872 1407 872 1453 826 c 0,151,152
 1499 779 1499 779 1533 696 c 128,-1,153
 1567 613 1567 613 1567 521 c 0,0,1
EndSplineSet
Validated: 1
EndChar

StartChar: uni0394
Encoding: 916 916 159
Width: 1090
Flags: MW
LayerCount: 2
Fore
SplineSet
568 1104 m 1,0,-1
 196 122 l 1,1,-1
 930 122 l 1,2,-1
 568 1104 l 1,0,-1
581 1504 m 1,3,-1
 1140 -20 l 1,4,-1
 6 -20 l 1,5,-1
 581 1504 l 1,3,-1
EndSplineSet
Validated: 1
EndChar

StartChar: uniFB06
Encoding: 64262 64262 160
Width: 1602
Flags: MW
LayerCount: 2
Fore
SplineSet
1381 1 m 2,0,1
 1381 -19 1381 -19 1361 -19 c 0,2,3
 1109 -19 1109 -19 1048.5 41.5 c 128,-1,4
 988 102 988 102 988 250 c 2,5,-1
 988 824 l 1,6,-1
 894 820 l 1,7,-1
 888 820 l 2,8,9
 870 820 870 820 859 831 c 128,-1,10
 848 842 848 842 848 860 c 2,11,-1
 848 862 l 2,12,13
 848 891 848 891 883 907 c 0,14,15
 898 914 898 914 935 933.5 c 128,-1,16
 972 953 972 953 988 960 c 1,17,-1
 988 1116 l 2,18,19
 988 1138 988 1138 991 1154 c 1,20,21
 971 1160 971 1160 954 1160 c 0,22,23
 877 1160 877 1160 825.5 1082 c 128,-1,24
 774 1004 774 1004 774 895 c 2,25,-1
 774 891 l 1,26,27
 796 879 796 879 796 867 c 0,28,29
 796 866 796 866 775 689 c 0,30,31
 771 657 771 657 739 657 c 2,32,-1
 736 657 l 2,33,34
 711 657 711 657 696 693 c 0,35,36
 662 763 662 763 597.5 810 c 128,-1,37
 533 857 533 857 460 860 c 1,38,-1
 456 860 l 2,39,40
 399 860 399 860 361 840 c 128,-1,41
 323 820 323 820 309 806 c 0,42,43
 274 771 274 771 274 724.5 c 128,-1,44
 274 678 274 678 291 661 c 128,-1,45
 308 644 308 644 348 624 c 128,-1,46
 388 604 388 604 499 579 c 128,-1,47
 610 554 610 554 722.5 502 c 128,-1,48
 835 450 835 450 845 282 c 0,49,50
 845 281 845 281 845 281 c 2,51,-1
 845 271 l 2,52,53
 845 190 845 190 781.5 108 c 128,-1,54
 718 26 718 26 619 -8 c 0,55,56
 511 -45 511 -45 427 -45 c 2,57,-1
 400 -45 l 2,58,59
 275 -45 275 -45 160 -12 c 0,60,61
 150 -9 150 -9 146 0 c 2,62,-1
 65 220 l 2,63,64
 64 223 64 223 64 226 c 0,65,66
 64 282 64 282 105 282 c 2,67,-1
 107 282 l 2,68,69
 130 282 130 282 146 246 c 0,70,71
 189 152 189 152 251 114 c 128,-1,72
 313 76 313 76 409 73 c 1,73,-1
 421 73 l 2,74,75
 488 73 488 73 545.5 95.5 c 128,-1,76
 603 118 603 118 627 142 c 128,-1,77
 651 166 651 166 653 216 c 1,78,-1
 653 222 l 2,79,80
 653 315 653 315 564 340 c 2,81,-1
 370 395 l 2,82,83
 277 421 277 421 185 483 c 128,-1,84
 93 545 93 545 93 670 c 2,85,-1
 93 675 l 1,86,87
 94 842 94 842 215.5 909.5 c 128,-1,88
 337 977 337 977 474 977 c 0,89,90
 535 977 535 977 608 960 c 1,91,92
 635 1073 635 1073 722 1155 c 0,93,94
 738 1170 738 1170 767 1180.5 c 128,-1,95
 796 1191 796 1191 871.5 1220 c 128,-1,96
 947 1249 947 1249 983.5 1249 c 128,-1,97
 1020 1249 1020 1249 1069 1236 c 1,98,99
 1144 1273 1144 1273 1168 1273 c 0,100,101
 1208 1273 1208 1273 1208 1227 c 2,102,-1
 1208 968 l 1,103,-1
 1427 973 l 1,104,-1
 1428 973 l 2,105,106
 1463 973 1463 973 1463 926 c 0,107,108
 1463 826 1463 826 1394 826 c 128,-1,109
 1325 826 1325 826 1208 827 c 1,110,-1
 1208 220 l 2,111,112
 1208 139 1208 139 1266 98.5 c 128,-1,113
 1324 58 1324 58 1364 53 c 0,114,115
 1381 51 1381 51 1381 33 c 2,116,-1
 1381 1 l 2,0,1
EndSplineSet
Validated: 1
EndChar

StartChar: uniF203
Encoding: 61955 61955 161
Width: 992
Flags: MW
LayerCount: 2
Fore
SplineSet
313 369 m 128,-1,1
 270 318 270 318 270 252.5 c 128,-1,2
 270 187 270 187 311.5 143 c 128,-1,3
 353 99 353 99 438 99 c 128,-1,4
 523 99 523 99 662 182 c 1,5,-1
 662 517 l 1,6,-1
 437 446 l 2,7,0
 356 420 356 420 313 369 c 128,-1,1
706 -15 m 2,8,9
 662 -15 662 -15 662 24 c 2,10,-1
 662 64 l 1,11,12
 491 -1 491 -1 442.5 -18 c 128,-1,13
 394 -35 394 -35 339 -35 c 128,-1,14
 284 -35 284 -35 222 -13 c 0,15,16
 129 20 129 20 89 99 c 0,17,18
 69 138 69 138 68 175 c 0,19,20
 68 275 68 275 96 351 c 128,-1,21
 124 427 124 427 224 475 c 1,22,23
 127 533 127 533 127 635 c 0,24,25
 127 672 127 672 141 717 c 0,26,27
 195 889 195 889 309.5 930 c 128,-1,28
 424 971 424 971 519 971 c 128,-1,29
 614 971 614 971 698 934 c 0,30,31
 812 880 812 880 850 746 c 0,32,33
 862 708 862 708 862 608 c 2,34,-1
 863 133 l 2,35,36
 863 82 863 82 901 71 c 0,37,38
 960 54 960 54 960 19.5 c 128,-1,39
 960 -15 960 -15 925 -15 c 2,40,-1
 706 -15 l 2,8,9
622 768 m 1,41,42
 577 834 577 834 469.5 834 c 128,-1,43
 362 834 362 834 313 780 c 128,-1,44
 264 726 264 726 264 687.5 c 128,-1,45
 264 649 264 649 276 622.5 c 128,-1,46
 288 596 288 596 306 566 c 128,-1,47
 324 536 324 536 364 530 c 1,48,-1
 662 640 l 1,49,50
 660 727 660 727 622 767 c 1,51,-1
 622 768 l 1,41,42
EndSplineSet
Validated: 1
EndChar

StartChar: uniA737
Encoding: 42807 42807 162
Width: 1839
Flags: MW
LayerCount: 2
Fore
SplineSet
886 87 m 1,0,-1
 832 69 l 1,1,-1
 557 -32 l 2,2,3
 520 -45 520 -45 494 -45 c 2,4,-1
 452 -45 l 1,5,6
 298 -37 298 -37 190 77 c 0,7,8
 81 193 81 193 66 358 c 0,9,10
 62 400 62 400 62 440 c 0,11,12
 62 493 62 493 69 543 c 0,13,14
 82 632 82 632 138 720 c 1,15,16
 165 767 165 767 232 818 c 1,17,18
 257 835 257 835 287 848 c 1,19,20
 368 878 368 878 448.5 908 c 128,-1,21
 529 938 529 938 610 968 c 0,22,23
 632 976 632 976 652 976 c 2,24,-1
 658 976 l 1,25,26
 726 973 726 973 822 942 c 0,27,28
 832 939 832 939 834 937 c 1,29,30
 854 929 854 929 885 919 c 0,31,32
 893 916 893 916 900 916 c 0,33,34
 906 916 906 916 910 919 c 0,35,36
 929 935 929 935 936 945 c 0,37,38
 949 962 949 962 971 962 c 0,39,40
 982 962 982 962 991 958 c 0,41,42
 1028 945 1028 945 1028 920 c 2,43,-1
 1028 437 l 2,44,45
 1028 285 1028 285 1076 193 c 0,46,47
 1117 113 1117 113 1191 94 c 0,48,49
 1212 88 1212 88 1234 88 c 256,50,51
 1256 88 1256 88 1279 94 c 1,52,53
 1304 97 1304 97 1328 106.5 c 128,-1,54
 1352 116 1352 116 1381 127 c 2,55,-1
 1462 156 l 1,56,-1
 1471 160 l 1,57,-1
 1471 764 l 2,58,59
 1471 815 1471 815 1421 833 c 128,-1,60
 1371 851 1371 851 1371 890 c 0,61,62
 1371 931 1371 931 1416 931 c 1,63,64
 1478 934 1478 934 1540.5 951 c 128,-1,65
 1603 968 1603 968 1702 1001 c 1,66,-1
 1702 146 l 2,67,68
 1702 94 1702 94 1752 76.5 c 128,-1,69
 1802 59 1802 59 1802 21 c 0,70,71
 1802 -20 1802 -20 1756 -20 c 2,72,-1
 1513 -20 l 2,73,74
 1471 -20 1471 -20 1471 13 c 2,75,-1
 1471 59 l 1,76,-1
 1276 -16 l 2,77,78
 1212 -40 1212 -40 1148 -40 c 0,79,80
 1097 -40 1097 -40 1049 -25 c 0,81,82
 937 8 937 8 886 87 c 1,0,-1
797 762 m 1,83,84
 765 792 765 792 702.5 822 c 128,-1,85
 640 852 640 852 594 854 c 1,86,-1
 591 854 l 2,87,88
 577 854 577 854 561 848 c 0,89,90
 525 835 525 835 489.5 821.5 c 128,-1,91
 454 808 454 808 418 795 c 1,92,93
 399 787 399 787 388 775 c 0,94,95
 330 713 330 713 310 624 c 1,96,97
 293 554 293 554 293 486 c 0,98,99
 293 465 293 465 295 442 c 0,100,101
 306 303 306 303 370 217 c 1,102,103
 432 130 432 130 524 105 c 0,104,105
 558 95 558 95 593 95 c 0,106,107
 604 95 604 95 615 96 c 0,108,109
 633 98 633 98 660 107 c 0,110,111
 683 115 683 115 732 133.5 c 128,-1,112
 781 152 781 152 797 158 c 1,113,-1
 797 762 l 1,83,84
EndSplineSet
Validated: 1
EndChar

StartChar: uni204B
Encoding: 8267 8267 163
Width: 1190
Flags: MW
LayerCount: 2
Fore
SplineSet
415 -553 m 1,0,-1
 415 1288 l 1,1,-1
 299 1288 l 1,2,-1
 299 -553 l 1,3,-1
 225 -553 l 1,4,-1
 227 1222 l 2,5,6
 227 1285 227 1285 178.5 1302.5 c 128,-1,7
 130 1320 130 1320 130 1344 c 0,8,9
 130 1365 130 1365 150 1365 c 2,10,-1
 724 1365 l 2,11,12
 825 1365 825 1365 933.5 1329.5 c 128,-1,13
 1042 1294 1042 1294 1102 1192 c 1,14,15
 1147 1112 1147 1112 1149 994 c 1,16,17
 1146 883 1146 883 1085 797 c 0,18,19
 1032 722 1032 722 936 685.5 c 128,-1,20
 840 649 840 649 759 649 c 2,21,-1
 505 649 l 1,22,-1
 505 -553 l 1,23,-1
 415 -553 l 1,0,-1
505 1285 m 1,24,-1
 505 717 l 1,25,-1
 628 717 l 2,26,27
 695 717 695 717 764 736.5 c 128,-1,28
 833 756 833 756 883 805 c 0,29,30
 960 881 960 881 960 1000 c 2,31,-1
 960 1003 l 2,32,33
 960 1124 960 1124 880 1201 c 0,34,35
 792 1285 792 1285 647 1285 c 2,36,-1
 505 1285 l 1,24,-1
EndSplineSet
Validated: 1
EndChar

StartChar: uni1EFC
Encoding: 7932 7932 164
Width: 1277
Flags: MW
LayerCount: 2
Fore
SplineSet
641 999 m 1,0,-1
 641 1132 l 1,1,-1
 675 1144 l 2,2,3
 717 1159 717 1159 747 1159 c 0,4,5
 780 1159 780 1159 798 1158 c 0,6,7
 888 1155 888 1155 970.5 1113.5 c 128,-1,8
 1053 1072 1053 1072 1111 1011 c 1,9,10
 1237 873 1237 873 1256 678 c 0,11,12
 1261 628 1261 628 1261 580 c 0,13,14
 1261 515 1261 515 1252 456 c 0,15,16
 1236 350 1236 350 1171 245 c 0,17,18
 1134 186 1134 186 1057 128 c 0,19,20
 1028 106 1028 106 993 93 c 0,21,22
 896 57 896 57 799.5 21 c 128,-1,23
 703 -15 703 -15 607 -50 c 0,24,25
 579 -60 579 -60 551 -60 c 1,26,27
 472 -56 472 -56 358 -20 c 0,28,29
 348 -17 348 -17 342 -15 c 0,30,31
 322 -7 322 -7 292 3 c 0,32,33
 284 6 284 6 277 6 c 0,34,35
 272 6 272 6 269 3 c 0,36,37
 250 -12 250 -12 243 -20 c 1,38,39
 231 -37 231 -37 209 -37 c 0,40,41
 199 -37 199 -37 190 -33 c 0,42,43
 153 -20 153 -20 153 3 c 2,44,-1
 153 977 l 2,45,46
 153 1027 153 1027 104.5 1044.5 c 128,-1,47
 56 1062 56 1062 56 1100 c 0,48,49
 56 1140 56 1140 101 1140 c 1,50,51
 161 1143 161 1143 221.5 1159 c 128,-1,52
 282 1175 282 1175 379 1208 c 1,53,-1
 379 193 l 1,54,55
 418 155 418 155 504.5 117.5 c 128,-1,56
 591 80 591 80 647 78 c 0,57,58
 669 78 669 78 690 85 c 0,59,60
 762 112 762 112 862 149 c 0,61,62
 883 156 883 156 900 175 c 0,63,64
 969 249 969 249 995 357 c 0,65,66
 1014 440 1014 440 1014 522 c 0,67,68
 1014 549 1014 549 1012 577 c 0,69,70
 999 744 999 744 922 849 c 0,71,72
 846 953 846 953 734 985 c 0,73,74
 703 993 703 993 641 999 c 1,0,-1
EndSplineSet
Validated: 1
EndChar

StartChar: uni1EFE
Encoding: 7934 7934 165
Width: 1338
Flags: MW
LayerCount: 2
Fore
SplineSet
413 -266 m 0,0,1
 163 -266 163 -266 71 -54 c 0,2,3
 57 -21 57 -21 57 13 c 1,4,5
 57 42 57 42 68 70 c 0,6,7
 88 126 88 126 145 180 c 2,8,-1
 183 216 l 1,9,-1
 170 165 l 2,10,11
 165 148 165 148 165 122 c 0,12,13
 165 80 165 80 200 25 c 0,14,15
 246 -46 246 -46 319 -83 c 0,16,17
 373 -109 373 -109 431 -109 c 0,18,19
 453 -109 453 -109 475 -105 c 0,20,21
 506 -100 506 -100 534.5 -77 c 128,-1,22
 563 -54 563 -54 594 8 c 2,23,-1
 708 240 l 1,24,-1
 287 1240 l 2,25,26
 270 1281 270 1281 237 1302.5 c 128,-1,27
 204 1324 204 1324 179 1334.5 c 128,-1,28
 154 1345 154 1345 143 1353 c 128,-1,29
 132 1361 132 1361 128 1370 c 0,30,31
 122 1385 122 1385 122 1393 c 0,32,33
 122 1418 122 1418 153 1418 c 2,34,-1
 558 1418 l 2,35,36
 579 1418 579 1418 589 1396 c 0,37,38
 596 1380 596 1380 596 1372 c 0,39,40
 596 1348 596 1348 564 1332 c 0,41,42
 543 1322 543 1322 538 1304 c 0,43,44
 536 1298 536 1298 534 1279 c 1,45,-1
 534 1276 l 2,46,47
 534 1274 534 1274 535 1272 c 2,48,-1
 830 541 l 1,49,-1
 1103 1152 l 2,50,51
 1113 1174 1113 1174 1113 1195 c 0,52,53
 1113 1232 1113 1232 1083 1267 c 2,54,-1
 1034 1326 l 1,55,-1
 1157 1425 l 2,56,57
 1166 1431 1166 1431 1178 1431 c 0,58,59
 1187 1431 1187 1431 1199.5 1420.5 c 128,-1,60
 1212 1410 1212 1410 1238 1384 c 2,61,-1
 1263 1358 l 2,62,63
 1297 1324 1297 1324 1297 1280 c 0,64,65
 1297 1239 1297 1239 1232 1106 c 1,66,-1
 692 -96 l 2,67,68
 625 -246 625 -246 488 -262 c 2,69,-1
 488 -262 l 2,70,71
 449 -266 449 -266 413 -266 c 0,0,1
EndSplineSet
Validated: 1
EndChar

StartChar: uni1E9E
Encoding: 7838 7838 166
Width: 1269
Flags: MW
LayerCount: 2
Fore
SplineSet
527 52 m 1,0,-1
 464 225 l 1,1,-1
 466 248 l 2,2,3
 468 282 468 282 509 282 c 2,4,-1
 514 282 l 1,5,6
 539 277 539 277 555 245 c 0,7,8
 599 151 599 151 659.5 113.5 c 128,-1,9
 720 76 720 76 813 73 c 1,10,-1
 825 73 l 2,11,12
 891 73 891 73 971 104 c 0,13,14
 1049 135 1049 135 1052 216 c 1,15,-1
 1052 222 l 2,16,17
 1052 316 1052 316 967 340 c 0,18,19
 861 370 861 370 781 393 c 1,20,21
 678 421 678 421 587 483 c 0,22,23
 492 547 492 547 492 672 c 2,24,-1
 492 675 l 2,25,26
 492 782 492 782 561.5 835.5 c 128,-1,27
 631 889 631 889 693 947 c 0,28,29
 753 1002 753 1002 765 1095 c 0,30,31
 767 1114 767 1114 767 1133 c 0,32,33
 767 1201 767 1201 732 1251 c 0,34,35
 692 1307 692 1307 605 1316 c 0,36,37
 594 1317 594 1317 583 1317 c 0,38,39
 515 1317 515 1317 478 1268 c 0,40,41
 447 1226 447 1226 442.5 1160 c 128,-1,42
 438 1094 438 1094 438 1027 c 2,43,-1
 438 146 l 2,44,45
 438 94 438 94 488 77 c 0,46,47
 515 67 515 67 527 52 c 1,0,-1
538 22 m 1,48,-1
 538 21 l 2,49,50
 538 -20 538 -20 492 -20 c 2,51,-1
 153 -20 l 2,52,53
 107 -20 107 -20 107 21 c 0,54,55
 107 59 107 59 157 76.5 c 128,-1,56
 207 94 207 94 207 146 c 2,57,-1
 207 1027 l 2,58,59
 207 1119 207 1119 230.5 1207.5 c 128,-1,60
 254 1296 254 1296 313 1362 c 1,61,62
 421 1486 421 1486 580 1486 c 0,63,64
 615 1486 615 1486 652 1480 c 0,65,66
 839 1447 839 1447 928 1272 c 0,67,68
 962 1204 962 1204 962 1140 c 0,69,70
 962 1040 962 1040 878 950 c 0,71,72
 822 890 822 890 761 847.5 c 128,-1,73
 700 805 700 805 688 748 c 0,74,75
 683 727 683 727 683 711 c 0,76,77
 683 659 683 659 727 638 c 0,78,79
 795 604 795 604 886 583 c 0,80,81
 1018 554 1018 554 1131 501.5 c 128,-1,82
 1244 449 1244 449 1254 281 c 1,83,-1
 1254 269 l 2,84,85
 1254 190 1254 190 1193 113 c 1,86,87
 1127 27 1127 27 1002 -16 c 0,88,89
 925 -42 925 -42 832 -45 c 1,90,-1
 804 -45 l 2,91,92
 678 -45 678 -45 549 -8 c 1,93,-1
 538 22 l 1,48,-1
EndSplineSet
Validated: 1
EndChar

StartChar: uni1D79
Encoding: 7545 7545 167
Width: 1056
Flags: MW
LayerCount: 2
Fore
SplineSet
802 734 m 2,0,-1
 315 734 l 2,1,2
 282 734 282 734 274 727 c 128,-1,3
 266 720 266 720 255 680 c 0,4,5
 235 607 235 607 189 607 c 128,-1,6
 143 607 143 607 143 647 c 2,7,-1
 143 873 l 1,8,9
 145 929 145 929 205 929 c 2,10,-1
 948 929 l 2,11,12
 989 929 989 929 989 883 c 2,13,-1
 989 773 l 1,14,15
 981 649 981 649 798.5 568.5 c 128,-1,16
 616 488 616 488 347 323 c 0,17,18
 316 304 316 304 316 289 c 128,-1,19
 316 274 316 274 326 260 c 0,20,21
 355 218 355 218 438 199 c 0,22,23
 604 162 604 162 716 134 c 0,24,25
 866 97 866 97 876 -73 c 1,26,-1
 876 -83 l 2,27,28
 876 -161 876 -161 815.5 -246 c 128,-1,29
 755 -331 755 -331 630 -369 c 1,30,31
 552 -391 552 -391 496.5 -391 c 128,-1,32
 441 -391 441 -391 415 -389 c 0,33,34
 297 -380 297 -380 220 -349 c 128,-1,35
 143 -318 143 -318 93 -265 c 128,-1,36
 43 -212 43 -212 42 -140 c 1,37,-1
 42 -130 l 2,38,39
 42 3 42 3 120 58.5 c 128,-1,40
 198 114 198 114 221 120 c 1,41,42
 106 185 106 185 106 248 c 1,43,44
 104 248 104 248 105 269 c 0,45,46
 107 352 107 352 224 420 c 1,47,-1
 802 734 l 2,0,-1
190 -112 m 0,48,49
 190 -132 190 -132 193 -148 c 0,50,51
 201 -192 201 -192 251 -228 c 0,52,53
 303 -266 303 -266 448 -279 c 0,54,55
 459 -280 459 -280 495 -280 c 0,56,57
 528 -280 528 -280 582 -259 c 128,-1,58
 636 -238 636 -238 657 -193 c 128,-1,59
 678 -148 678 -148 678 -121 c 0,60,61
 678 -95 678 -95 659 -66 c 0,62,63
 640 -36 640 -36 585 -12 c 0,64,65
 529 13 529 13 459 28 c 128,-1,66
 389 43 389 43 349 57 c 1,67,68
 334 56 334 56 252 5 c 0,69,70
 190 -34 190 -34 190 -112 c 0,48,49
EndSplineSet
Validated: 1
EndChar

StartChar: uni1D35
Encoding: 7477 7477 168
Width: 492
Flags: MW
LayerCount: 2
Fore
SplineSet
358 771 m 0,0,1
 358 465 358 465 358 160 c 0,2,3
 358 137 358 137 366 121 c 128,-1,4
 374 105 374 105 395 99 c 0,5,6
 458 78 458 78 458 40 c 0,7,8
 458 25 458 25 450 14 c 0,9,10
 439 0 439 0 418 0 c 2,11,-1
 85 0 l 2,12,13
 69 0 69 0 58 9 c 0,14,15
 44 20 44 20 44 40 c 0,16,17
 44 78 44 78 107 98 c 0,18,19
 127 105 127 105 135.5 120.5 c 128,-1,20
 144 136 144 136 144 159 c 0,21,22
 144 465 144 465 144 772 c 0,23,24
 144 795 144 795 136 810 c 128,-1,25
 128 825 128 825 107 832 c 0,26,27
 44 854 44 854 44 892 c 0,28,29
 44 912 44 912 58 923 c 0,30,31
 69 931 69 931 85 931 c 2,32,-1
 418 931 l 2,33,34
 439 931 439 931 450 917 c 0,35,36
 458 907 458 907 458 892 c 0,37,38
 458 854 458 854 395 832 c 0,39,40
 375 825 375 825 366.5 809.5 c 128,-1,41
 358 794 358 794 358 771 c 0,0,1
EndSplineSet
Validated: 1
EndChar

StartChar: uni02C8
Encoding: 712 712 169
Width: 626
Flags: MW
LayerCount: 2
Fore
SplineSet
244 1250 m 1,0,-1
 244 1679 l 1,1,-1
 410 1679 l 1,2,-1
 410 1250 l 1,3,-1
 244 1250 l 1,0,-1
EndSplineSet
Validated: 1
EndChar

StartChar: uni01F6
Encoding: 502 502 170
Width: 2645
Flags: MW
LayerCount: 2
Fore
SplineSet
1460 1242 m 4,0,1
 1461 1064 1461 1064 1461 990 c 4,2,3
 1460 916 1460 916 1460 743 c 4,4,5
 1460 735 1460 735 1460 727 c 4,6,7
 1460 564 1460 564 1470 460 c 4,8,9
 1480 350 1480 350 1520 276.5 c 132,-1,10
 1560 203 1560 203 1642.5 164.5 c 132,-1,11
 1725 126 1725 126 1856 126 c 132,-1,12
 1987 126 1987 126 2078 168.5 c 132,-1,13
 2169 211 2169 211 2221 316 c 4,14,15
 2286 452 2286 452 2286 714 c 6,16,17
 2286 714 2286 714 2286 1242 c 4,18,19
 2286 1291 2286 1291 2249 1303 c 4,20,21
 2185 1325 2185 1325 2185 1364.5 c 132,-1,22
 2185 1404 2185 1404 2226 1404 c 6,23,-1
 2482 1404 l 6,24,25
 2523 1404 2523 1404 2523 1364.5 c 132,-1,26
 2523 1325 2523 1325 2460 1303 c 4,27,28
 2423 1290 2423 1290 2423 1241 c 6,29,30
 2423 1241 2423 1241 2423 590 c 4,31,32
 2423 443 2423 443 2396 319.5 c 132,-1,33
 2369 196 2369 196 2293 111 c 4,34,35
 2159 -39 2159 -39 1873 -39 c 4,36,37
 1695 -39 1695 -39 1567.5 -6.5 c 132,-1,38
 1440 26 1440 26 1363 112 c 4,39,40
 1234 253 1234 253 1234 580 c 6,41,-1
 1234 677 l 5,42,-1
 412 677 l 5,43,-1
 412 161 l 6,44,45
 412 111 412 111 449 100 c 4,46,47
 513 78 513 78 513 39 c 132,-1,48
 513 0 513 0 471 0 c 6,49,-1
 132 0 l 6,50,51
 92 0 92 0 92 39.5 c 132,-1,52
 92 79 92 79 155 100 c 4,53,54
 192 113 192 113 192 162 c 6,55,56
 192 162 192 162 192 1241 c 4,57,58
 192 1291 192 1291 155 1303 c 4,59,60
 92 1325 92 1325 92 1364.5 c 132,-1,61
 92 1404 92 1404 133 1404 c 6,62,-1
 474 1404 l 6,63,64
 514 1404 514 1404 516 1364 c 4,65,66
 516 1325 516 1325 451 1303 c 4,67,68
 414 1291 414 1291 414 1242 c 6,69,-1
 414 809 l 5,70,-1
 1236 809 l 5,71,-1
 1236 1242 l 6,72,73
 1236 1292 1236 1292 1198 1303 c 4,74,75
 1133 1325 1133 1325 1133 1364 c 4,76,77
 1133 1380 1133 1380 1143 1392 c 132,-1,78
 1153 1404 1153 1404 1175 1404 c 6,79,-1
 1521 1404 l 6,80,81
 1562 1404 1562 1404 1562 1364.5 c 132,-1,82
 1562 1325 1562 1325 1498 1303 c 4,83,84
 1462 1291 1462 1291 1460 1242 c 4,0,1
EndSplineSet
Validated: 1
EndChar

StartChar: uni01B7
Encoding: 439 439 171
Width: 938
Flags: MW
LayerCount: 2
Fore
SplineSet
658 856 m 1,0,1
 793 790 793 790 859 672 c 1,2,3
 918 569 918 569 918 458 c 0,4,5
 918 450 918 450 917.5 442.5 c 128,-1,6
 917 435 917 435 917 427 c 0,7,8
 899 203 899 203 685 50 c 0,9,10
 574 -29 574 -29 404 -47 c 0,11,12
 378 -50 378 -50 352 -50 c 0,13,14
 215 -50 215 -50 105 33 c 1,15,-1
 99 210 l 1,16,-1
 158 210 l 1,17,18
 222 120 222 120 341 92 c 0,19,20
 388 81 388 81 431 81 c 0,21,22
 506 81 506 81 569 114 c 0,23,24
 664 163 664 163 698 258 c 0,25,26
 717 312 717 312 717 363 c 0,27,28
 717 405 717 405 704 452 c 1,29,30
 674 547 674 547 578 619 c 0,31,32
 485 688 485 688 299 693 c 1,33,-1
 295 753 l 1,34,35
 342 768 342 768 374 793 c 128,-1,36
 406 818 406 818 422 857 c 2,37,-1
 603 1291 l 1,38,-1
 331 1291 l 2,39,40
 283 1291 283 1291 254 1261 c 1,41,42
 219 1223 219 1223 170 1156 c 0,43,44
 133 1106 133 1106 111 1106 c 0,45,46
 65 1106 65 1106 65 1147 c 2,47,-1
 65 1424 l 1,48,-1
 898 1424 l 2,49,50
 944 1424 944 1424 944 1383 c 0,51,52
 944 1344 944 1344 879 1321 c 0,53,54
 864 1315 864 1315 829.5 1251.5 c 128,-1,55
 795 1188 795 1188 759.5 1105.5 c 128,-1,56
 724 1023 724 1023 694 946 c 128,-1,57
 664 869 664 869 658 856 c 1,0,1
EndSplineSet
Validated: 1
EndChar

StartChar: uni019D
Encoding: 413 413 172
Width: 1672
Flags: MW
LayerCount: 2
Fore
SplineSet
493 0 m 1,0,1
 487 -201 487 -201 439.5 -374 c 128,-1,2
 392 -547 392 -547 196 -576 c 1,3,4
 184 -581 184 -581 177 -581 c 1,5,-1
 115 -594 l 1,6,7
 104 -595 104 -595 94 -595 c 0,8,9
 20 -595 20 -595 2 -505 c 0,10,11
 -1 -488 -1 -488 -1 -474 c 0,12,13
 -1 -399 -1 -399 71 -386 c 1,14,-1
 135 -373 l 2,15,16
 147 -370 147 -370 158 -370 c 0,17,18
 230 -370 230 -370 243 -434 c 1,19,20
 309 -370 309 -370 325 -292.5 c 128,-1,21
 341 -215 341 -215 350 20 c 1,22,-1
 350 1222 l 2,23,24
 350 1272 350 1272 301.5 1289.5 c 128,-1,25
 253 1307 253 1307 253 1344 c 0,26,27
 253 1385 253 1385 298 1385 c 2,28,-1
 562 1385 l 1,29,-1
 1454 265 l 1,30,-1
 1454 1222 l 2,31,32
 1454 1272 1454 1272 1405.5 1289.5 c 128,-1,33
 1357 1307 1357 1307 1357 1344 c 0,34,35
 1357 1385 1357 1385 1402 1385 c 2,36,-1
 1650 1385 l 2,37,38
 1695 1385 1695 1385 1695 1344 c 0,39,40
 1695 1307 1695 1307 1646.5 1289.5 c 128,-1,41
 1598 1272 1598 1272 1598 1222 c 2,42,-1
 1597 -69 l 1,43,-1
 1384 -17 l 1,44,-1
 494 1088 l 1,45,-1
 493 0 l 1,0,1
EndSplineSet
Validated: 1
EndChar

StartChar: uni0196
Encoding: 406 406 173
Width: 593
Flags: MW
LayerCount: 2
Fore
SplineSet
271.5 1423.5 m 128,-1,1
 332 1440 332 1440 422 1471 c 1,2,3
 422 625 422 625 422 -222 c 0,4,5
 423 -275 423 -275 440.5 -332 c 128,-1,6
 458 -389 458 -389 488 -423 c 0,7,8
 520 -458 520 -458 557 -480 c 1,9,10
 562 -463 562 -463 567 -486 c 1,11,12
 567 -509 567 -509 567 -573 c 1,13,14
 555 -550 555 -550 542 -566 c 1,15,16
 424 -537 424 -537 331 -439 c 0,17,18
 261 -367 261 -367 234 -267 c 0,19,20
 207 -170 207 -170 207 25 c 0,21,22
 207 631 207 631 207 1241 c 0,23,24
 207 1264 207 1264 199 1279.5 c 128,-1,25
 191 1295 191 1295 170 1302 c 0,26,27
 107 1324 107 1324 107 1364 c 0,28,29
 107 1385 107 1385 121 1395 c 0,30,31
 131 1403 131 1403 147 1404 c 0,32,0
 211 1407 211 1407 271.5 1423.5 c 128,-1,1
EndSplineSet
Validated: 1
EndChar

StartChar: uni0195
Encoding: 405 405 174
Width: 1771
Flags: MW
LayerCount: 2
Fore
SplineSet
1697 413 m 1,0,1
 1698 400 1698 400 1698 386 c 0,2,3
 1698 263 1698 263 1644 176 c 0,4,5
 1584 78 1584 78 1366 6 c 0,6,7
 1270 -25 1270 -25 1189 -30 c 0,8,9
 1179 -31 1179 -31 1168 -31 c 0,10,11
 1092 -31 1092 -31 1015 6 c 0,12,13
 912 56 912 56 871 153 c 1,14,15
 828 250 828 250 828 483 c 2,16,-1
 828 504 l 2,17,18
 828 690 828 690 738 780 c 1,19,20
 684 832 684 832 613 832 c 0,21,22
 569 832 569 832 518 813 c 2,23,-1
 391 766 l 1,24,-1
 391 142 l 2,25,26
 391 92 391 92 439.5 74.5 c 128,-1,27
 488 57 488 57 488 20 c 0,28,29
 488 -20 488 -20 443 -20 c 2,30,-1
 114 -20 l 2,31,32
 69 -20 69 -20 69 20 c 0,33,34
 69 57 69 57 117.5 74.5 c 128,-1,35
 166 92 166 92 166 142 c 2,36,-1
 166 1222 l 2,37,38
 166 1272 166 1272 117.5 1289.5 c 128,-1,39
 69 1307 69 1307 69 1344 c 0,40,41
 69 1385 69 1385 113 1385 c 1,42,43
 173 1388 173 1388 233.5 1404 c 128,-1,44
 294 1420 294 1420 391 1453 c 1,45,-1
 391 867 l 1,46,-1
 558 930 l 2,47,48
 621 954 621 954 684 954 c 0,49,50
 700 954 700 954 718 953 c 1,51,52
 796 944 796 944 856 911 c 0,53,54
 965 849 965 849 1005 752 c 1,55,56
 1042 659 1042 659 1042 427 c 2,57,-1
 1042 414 l 2,58,59
 1042 328 1042 328 1060.5 257 c 128,-1,60
 1079 186 1079 186 1112 159 c 1,61,62
 1149 127 1149 127 1204 99 c 0,63,64
 1225 88 1225 88 1254 88 c 0,65,66
 1292 88 1292 88 1345 105 c 1,67,68
 1472 149 1472 149 1477 231 c 0,69,70
 1484 340 1484 340 1484 452 c 2,71,-1
 1484 480 l 1,72,73
 1483 605 1483 605 1483 731 c 0,74,75
 1483 780 1483 780 1431 797.5 c 128,-1,76
 1379 815 1379 815 1379 853 c 0,77,78
 1379 893 1379 893 1424 893 c 1,79,80
 1476 895 1476 895 1531 909 c 0,81,82
 1565 917 1565 917 1596.5 927 c 128,-1,83
 1628 937 1628 937 1697 961 c 1,84,-1
 1697 413 l 1,0,1
EndSplineSet
Validated: 1
EndChar

StartChar: uni0194
Encoding: 404 404 175
Width: 1481
Flags: MW
LayerCount: 2
Fore
SplineSet
1245 1429 m 2,0,1
 1257 1439 1257 1439 1272.5 1439 c 128,-1,2
 1288 1439 1288 1439 1303 1424 c 2,3,-1
 1383 1342 l 2,4,5
 1412 1312 1412 1312 1412 1274 c 2,6,-1
 1412 1269 l 2,7,8
 1412 1215 1412 1215 1334 1054 c 2,9,-1
 865 80 l 1,10,11
 897 -4 897 -4 944 -119 c 128,-1,12
 991 -234 991 -234 991 -318 c 2,13,-1
 991 -325 l 1,14,-1
 991 -330 l 2,15,16
 991 -333 991 -333 991 -336 c 0,17,18
 991 -382 991 -382 942.5 -461.5 c 128,-1,19
 894 -541 894 -541 775 -541 c 2,20,-1
 768 -541 l 1,21,-1
 761 -541 l 2,22,23
 758 -541 758 -541 755 -541 c 0,24,25
 679 -541 679 -541 619 -476.5 c 128,-1,26
 559 -412 559 -412 559 -330 c 0,27,28
 559 -229 559 -229 613 -120 c 0,29,30
 634 -79 634 -79 662 -22 c 1,31,32
 646 19 646 19 633 51 c 2,33,-1
 250 1115 l 1,34,35
 215 1208 215 1208 196.5 1250 c 128,-1,36
 178 1292 178 1292 149.5 1311.5 c 128,-1,37
 121 1331 121 1331 98 1340 c 0,38,39
 41 1363 41 1363 41 1393 c 0,40,41
 41 1400 41 1400 46.5 1410.5 c 128,-1,42
 52 1421 52 1421 69 1421 c 2,43,-1
 399 1421 l 2,44,45
 412 1421 412 1421 425 1410 c 0,46,47
 443 1396 443 1396 444 1380 c 0,48,49
 444 1360 444 1360 416.5 1338.5 c 128,-1,50
 389 1317 389 1317 389 1302.5 c 128,-1,51
 389 1288 389 1288 395 1274 c 2,52,-1
 796 250 l 1,53,-1
 1222 1125 l 2,54,55
 1232 1146 1232 1146 1232 1160 c 0,56,57
 1232 1186 1232 1186 1170 1260 c 1,58,-1
 1111 1328 l 1,59,-1
 1245 1429 l 2,0,1
689 -334 m 2,60,-1
 689 -339 l 2,61,62
 689 -363 689 -363 699.5 -389 c 128,-1,63
 710 -415 710 -415 721 -415 c 128,-1,64
 732 -415 732 -415 747.5 -396.5 c 128,-1,65
 763 -378 763 -378 763 -347 c 0,66,67
 763 -313 763 -313 726 -200 c 1,68,69
 689 -284 689 -284 689 -334 c 2,60,-1
EndSplineSet
Validated: 1
EndChar

StartChar: uni0191
Encoding: 401 401 176
Width: 1239
Flags: MW
LayerCount: 2
Fore
SplineSet
249 187 m 0,0,1
 249 713 249 713 249 1241 c 0,2,3
 249 1265 249 1265 241 1281 c 128,-1,4
 233 1297 233 1297 215 1303 c 0,5,6
 155 1325 155 1325 155 1364 c 0,7,8
 155 1385 155 1385 169 1395 c 0,9,10
 180 1404 180 1404 196 1404 c 2,11,-1
 1184 1404 l 1,12,13
 1184 1246 1184 1246 1184 1127 c 0,14,15
 1184 1111 1184 1111 1175 1100 c 0,16,17
 1164 1086 1164 1086 1143 1086 c 0,18,19
 1130 1086 1130 1086 1118 1099 c 128,-1,20
 1106 1112 1106 1112 1090 1135 c 0,21,22
 1041 1203 1041 1203 1005 1239 c 0,23,24
 974 1271 974 1271 922 1271 c 2,25,-1
 478 1271 l 1,26,-1
 478 788 l 1,27,-1
 709 788 l 2,28,29
 744 788 744 788 772 818 c 0,30,31
 790 838 790 838 801 858 c 0,32,33
 819 891 819 891 849 891 c 0,34,35
 872 891 872 891 883 877 c 0,36,37
 892 866 892 866 892 850 c 2,38,-1
 892 596 l 2,39,40
 892 580 892 580 883 569 c 0,41,42
 871 555 871 555 849 555 c 0,43,44
 816 555 816 555 797 592 c 0,45,46
 785 615 785 615 764 636 c 0,47,48
 740 658 740 658 709 658 c 2,49,-1
 478 658 l 1,50,-1
 478 192 l 2,51,52
 478 -3 478 -3 449 -99 c 0,53,54
 419 -199 419 -199 346 -271 c 0,55,56
 252 -367 252 -367 135 -398 c 1,57,58
 122 -381 122 -381 110 -405 c 1,59,60
 110 -341 110 -341 110 -318 c 1,61,62
 115 -295 115 -295 120 -312 c 1,63,64
 157 -289 157 -289 188 -255 c 0,65,66
 220 -220 220 -220 237 -163 c 0,67,68
 248 -125 248 -125 248 -54 c 0,69,70
 248 57 248 57 249 187 c 0,0,1
EndSplineSet
Validated: 1
EndChar

StartChar: beta
Encoding: 946 946 177
Width: 1185
Flags: MW
LayerCount: 2
Fore
SplineSet
946 50 m 1,0,1
 834 -29 834 -29 665 -47 c 0,2,3
 638 -50 638 -50 613 -50 c 0,4,5
 514 -50 514 -50 473 -30 c 1,6,-1
 473 -442 l 2,7,8
 473 -492 473 -492 507 -505 c 0,9,10
 570 -528 570 -528 570 -565 c 0,11,12
 570 -606 570 -606 525 -606 c 2,13,-1
 196 -606 l 2,14,15
 150 -606 150 -606 150 -565 c 0,16,17
 150 -528 150 -528 215 -504 c 0,18,19
 248 -492 248 -492 248 -442 c 2,20,-1
 248 976 l 2,21,22
 248 1158 248 1158 375 1312 c 1,23,24
 504 1466 504 1466 752 1466 c 2,25,-1
 762 1466 l 1,26,27
 1009 1462 1009 1462 1090 1268 c 0,28,29
 1112 1216 1112 1216 1112 1157 c 0,30,31
 1112 1021 1112 1021 973 890 c 0,32,33
 951 868 951 868 929 851 c 1,34,35
 1053 790 1053 790 1120 672 c 0,36,37
 1179 569 1179 569 1179 458 c 0,38,39
 1179 437 1179 437 1178 427 c 0,40,41
 1158 202 1158 202 946 50 c 1,0,1
473 150 m 1,42,43
 517 112 517 112 602 92 c 0,44,45
 649 81 649 81 692 81 c 0,46,47
 767 81 767 81 830 114 c 0,48,49
 926 164 926 164 959 258 c 0,50,51
 978 312 978 312 978 363 c 0,52,53
 978 410 978 410 965 451 c 0,54,55
 935 546 935 546 839 619 c 1,56,57
 745 688 745 688 560 693 c 1,58,-1
 556 753 l 1,59,60
 638 779 638 779 728 820 c 1,61,62
 810 855 810 855 854 930 c 1,63,64
 890 988 890 988 890 1053 c 0,65,66
 890 1071 890 1071 887 1089 c 0,67,68
 872 1168 872 1168 822 1221 c 1,69,70
 756 1289 756 1289 667 1289 c 0,71,72
 547 1289 547 1289 510 1181 c 128,-1,73
 473 1073 473 1073 473 967 c 2,74,-1
 473 150 l 1,42,43
EndSplineSet
Validated: 1
EndChar

StartChar: alpha
Encoding: 945 945 178
Width: 1297
Flags: MW
LayerCount: 2
Fore
SplineSet
596 982 m 1,0,1
 846 970 846 970 923 800 c 1,2,-1
 931 836 l 1,3,4
 944 888 944 888 961 957 c 1,5,-1
 1171 957 l 1,6,-1
 1047 459 l 1,7,8
 1051 433 1051 433 1064.5 351.5 c 128,-1,9
 1078 270 1078 270 1101 202.5 c 128,-1,10
 1124 135 1124 135 1155 114 c 1,11,12
 1168 116 1168 116 1206 178 c 1,13,-1
 1292 183 l 1,14,15
 1234 -32 1234 -32 1138 -32 c 0,16,17
 1105 -32 1105 -32 1074 -12 c 0,18,19
 954 61 954 61 937 160 c 1,20,21
 914 113 914 113 821 39 c 0,22,23
 726 -36 726 -36 573 -41 c 1,24,-1
 558 -41 l 2,25,26
 353 -41 353 -41 210 108 c 0,27,28
 64 260 64 260 64 468 c 0,29,30
 64 694 64 694 232 852 c 1,31,32
 282 896 282 896 364 919.5 c 128,-1,33
 446 943 446 943 502 963 c 1,34,35
 550 982 550 982 596 982 c 1,0,1
850 507 m 1,36,37
 819 620 819 620 763.5 742.5 c 128,-1,38
 708 865 708 865 574 875 c 1,39,40
 434 875 434 875 369 744 c 128,-1,41
 304 613 304 613 304 485 c 0,42,43
 304 359 304 359 370 216 c 128,-1,44
 436 73 436 73 574 66 c 1,45,46
 680 66 680 66 735 171 c 1,47,48
 776 252 776 252 802 337 c 128,-1,49
 828 422 828 422 850 507 c 1,36,37
EndSplineSet
Validated: 1
EndChar

StartChar: delta
Encoding: 948 948 179
Width: 1075
Flags: MW
LayerCount: 2
Fore
SplineSet
571 849 m 1,0,-1
 560 849 l 2,1,2
 460 849 460 849 387 747 c 1,3,4
 304 633 304 633 304 464 c 2,5,-1
 304 460 l 2,6,7
 304 294 304 294 386 172 c 1,8,9
 464 54 464 54 571 49 c 1,10,-1
 583 49 l 2,11,12
 682 49 682 49 755 151 c 1,13,14
 838 264 838 264 839 433 c 0,15,16
 839 602 839 602 758 722.5 c 128,-1,17
 677 843 677 843 571 849 c 1,0,-1
455 1526 m 1,18,19
 515 1521 515 1521 590 1494 c 0,20,21
 623 1482 623 1482 653 1482 c 0,22,23
 677 1482 677 1482 700 1490 c 0,24,25
 736 1501 736 1501 736 1535 c 0,26,27
 736 1546 736 1546 728 1574 c 1,28,-1
 856 1623 l 1,29,30
 898 1551 898 1551 898 1505 c 0,31,32
 898 1460 898 1460 869 1421 c 0,33,34
 818 1354 818 1354 723 1350 c 1,35,-1
 708 1350 l 2,36,37
 620 1350 620 1350 540 1396 c 1,38,-1
 471 1421 l 1,39,40
 718 1274 718 1274 892.5 1036 c 128,-1,41
 1067 798 1067 798 1072 449 c 1,42,-1
 1072 443 l 2,43,44
 1072 237 1072 237 928 93 c 0,45,46
 782 -53 782 -53 569 -59 c 1,47,-1
 556 -59 l 2,48,49
 355 -59 355 -59 211 90 c 0,50,51
 66 240 66 240 66 446 c 2,52,-1
 66 449 l 1,53,54
 67 672 67 672 233 827 c 0,55,56
 256 848 256 848 295 861.5 c 128,-1,57
 334 875 334 875 406 902 c 0,58,59
 448 918 448 918 500 937 c 0,60,61
 554 956 554 956 589 956 c 2,62,-1
 593 956 l 1,63,64
 713 951 713 951 743 934 c 1,65,66
 691 1032 691 1032 597 1146.5 c 128,-1,67
 503 1261 503 1261 324 1358 c 0,68,69
 294 1374 294 1374 294 1395 c 0,70,71
 294 1403 294 1403 298 1409 c 0,72,73
 305 1422 305 1422 317 1443 c 0,74,75
 360 1526 360 1526 443 1526 c 2,76,-1
 455 1526 l 1,18,19
EndSplineSet
Validated: 1
EndChar

StartChar: Pi
Encoding: 928 928 180
Width: 1672
Flags: MW
LayerCount: 2
Fore
SplineSet
471 1275 m 1,0,1
 463 1261 463 1261 463 1243 c 0,2,3
 463 698 463 698 463 157 c 0,4,5
 463 134 463 134 471 119 c 128,-1,6
 479 104 479 104 498 98 c 0,7,8
 562 76 562 76 562 39 c 0,9,10
 562 19 562 19 548 8 c 0,11,12
 537 0 537 0 520 0 c 2,13,-1
 191 0 l 2,14,15
 170 0 170 0 159 14 c 0,16,17
 151 24 151 24 151 39 c 0,18,19
 151 77 151 77 213 98 c 0,20,21
 232 105 232 105 240 120 c 128,-1,22
 248 135 248 135 248 158 c 0,23,24
 248 702 248 702 248 1246 c 0,25,26
 248 1269 248 1269 240 1284 c 128,-1,27
 232 1299 232 1299 213 1306 c 0,28,29
 151 1328 151 1328 151 1365 c 0,30,31
 151 1381 151 1381 159 1391 c 0,32,33
 170 1405 170 1405 191 1405 c 2,34,-1
 1557 1405 l 2,35,36
 1578 1405 1578 1405 1589 1391 c 0,37,38
 1597 1381 1597 1381 1597 1366 c 128,-1,39
 1597 1351 1597 1351 1588 1338 c 0,40,41
 1574 1319 1574 1319 1535 1306 c 0,42,43
 1516 1299 1516 1299 1508 1284 c 128,-1,44
 1500 1269 1500 1269 1500 1246 c 0,45,46
 1500 702 1500 702 1500 158 c 0,47,48
 1500 135 1500 135 1508 120 c 128,-1,49
 1516 105 1516 105 1535 98 c 0,50,51
 1597 76 1597 76 1597 39 c 0,52,53
 1597 24 1597 24 1589 14 c 0,54,55
 1578 0 1578 0 1557 0 c 2,56,-1
 1228 0 l 2,57,58
 1211 0 1211 0 1200 8 c 0,59,60
 1185 19 1185 19 1185 39 c 0,61,62
 1185 76 1185 76 1249 98 c 0,63,64
 1269 105 1269 105 1277 120 c 128,-1,65
 1285 135 1285 135 1285 157 c 0,66,67
 1285 698 1285 698 1285 1243 c 0,68,69
 1285 1260 1285 1260 1276 1275 c 1,70,-1
 471 1275 l 1,0,1
EndSplineSet
Validated: 1
EndChar

StartChar: uni037A
Encoding: 890 890 181
Width: 1000
Flags: MW
LayerCount: 2
Fore
SplineSet
366 -165 m 1,0,-1
 540 -165 l 1,1,-1
 540 -423 l 2,2,3
 540 -445 540 -445 551 -445 c 2,4,-1
 552 -445 l 2,5,6
 577 -445 577 -445 577 -403 c 1,7,-1
 684 -403 l 1,8,9
 684 -478 684 -478 639 -525 c 128,-1,10
 594 -572 594 -572 525 -572 c 0,11,12
 455 -572 455 -572 410.5 -524.5 c 128,-1,13
 366 -477 366 -477 366 -423 c 2,14,-1
 366 -165 l 1,0,-1
EndSplineSet
Validated: 1
EndChar

StartChar: uni03A9
Encoding: 937 937 182
Width: 1621
Flags: MW
LayerCount: 2
Fore
SplineSet
679 -20 m 1,0,-1
 229 -20 l 1,1,-1
 230 230 l 1,2,-1
 352 230 l 1,3,-1
 546 139 l 1,4,-1
 546 195 l 1,5,6
 339 244 339 244 188 406 c 0,7,8
 47 558 47 558 47 768 c 0,9,10
 47 783 47 783 48 800 c 0,11,12
 60 1086 60 1086 270 1254 c 128,-1,13
 480 1422 480 1422 811 1425 c 1,14,-1
 822 1425 l 2,15,16
 1146 1425 1146 1425 1368 1259 c 1,17,18
 1576 1101 1576 1101 1576 845 c 0,19,20
 1576 821 1576 821 1574 798 c 0,21,22
 1559 570 1559 570 1418 411 c 128,-1,23
 1277 252 1277 252 1079 196 c 1,24,-1
 1079 139 l 1,25,-1
 1273 230 l 1,26,-1
 1396 230 l 1,27,-1
 1396 -20 l 1,28,-1
 945 -20 l 1,29,-1
 945 295 l 1,30,31
 1123 351 1123 351 1222 493 c 256,32,33
 1321 635 1321 635 1321 793 c 2,34,-1
 1321 796 l 1,35,36
 1318 995 1318 995 1199.5 1154.5 c 128,-1,37
 1081 1314 1081 1314 810 1314 c 0,38,39
 525 1313 525 1313 412.5 1163 c 128,-1,40
 300 1013 300 1013 300 796 c 0,41,42
 300 618 300 618 399 481.5 c 128,-1,43
 498 345 498 345 679 295 c 1,44,-1
 679 -20 l 1,0,-1
EndSplineSet
Validated: 1
EndChar

StartChar: Psi
Encoding: 936 936 183
Width: 1342
Flags: MW
LayerCount: 2
Fore
SplineSet
801 1262 m 2,0,-1
 801 725 l 1,1,2
 893 749 893 749 972 889 c 128,-1,3
 1051 1029 1051 1029 1051 1192 c 2,4,-1
 1051 1232 l 2,5,6
 1051 1361 1051 1361 1134 1392 c 0,7,8
 1208 1420 1208 1420 1279 1426 c 1,9,10
 1329 1426 1329 1426 1329 1382 c 0,11,12
 1329 1355 1329 1355 1308.5 1346 c 128,-1,13
 1288 1337 1288 1337 1282 1331 c 0,14,15
 1246 1299 1246 1299 1246 1254 c 0,16,17
 1246 1248 1246 1248 1247 1240 c 1,18,19
 1247 1228 1247 1228 1248 1217.5 c 128,-1,20
 1249 1207 1249 1207 1250 1195 c 1,21,-1
 1250 1170 l 2,22,23
 1250 922 1250 922 1119 781 c 0,24,25
 979 631 979 631 801 612 c 1,26,-1
 801 143 l 2,27,28
 801 93 801 93 849.5 75 c 128,-1,29
 898 57 898 57 898 20 c 0,30,31
 898 -20 898 -20 853 -20 c 2,32,-1
 523 -20 l 2,33,34
 478 -20 478 -20 478 20 c 0,35,36
 478 57 478 57 526.5 74.5 c 128,-1,37
 575 92 575 92 575 142 c 2,38,-1
 575 611 l 1,39,40
 396 629 396 629 254 780 c 1,41,42
 121 919 121 919 121 1167 c 0,43,44
 121 1181 121 1181 122 1195 c 0,45,46
 122 1206 122 1206 123 1217 c 128,-1,47
 124 1228 124 1228 125 1241 c 0,48,49
 126 1247 126 1247 126 1253 c 0,50,51
 126 1302 126 1302 91 1330 c 0,52,53
 83 1337 83 1337 72 1342 c 0,54,55
 43 1356 43 1356 43 1380 c 2,56,-1
 43 1382 l 2,57,58
 43 1426 43 1426 92 1426 c 1,59,60
 163 1420 163 1420 238 1392 c 0,61,62
 321 1361 321 1361 321 1232 c 2,63,-1
 321 1222 l 2,64,65
 321 1214 321 1214 320.5 1206.5 c 128,-1,66
 320 1199 320 1199 320 1192 c 0,67,68
 320 1028 320 1028 400 887 c 128,-1,69
 480 746 480 746 575 723 c 1,70,-1
 575 1262 l 2,71,72
 575 1312 575 1312 526.5 1329.5 c 128,-1,73
 478 1347 478 1347 478 1385 c 0,74,75
 478 1425 478 1425 523 1425 c 2,76,-1
 853 1425 l 2,77,78
 898 1425 898 1425 898 1385 c 0,79,80
 898 1347 898 1347 849.5 1329.5 c 128,-1,81
 801 1312 801 1312 801 1262 c 2,0,-1
EndSplineSet
Validated: 1
EndChar

StartChar: zeta
Encoding: 950 950 184
Width: 907
Flags: MW
LayerCount: 2
Fore
SplineSet
376.5 707.5 m 128,-1,1
 352 593 352 593 348.5 519 c 128,-1,2
 345 445 345 445 345 386 c 128,-1,3
 345 327 345 327 364.5 241 c 128,-1,4
 384 155 384 155 445 138 c 2,5,-1
 719 60 l 1,6,7
 798 34 798 34 853 -37.5 c 128,-1,8
 908 -109 908 -109 910 -190 c 1,9,-1
 910 -192 l 2,10,11
 910 -312 910 -312 814 -412 c 0,12,13
 754 -474 754 -474 686 -517 c 128,-1,14
 618 -560 618 -560 550.5 -575 c 128,-1,15
 483 -590 483 -590 447 -590 c 128,-1,16
 411 -590 411 -590 385 -588.5 c 128,-1,17
 359 -587 359 -587 328 -578 c 2,18,-1
 195 -537 l 1,19,-1
 290 -480 l 1,20,-1
 314 -480 l 1,21,22
 394 -475 394 -475 466.5 -435 c 128,-1,23
 539 -395 539 -395 592 -343 c 1,24,25
 673 -259 673 -259 683 -182 c 0,26,27
 684 -173 684 -173 684 -150 c 128,-1,28
 684 -127 684 -127 666.5 -90 c 128,-1,29
 649 -53 649 -53 598 -38 c 0,30,31
 402 19 402 19 264 93 c 0,32,33
 129 165 129 165 129 427 c 0,34,35
 129 431 129 431 130 432 c 0,36,37
 131 699 131 699 222.5 889.5 c 128,-1,38
 314 1080 314 1080 449 1205 c 1,39,-1
 311 1226 l 1,40,41
 273 1233 273 1233 234.5 1242.5 c 128,-1,42
 196 1252 196 1252 168.5 1288.5 c 128,-1,43
 141 1325 141 1325 141 1370.5 c 128,-1,44
 141 1416 141 1416 185 1488 c 1,45,-1
 310 1439 l 1,46,47
 299 1395 299 1395 288.5 1369 c 128,-1,48
 278 1343 278 1343 278 1338 c 128,-1,49
 278 1333 278 1333 284 1332 c 2,50,-1
 541 1288 l 1,51,52
 583 1315 583 1315 700 1390.5 c 128,-1,53
 817 1466 817 1466 865.5 1482 c 128,-1,54
 914 1498 914 1498 959.5 1498 c 128,-1,55
 1005 1498 1005 1498 1055 1465 c 0,56,57
 1131 1415 1131 1415 1141 1344 c 0,58,59
 1142 1335 1142 1335 1142 1326 c 0,60,61
 1142 1265 1142 1265 1084.5 1210 c 128,-1,62
 1027 1155 1027 1155 932 1143 c 0,63,64
 909 1140 909 1140 884 1140 c 128,-1,65
 859 1140 859 1140 826 1146 c 128,-1,66
 793 1152 793 1152 762.5 1156.5 c 128,-1,67
 732 1161 732 1161 692 1167 c 128,-1,68
 652 1173 652 1173 632 1177 c 1,69,70
 547 1107 547 1107 510 1042.5 c 128,-1,71
 473 978 473 978 437 900 c 128,-1,0
 401 822 401 822 376.5 707.5 c 128,-1,1
734 1256 m 1,72,73
 742 1256 742 1256 798.5 1250.5 c 128,-1,74
 855 1245 855 1245 897.5 1245 c 128,-1,75
 940 1245 940 1245 974 1272.5 c 128,-1,76
 1008 1300 1008 1300 1008 1331 c 0,77,78
 1008 1338 1008 1338 1006 1345 c 0,79,80
 996 1380 996 1380 955 1386 c 1,81,-1
 950 1386 l 2,82,83
 913 1386 913 1386 823.5 1321.5 c 128,-1,84
 734 1257 734 1257 734 1256 c 1,72,73
EndSplineSet
Validated: 1
EndChar

